CooperHewittInterpol1-Medium.ufo
<glyph name="dollar" format="1">
  <advance width="600"/>
  <unicode hex="0024"/>
  <outline>
    <contour>
      <point x="167" y="541" type="line" smooth="yes"/>
      <point x="167" y="546" type="line" smooth="yes"/>
      <point x="205" y="617" type="line" smooth="yes"/>
      <point x="297" y="642" type="line" smooth="yes"/>
      <point x="301" y="642" type="line" smooth="yes"/>
      <point x="309" y="642" type="line" smooth="yes"/>
      <point x="317" y="641" type="line" smooth="yes"/>
      <point x="270" y="443" type="line" smooth="yes"/>
      <point x="190" y="479" type="line" smooth="yes"/>
    </contour>
    <contour>
      <point x="308" y="138" type="line" smooth="yes"/>
      <point x="304" y="138" type="line" smooth="yes"/>
      <point x="292" y="138" type="line" smooth="yes"/>
      <point x="280" y="139" type="line" smooth="yes"/>
      <point x="330" y="349" type="line" smooth="yes"/>
      <point x="414" y="314" type="line" smooth="yes"/>
      <point x="440" y="247" type="line" smooth="yes"/>
      <point x="440" y="242" type="line" smooth="yes"/>
      <point x="403" y="165" type="line" smooth="yes"/>
    </contour>
    <contour>
      <point x="448" y="840" type="line" smooth="yes"/>
      <point x="365" y="840" type="line" smooth="yes"/>
      <point x="338" y="727" type="line" smooth="yes"/>
      <point x="319" y="728" type="line" smooth="yes"/>
      <point x="300" y="729" type="line" smooth="yes"/>
      <point x="128" y="679" type="line" smooth="yes"/>
      <point x="63" y="540" type="line" smooth="yes"/>
      <point x="63" y="532" type="line" smooth="yes"/>
      <point x="107" y="420" type="line" smooth="yes"/>
      <point x="250" y="361" type="line" smooth="yes"/>
      <point x="204" y="168" type="line" smooth="yes"/>
      <point x="170" y="213" type="line" smooth="yes"/>
      <point x="158" y="276" type="line" smooth="yes"/>
      <point x="56" y="276" type="line" smooth="yes"/>
      <point x="56" y="270" type="line" smooth="yes"/>
      <point x="88" y="149" type="line" smooth="yes"/>
      <point x="182" y="73" type="line" smooth="yes"/>
      <point x="150" y="-60" type="line" smooth="yes"/>
      <point x="233" y="-60" type="line" smooth="yes"/>
      <point x="260" y="54" type="line" smooth="yes"/>
      <point x="283" y="53" type="line" smooth="yes"/>
      <point x="306" y="52" type="line" smooth="yes"/>
      <point x="483" y="104" type="line" smooth="yes"/>
      <point x="545" y="247" type="line" smooth="yes"/>
      <point x="545" y="255" type="line" smooth="yes"/>
      <point x="496" y="375" type="line" smooth="yes"/>
      <point x="350" y="431" type="line" smooth="yes"/>
      <point x="394" y="614" type="line" smooth="yes"/>
      <point x="426" y="566" type="line" smooth="yes"/>
      <point x="436" y="495" type="line" smooth="yes"/>
      <point x="538" y="495" type="line" smooth="yes"/>
      <point x="538" y="510" type="line" smooth="yes"/>
      <point x="508" y="636" type="line" smooth="yes"/>
      <point x="417" y="710" type="line" smooth="yes"/>
    </contour>
  </outline>
</glyph>
<glyph name="percent" format="1">
  <advance width="943"/>
  <unicode hex="0025"/>
  <outline>
    <contour>
      <point x="355" y="0" type="line" smooth="yes"/>
      <point x="656" y="725" type="line" smooth="yes"/>
      <point x="656" y="782" type="line" smooth="yes"/>
      <point x="577" y="762" type="line" smooth="yes"/>
      <point x="461" y="750" type="line" smooth="yes"/>
      <point x="371" y="755" type="line" smooth="yes"/>
      <point x="289" y="776" type="line" smooth="yes"/>
      <point x="251" y="788" type="line" smooth="yes"/>
      <point x="210" y="792" type="line" smooth="yes"/>
      <point x="85" y="747" type="line" smooth="yes"/>
      <point x="34" y="614" type="line" smooth="yes"/>
      <point x="34" y="603" type="line" smooth="yes"/>
      <point x="85" y="471" type="line" smooth="yes"/>
      <point x="210" y="426" type="line" smooth="yes"/>
      <point x="335" y="471" type="line" smooth="yes"/>
      <point x="385" y="603" type="line" smooth="yes"/>
      <point x="385" y="614" type="line" smooth="yes"/>
      <point x="383" y="644" type="line" smooth="yes"/>
      <point x="378" y="671" type="line" smooth="yes"/>
      <point x="411" y="667" type="line" smooth="yes"/>
      <point x="446" y="666" type="line" smooth="yes"/>
      <point x="512" y="672" type="line" smooth="yes"/>
      <point x="545" y="678" type="line" smooth="yes"/>
      <point x="263" y="0" type="line" smooth="yes"/>
    </contour>
    <contour>
      <point x="637" y="163" type="line" smooth="yes"/>
      <point x="637" y="179" type="line" smooth="yes"/>
      <point x="664" y="249" type="line" smooth="yes"/>
      <point x="730" y="274" type="line" smooth="yes"/>
      <point x="736" y="274" type="line" smooth="yes"/>
      <point x="802" y="249" type="line" smooth="yes"/>
      <point x="829" y="179" type="line" smooth="yes"/>
      <point x="829" y="163" type="line" smooth="yes"/>
      <point x="802" y="93" type="line" smooth="yes"/>
      <point x="736" y="68" type="line" smooth="yes"/>
      <point x="730" y="68" type="line" smooth="yes"/>
      <point x="664" y="93" type="line" smooth="yes"/>
    </contour>
    <contour>
      <point x="306" y="617" type="line" smooth="yes"/>
      <point x="306" y="601" type="line" smooth="yes"/>
      <point x="279" y="531" type="line" smooth="yes"/>
      <point x="213" y="506" type="line" smooth="yes"/>
      <point x="207" y="506" type="line" smooth="yes"/>
      <point x="141" y="531" type="line" smooth="yes"/>
      <point x="114" y="601" type="line" smooth="yes"/>
      <point x="114" y="617" type="line" smooth="yes"/>
      <point x="141" y="687" type="line" smooth="yes"/>
      <point x="207" y="712" type="line" smooth="yes"/>
      <point x="213" y="712" type="line" smooth="yes"/>
      <point x="279" y="687" type="line" smooth="yes"/>
    </contour>
    <contour>
      <point x="558" y="177" type="line" smooth="yes"/>
      <point x="558" y="166" type="line" smooth="yes"/>
      <point x="608" y="33" type="line" smooth="yes"/>
      <point x="733" y="-12" type="line" smooth="yes"/>
      <point x="858" y="33" type="line" smooth="yes"/>
      <point x="908" y="166" type="line" smooth="yes"/>
      <point x="908" y="177" type="line" smooth="yes"/>
      <point x="858" y="309" type="line" smooth="yes"/>
      <point x="733" y="354" type="line" smooth="yes"/>
      <point x="608" y="309" type="line" smooth="yes"/>
    </contour>
  </outline>
</glyph>
<glyph name="ampersand" format="1">
  <advance width="671"/>
  <unicode hex="0026"/>
  <outline>
    <contour>
      <point x="171" y="621" type="line" smooth="yes"/>
      <point x="194" y="679" type="line" smooth="yes"/>
      <point x="260" y="704" type="line" smooth="yes"/>
      <point x="267" y="704" type="line" smooth="yes"/>
      <point x="334" y="679" type="line" smooth="yes"/>
      <point x="357" y="621" type="line" smooth="yes"/>
      <point x="357" y="613" type="line" smooth="yes"/>
      <point x="320" y="536" type="line" smooth="yes"/>
      <point x="234" y="475" type="line" smooth="yes"/>
      <point x="189" y="540" type="line" smooth="yes"/>
      <point x="171" y="613" type="line" smooth="yes"/>
    </contour>
    <contour>
      <point x="272" y="79" type="line" smooth="yes"/>
      <point x="170" y="116" type="line" smooth="yes"/>
      <point x="137" y="213" type="line" smooth="yes"/>
      <point x="137" y="221" type="line" smooth="yes"/>
      <point x="159" y="297" type="line" smooth="yes"/>
      <point x="215" y="355" type="line" smooth="yes"/>
      <point x="418" y="129" type="line" smooth="yes"/>
      <point x="352" y="92" type="line" smooth="yes"/>
      <point x="277" y="79" type="line" smooth="yes"/>
    </contour>
    <contour>
      <point x="260" y="-12" type="line" smooth="yes"/>
      <point x="381" y="6" type="line" smooth="yes"/>
      <point x="480" y="60" type="line" smooth="yes"/>
      <point x="534" y="0" type="line" smooth="yes"/>
      <point x="660" y="0" type="line" smooth="yes"/>
      <point x="545" y="129" type="line" smooth="yes"/>
      <point x="601" y="247" type="line" smooth="yes"/>
      <point x="620" y="393" type="line" smooth="yes"/>
      <point x="620" y="395" type="line" smooth="yes"/>
      <point x="514" y="395" type="line" smooth="yes"/>
      <point x="514" y="391" type="line" smooth="yes"/>
      <point x="504" y="288" type="line" smooth="yes"/>
      <point x="476" y="206" type="line" smooth="yes"/>
      <point x="295" y="408" type="line" smooth="yes"/>
      <point x="408" y="491" type="line" smooth="yes"/>
      <point x="460" y="613" type="line" smooth="yes"/>
      <point x="460" y="624" type="line" smooth="yes"/>
      <point x="412" y="743" type="line" smooth="yes"/>
      <point x="264" y="792" type="line" smooth="yes"/>
      <point x="116" y="743" type="line" smooth="yes"/>
      <point x="67" y="624" type="line" smooth="yes"/>
      <point x="67" y="613" type="line" smooth="yes"/>
      <point x="90" y="512" type="line" smooth="yes"/>
      <point x="155" y="423" type="line" smooth="yes"/>
      <point x="70" y="339" type="line" smooth="yes"/>
      <point x="34" y="216" type="line" smooth="yes"/>
      <point x="34" y="206" type="line" smooth="yes"/>
      <point x="94" y="46" type="line" smooth="yes"/>
    </contour>
  </outline>
</glyph>
<glyph name="parenleft" format="1">
  <advance width="334"/>
  <unicode hex="0028"/>
  <outline>
    <contour>
      <point x="46" y="350" type="line" smooth="yes"/>
      <point x="91" y="73" type="line" smooth="yes"/>
      <point x="198" y="-120" type="line" smooth="yes"/>
      <point x="305" y="-120" type="line" smooth="yes"/>
      <point x="194" y="84" type="line" smooth="yes"/>
      <point x="148" y="350" type="line" smooth="yes"/>
      <point x="148" y="370" type="line" smooth="yes"/>
      <point x="194" y="636" type="line" smooth="yes"/>
      <point x="305" y="840" type="line" smooth="yes"/>
      <point x="198" y="840" type="line" smooth="yes"/>
      <point x="91" y="647" type="line" smooth="yes"/>
      <point x="46" y="370" type="line" smooth="yes"/>
    </contour>
  </outline>
</glyph>
<glyph name="parenright" format="1">
  <advance width="334"/>
  <unicode hex="0029"/>
  <outline>
    <contour>
      <point x="288" y="370" type="line" smooth="yes"/>
      <point x="243" y="647" type="line" smooth="yes"/>
      <point x="136" y="840" type="line" smooth="yes"/>
      <point x="29" y="840" type="line" smooth="yes"/>
      <point x="141" y="636" type="line" smooth="yes"/>
      <point x="186" y="370" type="line" smooth="yes"/>
      <point x="186" y="350" type="line" smooth="yes"/>
      <point x="141" y="84" type="line" smooth="yes"/>
      <point x="29" y="-120" type="line" smooth="yes"/>
      <point x="136" y="-120" type="line" smooth="yes"/>
      <point x="243" y="73" type="line" smooth="yes"/>
      <point x="288" y="350" type="line" smooth="yes"/>
    </contour>
  </outline>
</glyph>
<glyph name="period" format="1">
  <advance width="234"/>
  <unicode hex="002E"/>
  <outline>
    <contour>
      <point x="174" y="114" type="line" smooth="yes"/>
      <point x="60" y="114" type="line" smooth="yes"/>
      <point x="60" y="0" type="line" smooth="yes"/>
      <point x="174" y="0" type="line" smooth="yes"/>
    </contour>
  </outline>
</glyph>
<glyph name="slash" format="1">
  <advance width="360"/>
  <unicode hex="002F"/>
  <outline>
    <contour>
      <point x="345" y="840" type="line" smooth="yes"/>
      <point x="245" y="840" type="line" smooth="yes"/>
      <point x="15" y="-120" type="line" smooth="yes"/>
      <point x="115" y="-120" type="line" smooth="yes"/>
    </contour>
  </outline>
</glyph>
<glyph name="zero" format="1">
  <advance width="600"/>
  <unicode hex="0030"/>
  <outline>
    <contour>
      <point x="441" y="551" type="line" smooth="yes"/>
      <point x="441" y="229" type="line" smooth="yes"/>
      <point x="410" y="120" type="line" smooth="yes"/>
      <point x="303" y="79" type="line" smooth="yes"/>
      <point x="297" y="79" type="line" smooth="yes"/>
      <point x="190" y="120" type="line" smooth="yes"/>
      <point x="159" y="229" type="line" smooth="yes"/>
      <point x="159" y="551" type="line" smooth="yes"/>
      <point x="190" y="660" type="line" smooth="yes"/>
      <point x="297" y="701" type="line" smooth="yes"/>
      <point x="303" y="701" type="line" smooth="yes"/>
      <point x="410" y="660" type="line" smooth="yes"/>
    </contour>
    <contour>
      <point x="544" y="223" type="line" smooth="yes"/>
      <point x="544" y="557" type="line" smooth="yes"/>
      <point x="486" y="725" type="line" smooth="yes"/>
      <point x="300" y="792" type="line" smooth="yes"/>
      <point x="114" y="725" type="line" smooth="yes"/>
      <point x="56" y="557" type="line" smooth="yes"/>
      <point x="56" y="223" type="line" smooth="yes"/>
      <point x="114" y="55" type="line" smooth="yes"/>
      <point x="300" y="-12" type="line" smooth="yes"/>
      <point x="486" y="55" type="line" smooth="yes"/>
    </contour>
  </outline>
</glyph>
<glyph name="two" format="1">
  <advance width="600"/>
  <unicode hex="0032"/>
  <outline>
    <contour>
      <point x="275" y="92" type="line" smooth="yes"/>
      <point x="203" y="91" type="line" smooth="yes"/>
      <point x="459" y="366" type="line" smooth="yes"/>
      <point x="528" y="461" type="line" smooth="yes"/>
      <point x="548" y="567" type="line" smooth="yes"/>
      <point x="548" y="581" type="line" smooth="yes"/>
      <point x="487" y="730" type="line" smooth="yes"/>
      <point x="300" y="792" type="line" smooth="yes"/>
      <point x="112" y="728" type="line" smooth="yes"/>
      <point x="52" y="542" type="line" smooth="yes"/>
      <point x="52" y="520" type="line" smooth="yes"/>
      <point x="154" y="520" type="line" smooth="yes"/>
      <point x="190" y="659" type="line" smooth="yes"/>
      <point x="296" y="701" type="line" smooth="yes"/>
      <point x="304" y="701" type="line" smooth="yes"/>
      <point x="406" y="665" type="line" smooth="yes"/>
      <point x="445" y="563" type="line" smooth="yes"/>
      <point x="445" y="553" type="line" smooth="yes"/>
      <point x="430" y="484" type="line" smooth="yes"/>
      <point x="376" y="413" type="line" smooth="yes"/>
      <point x="52" y="64" type="line" smooth="yes"/>
      <point x="52" y="0" type="line" smooth="yes"/>
      <point x="548" y="0" type="line" smooth="yes"/>
      <point x="548" y="92" type="line" smooth="yes"/>
    </contour>
  </outline>
</glyph>
<glyph name="three" format="1">
  <advance width="600"/>
  <unicode hex="0033"/>
  <outline>
    <contour>
      <point x="149" y="250" type="line" smooth="yes"/>
      <point x="47" y="250" type="line" smooth="yes"/>
      <point x="47" y="238" type="line" smooth="yes"/>
      <point x="109" y="55" type="line" smooth="yes"/>
      <point x="300" y="-12" type="line" smooth="yes"/>
      <point x="487" y="52" type="line" smooth="yes"/>
      <point x="553" y="203" type="line" smooth="yes"/>
      <point x="553" y="220" type="line" smooth="yes"/>
      <point x="521" y="333" type="line" smooth="yes"/>
      <point x="440" y="398" type="line" smooth="yes"/>
      <point x="517" y="461" type="line" smooth="yes"/>
      <point x="548" y="568" type="line" smooth="yes"/>
      <point x="548" y="585" type="line" smooth="yes"/>
      <point x="487" y="730" type="line" smooth="yes"/>
      <point x="300" y="792" type="line" smooth="yes"/>
      <point x="112" y="728" type="line" smooth="yes"/>
      <point x="52" y="542" type="line" smooth="yes"/>
      <point x="52" y="520" type="line" smooth="yes"/>
      <point x="154" y="520" type="line" smooth="yes"/>
      <point x="190" y="659" type="line" smooth="yes"/>
      <point x="295" y="701" type="line" smooth="yes"/>
      <point x="305" y="701" type="line" smooth="yes"/>
      <point x="407" y="666" type="line" smooth="yes"/>
      <point x="445" y="573" type="line" smooth="yes"/>
      <point x="445" y="565" type="line" smooth="yes"/>
      <point x="406" y="473" type="line" smooth="yes"/>
      <point x="308" y="443" type="line" smooth="yes"/>
      <point x="200" y="443" type="line" smooth="yes"/>
      <point x="200" y="353" type="line" smooth="yes"/>
      <point x="312" y="353" type="line" smooth="yes"/>
      <point x="411" y="321" type="line" smooth="yes"/>
      <point x="450" y="224" type="line" smooth="yes"/>
      <point x="450" y="211" type="line" smooth="yes"/>
      <point x="406" y="111" type="line" smooth="yes"/>
      <point x="305" y="79" type="line" smooth="yes"/>
      <point x="295" y="79" type="line" smooth="yes"/>
      <point x="189" y="119" type="line" smooth="yes"/>
    </contour>
  </outline>
</glyph>
<glyph name="five" format="1">
  <advance width="600"/>
  <unicode hex="0035"/>
  <outline>
    <contour>
      <point x="47" y="250" type="line" smooth="yes"/>
      <point x="47" y="238" type="line" smooth="yes"/>
      <point x="109" y="55" type="line" smooth="yes"/>
      <point x="300" y="-12" type="line" smooth="yes"/>
      <point x="484" y="53" type="line" smooth="yes"/>
      <point x="553" y="236" type="line" smooth="yes"/>
      <point x="553" y="251" type="line" smooth="yes"/>
      <point x="484" y="433" type="line" smooth="yes"/>
      <point x="304" y="498" type="line" smooth="yes"/>
      <point x="219" y="486" type="line" smooth="yes"/>
      <point x="148" y="453" type="line" smooth="yes"/>
      <point x="159" y="688" type="line" smooth="yes"/>
      <point x="543" y="688" type="line" smooth="yes"/>
      <point x="543" y="780" type="line" smooth="yes"/>
      <point x="71" y="780" type="line" smooth="yes"/>
      <point x="53" y="346" type="line" smooth="yes"/>
      <point x="139" y="317" type="line" smooth="yes"/>
      <point x="203" y="385" type="line" smooth="yes"/>
      <point x="293" y="408" type="line" smooth="yes"/>
      <point x="301" y="408" type="line" smooth="yes"/>
      <point x="406" y="371" type="line" smooth="yes"/>
      <point x="450" y="251" type="line" smooth="yes"/>
      <point x="450" y="236" type="line" smooth="yes"/>
      <point x="406" y="116" type="line" smooth="yes"/>
      <point x="305" y="79" type="line" smooth="yes"/>
      <point x="295" y="79" type="line" smooth="yes"/>
      <point x="189" y="119" type="line" smooth="yes"/>
      <point x="149" y="250" type="line" smooth="yes"/>
    </contour>
  </outline>
</glyph>
<glyph name="six" format="1">
  <advance width="600"/>
  <unicode hex="0036"/>
  <outline>
    <contour>
      <point x="305" y="399" type="line" smooth="yes"/>
      <point x="310" y="399" type="line" smooth="yes"/>
      <point x="414" y="362" type="line" smooth="yes"/>
      <point x="453" y="249" type="line" smooth="yes"/>
      <point x="453" y="232" type="line" smooth="yes"/>
      <point x="413" y="119" type="line" smooth="yes"/>
      <point x="306" y="80" type="line" smooth="yes"/>
      <point x="300" y="80" type="line" smooth="yes"/>
      <point x="195" y="127" type="line" smooth="yes"/>
      <point x="151" y="260" type="line" smooth="yes"/>
      <point x="151" y="305" type="line" smooth="yes"/>
      <point x="214" y="374" type="line" smooth="yes"/>
    </contour>
    <contour>
      <point x="519" y="792" type="line" smooth="yes"/>
      <point x="320" y="757" type="line" smooth="yes"/>
      <point x="159" y="636" type="line" smooth="yes"/>
      <point x="73" y="462" type="line" smooth="yes"/>
      <point x="49" y="278" type="line" smooth="yes"/>
      <point x="49" y="267" type="line" smooth="yes"/>
      <point x="119" y="62" type="line" smooth="yes"/>
      <point x="303" y="-12" type="line" smooth="yes"/>
      <point x="488" y="52" type="line" smooth="yes"/>
      <point x="556" y="235" type="line" smooth="yes"/>
      <point x="556" y="245" type="line" smooth="yes"/>
      <point x="492" y="428" type="line" smooth="yes"/>
      <point x="327" y="491" type="line" smooth="yes"/>
      <point x="238" y="474" type="line" smooth="yes"/>
      <point x="170" y="430" type="line" smooth="yes"/>
      <point x="198" y="507" type="line" smooth="yes"/>
      <point x="240" y="577" type="line" smooth="yes"/>
      <point x="365" y="671" type="line" smooth="yes"/>
      <point x="519" y="699" type="line" smooth="yes"/>
    </contour>
  </outline>
</glyph>
<glyph name="seven" format="1">
  <advance width="600"/>
  <unicode hex="0037"/>
  <outline>
    <contour>
      <point x="50" y="500" type="line" smooth="yes"/>
      <point x="142" y="500" type="line" smooth="yes"/>
      <point x="142" y="688" type="line" smooth="yes"/>
      <point x="334" y="688" type="line" smooth="yes"/>
      <point x="440" y="690" type="line" smooth="yes"/>
      <point x="155" y="0" type="line" smooth="yes"/>
      <point x="264" y="0" type="line" smooth="yes"/>
      <point x="556" y="717" type="line" smooth="yes"/>
      <point x="556" y="780" type="line" smooth="yes"/>
      <point x="50" y="780" type="line" smooth="yes"/>
    </contour>
  </outline>
</glyph>
<glyph name="eight" format="1">
  <advance width="600"/>
  <unicode hex="0038"/>
  <outline>
    <contour>
      <point x="305" y="701" type="line" smooth="yes"/>
      <point x="407" y="667" type="line" smooth="yes"/>
      <point x="445" y="575" type="line" smooth="yes"/>
      <point x="445" y="566" type="line" smooth="yes"/>
      <point x="406" y="473" type="line" smooth="yes"/>
      <point x="308" y="443" type="line" smooth="yes"/>
      <point x="292" y="443" type="line" smooth="yes"/>
      <point x="194" y="473" type="line" smooth="yes"/>
      <point x="155" y="566" type="line" smooth="yes"/>
      <point x="155" y="575" type="line" smooth="yes"/>
      <point x="194" y="667" type="line" smooth="yes"/>
      <point x="295" y="701" type="line" smooth="yes"/>
    </contour>
    <contour>
      <point x="288" y="353" type="line" smooth="yes"/>
      <point x="312" y="353" type="line" smooth="yes"/>
      <point x="411" y="320" type="line" smooth="yes"/>
      <point x="450" y="222" type="line" smooth="yes"/>
      <point x="450" y="209" type="line" smooth="yes"/>
      <point x="406" y="110" type="line" smooth="yes"/>
      <point x="305" y="79" type="line" smooth="yes"/>
      <point x="295" y="79" type="line" smooth="yes"/>
      <point x="194" y="110" type="line" smooth="yes"/>
      <point x="150" y="209" type="line" smooth="yes"/>
      <point x="150" y="222" type="line" smooth="yes"/>
      <point x="189" y="320" type="line" smooth="yes"/>
    </contour>
    <contour>
      <point x="300" y="-12" type="line" smooth="yes"/>
      <point x="487" y="51" type="line" smooth="yes"/>
      <point x="553" y="201" type="line" smooth="yes"/>
      <point x="553" y="218" type="line" smooth="yes"/>
      <point x="520" y="332" type="line" smooth="yes"/>
      <point x="439" y="398" type="line" smooth="yes"/>
      <point x="517" y="461" type="line" smooth="yes"/>
      <point x="548" y="570" type="line" smooth="yes"/>
      <point x="548" y="587" type="line" smooth="yes"/>
      <point x="487" y="731" type="line" smooth="yes"/>
      <point x="300" y="792" type="line" smooth="yes"/>
      <point x="113" y="731" type="line" smooth="yes"/>
      <point x="52" y="587" type="line" smooth="yes"/>
      <point x="52" y="570" type="line" smooth="yes"/>
      <point x="83" y="461" type="line" smooth="yes"/>
      <point x="161" y="398" type="line" smooth="yes"/>
      <point x="79" y="332" type="line" smooth="yes"/>
      <point x="47" y="218" type="line" smooth="yes"/>
      <point x="47" y="201" type="line" smooth="yes"/>
      <point x="113" y="51" type="line" smooth="yes"/>
    </contour>
  </outline>
</glyph>
<glyph name="nine" format="1">
  <advance width="600"/>
  <unicode hex="0039"/>
  <outline>
    <contour>
      <point x="295" y="381" type="line" smooth="yes"/>
      <point x="290" y="381" type="line" smooth="yes"/>
      <point x="186" y="419" type="line" smooth="yes"/>
      <point x="147" y="531" type="line" smooth="yes"/>
      <point x="147" y="548" type="line" smooth="yes"/>
      <point x="188" y="661" type="line" smooth="yes"/>
      <point x="294" y="700" type="line" smooth="yes"/>
      <point x="300" y="700" type="line" smooth="yes"/>
      <point x="405" y="653" type="line" smooth="yes"/>
      <point x="449" y="520" type="line" smooth="yes"/>
      <point x="449" y="510" type="line" smooth="yes"/>
      <point x="449" y="492" type="line" smooth="yes"/>
      <point x="448" y="474" type="line" smooth="yes"/>
      <point x="385" y="406" type="line" smooth="yes"/>
    </contour>
    <contour>
      <point x="81" y="-12" type="line" smooth="yes"/>
      <point x="280" y="23" type="line" smooth="yes"/>
      <point x="441" y="144" type="line" smooth="yes"/>
      <point x="527" y="318" type="line" smooth="yes"/>
      <point x="551" y="502" type="line" smooth="yes"/>
      <point x="551" y="513" type="line" smooth="yes"/>
      <point x="481" y="718" type="line" smooth="yes"/>
      <point x="297" y="792" type="line" smooth="yes"/>
      <point x="112" y="729" type="line" smooth="yes"/>
      <point x="44" y="545" type="line" smooth="yes"/>
      <point x="44" y="535" type="line" smooth="yes"/>
      <point x="108" y="352" type="line" smooth="yes"/>
      <point x="273" y="289" type="line" smooth="yes"/>
      <point x="362" y="306" type="line" smooth="yes"/>
      <point x="430" y="349" type="line" smooth="yes"/>
      <point x="403" y="272" type="line" smooth="yes"/>
      <point x="360" y="203" type="line" smooth="yes"/>
      <point x="236" y="109" type="line" smooth="yes"/>
      <point x="81" y="81" type="line" smooth="yes"/>
    </contour>
  </outline>
</glyph>
<glyph name="at" format="1">
  <advance width="971"/>
  <unicode hex="0040"/>
  <outline>
    <contour>
      <point x="585" y="391" type="line" smooth="yes"/>
      <point x="585" y="199" type="line" smooth="yes"/>
      <point x="543" y="154" type="line" smooth="yes"/>
      <point x="470" y="130" type="line" smooth="yes"/>
      <point x="378" y="173" type="line" smooth="yes"/>
      <point x="349" y="282" type="line" smooth="yes"/>
      <point x="349" y="308" type="line" smooth="yes"/>
      <point x="378" y="417" type="line" smooth="yes"/>
      <point x="470" y="460" type="line" smooth="yes"/>
      <point x="543" y="436" type="line" smooth="yes"/>
    </contour>
    <contour>
      <point x="506" y="-140" type="line" smooth="yes"/>
      <point x="217" y="-36" type="line" smooth="yes"/>
      <point x="105" y="270" type="line" smooth="yes"/>
      <point x="105" y="310" type="line" smooth="yes"/>
      <point x="216" y="614" type="line" smooth="yes"/>
      <point x="501" y="720" type="line" smooth="yes"/>
      <point x="507" y="720" type="line" smooth="yes"/>
      <point x="754" y="647" type="line" smooth="yes"/>
      <point x="864" y="392" type="line" smooth="yes"/>
      <point x="864" y="362" type="line" smooth="yes"/>
      <point x="815" y="178" type="line" smooth="yes"/>
      <point x="676" y="131" type="line" smooth="yes"/>
      <point x="676" y="387" type="line" smooth="yes"/>
      <point x="684" y="530" type="line" smooth="yes"/>
      <point x="605" y="530" type="line" smooth="yes"/>
      <point x="594" y="461" type="line" smooth="yes"/>
      <point x="537" y="518" type="line" smooth="yes"/>
      <point x="445" y="542" type="line" smooth="yes"/>
      <point x="299" y="473" type="line" smooth="yes"/>
      <point x="253" y="308" type="line" smooth="yes"/>
      <point x="253" y="282" type="line" smooth="yes"/>
      <point x="299" y="117" type="line" smooth="yes"/>
      <point x="445" y="48" type="line" smooth="yes"/>
      <point x="537" y="71" type="line" smooth="yes"/>
      <point x="594" y="128" type="line" smooth="yes"/>
      <point x="605" y="60" type="line" smooth="yes"/>
      <point x="671" y="60" type="line" smooth="yes"/>
      <point x="864" y="121" type="line" smooth="yes"/>
      <point x="941" y="362" type="line" smooth="yes"/>
      <point x="941" y="392" type="line" smooth="yes"/>
      <point x="811" y="696" type="line" smooth="yes"/>
      <point x="504" y="792" type="line" smooth="yes"/>
      <point x="163" y="666" type="line" smooth="yes"/>
      <point x="31" y="310" type="line" smooth="yes"/>
      <point x="31" y="270" type="line" smooth="yes"/>
      <point x="165" y="-86" type="line" smooth="yes"/>
      <point x="509" y="-212" type="line" smooth="yes"/>
      <point x="693" y="-188" type="line" smooth="yes"/>
      <point x="883" y="-90" type="line" smooth="yes"/>
      <point x="841" y="-34" type="line" smooth="yes"/>
      <point x="684" y="-114" type="line" smooth="yes"/>
      <point x="512" y="-140" type="line" smooth="yes"/>
    </contour>
  </outline>
</glyph>
<glyph name="B" format="1">
  <advance width="602"/>
  <unicode hex="0042"/>
  <outline>
    <contour>
      <point x="288" y="688" type="line" smooth="yes"/>
      <point x="382" y="663" type="line" smooth="yes"/>
      <point x="422" y="574" type="line" smooth="yes"/>
      <point x="422" y="560" type="line" smooth="yes"/>
      <point x="382" y="471" type="line" smooth="yes"/>
      <point x="288" y="446" type="line" smooth="yes"/>
      <point x="171" y="446" type="line" smooth="yes"/>
      <point x="171" y="688" type="line" smooth="yes"/>
    </contour>
    <contour>
      <point x="305" y="354" type="line" smooth="yes"/>
      <point x="401" y="326" type="line" smooth="yes"/>
      <point x="442" y="229" type="line" smooth="yes"/>
      <point x="442" y="217" type="line" smooth="yes"/>
      <point x="401" y="120" type="line" smooth="yes"/>
      <point x="305" y="92" type="line" smooth="yes"/>
      <point x="171" y="92" type="line" smooth="yes"/>
      <point x="171" y="354" type="line" smooth="yes"/>
    </contour>
    <contour>
      <point x="67" y="780" type="line" smooth="yes"/>
      <point x="67" y="0" type="line" smooth="yes"/>
      <point x="300" y="0" type="line" smooth="yes"/>
      <point x="472" y="45" type="line" smooth="yes"/>
      <point x="548" y="213" type="line" smooth="yes"/>
      <point x="548" y="233" type="line" smooth="yes"/>
      <point x="514" y="343" type="line" smooth="yes"/>
      <point x="428" y="402" type="line" smooth="yes"/>
      <point x="500" y="459" type="line" smooth="yes"/>
      <point x="528" y="557" type="line" smooth="yes"/>
      <point x="528" y="577" type="line" smooth="yes"/>
      <point x="455" y="737" type="line" smooth="yes"/>
      <point x="286" y="780" type="line" smooth="yes"/>
    </contour>
  </outline>
</glyph>
<glyph name="D" format="1">
  <advance width="647"/>
  <unicode hex="0044"/>
  <outline>
    <contour>
      <point x="171" y="92" type="line" smooth="yes"/>
      <point x="171" y="688" type="line" smooth="yes"/>
      <point x="279" y="688" type="line" smooth="yes"/>
      <point x="439" y="623" type="line" smooth="yes"/>
      <point x="490" y="410" type="line" smooth="yes"/>
      <point x="490" y="370" type="line" smooth="yes"/>
      <point x="439" y="157" type="line" smooth="yes"/>
      <point x="279" y="92" type="line" smooth="yes"/>
    </contour>
    <contour>
      <point x="597" y="370" type="line" smooth="yes"/>
      <point x="597" y="410" type="line" smooth="yes"/>
      <point x="518" y="696" type="line" smooth="yes"/>
      <point x="286" y="780" type="line" smooth="yes"/>
      <point x="67" y="780" type="line" smooth="yes"/>
      <point x="67" y="0" type="line" smooth="yes"/>
      <point x="286" y="0" type="line" smooth="yes"/>
      <point x="518" y="84" type="line" smooth="yes"/>
    </contour>
  </outline>
</glyph>
<glyph name="J" format="1">
  <advance width="510"/>
  <unicode hex="004A"/>
  <outline>
    <contour>
      <point x="344" y="780" type="line" smooth="yes"/>
      <point x="344" y="254" type="line" smooth="yes"/>
      <point x="319" y="123" type="line" smooth="yes"/>
      <point x="234" y="80" type="line" smooth="yes"/>
      <point x="150" y="123" type="line" smooth="yes"/>
      <point x="125" y="259" type="line" smooth="yes"/>
      <point x="27" y="259" type="line" smooth="yes"/>
      <point x="27" y="240" type="line" smooth="yes"/>
      <point x="73" y="54" type="line" smooth="yes"/>
      <point x="237" y="-12" type="line" smooth="yes"/>
      <point x="400" y="55" type="line" smooth="yes"/>
      <point x="448" y="239" type="line" smooth="yes"/>
      <point x="448" y="780" type="line" smooth="yes"/>
    </contour>
  </outline>
</glyph>
<glyph name="Q" format="1">
  <advance width="657"/>
  <unicode hex="0051"/>
  <outline>
    <contour>
      <point x="366" y="239" type="line" smooth="yes"/>
      <point x="283" y="239" type="line" smooth="yes"/>
      <point x="343" y="80" type="line" smooth="yes"/>
      <point x="325" y="80" type="line" smooth="yes"/>
      <point x="196" y="151" type="line" smooth="yes"/>
      <point x="157" y="370" type="line" smooth="yes"/>
      <point x="157" y="410" type="line" smooth="yes"/>
      <point x="196" y="629" type="line" smooth="yes"/>
      <point x="325" y="700" type="line" smooth="yes"/>
      <point x="332" y="700" type="line" smooth="yes"/>
      <point x="461" y="629" type="line" smooth="yes"/>
      <point x="500" y="410" type="line" smooth="yes"/>
      <point x="500" y="370" type="line" smooth="yes"/>
      <point x="481" y="198" type="line" smooth="yes"/>
      <point x="419" y="103" type="line" smooth="yes"/>
    </contour>
    <contour>
      <point x="329" y="-12" type="line" smooth="yes"/>
      <point x="353" y="-11" type="line" smooth="yes"/>
      <point x="376" y="-9" type="line" smooth="yes"/>
      <point x="411" y="-100" type="line" smooth="yes"/>
      <point x="498" y="-100" type="line" smooth="yes"/>
      <point x="455" y="11" type="line" smooth="yes"/>
      <point x="569" y="132" type="line" smooth="yes"/>
      <point x="607" y="370" type="line" smooth="yes"/>
      <point x="607" y="410" type="line" smooth="yes"/>
      <point x="538" y="702" type="line" smooth="yes"/>
      <point x="329" y="792" type="line" smooth="yes"/>
      <point x="119" y="702" type="line" smooth="yes"/>
      <point x="50" y="410" type="line" smooth="yes"/>
      <point x="50" y="370" type="line" smooth="yes"/>
      <point x="119" y="78" type="line" smooth="yes"/>
    </contour>
  </outline>
</glyph>
<glyph name="U" format="1">
  <advance width="647"/>
  <unicode hex="0055"/>
  <outline>
    <contour>
      <point x="324" y="-12" type="line" smooth="yes"/>
      <point x="523" y="48" type="line" smooth="yes"/>
      <point x="585" y="243" type="line" smooth="yes"/>
      <point x="585" y="780" type="line" smooth="yes"/>
      <point x="481" y="780" type="line" smooth="yes"/>
      <point x="481" y="248" type="line" smooth="yes"/>
      <point x="443" y="118" type="line" smooth="yes"/>
      <point x="324" y="80" type="line" smooth="yes"/>
      <point x="204" y="118" type="line" smooth="yes"/>
      <point x="166" y="248" type="line" smooth="yes"/>
      <point x="166" y="780" type="line" smooth="yes"/>
      <point x="62" y="780" type="line" smooth="yes"/>
      <point x="62" y="243" type="line" smooth="yes"/>
      <point x="124" y="48" type="line" smooth="yes"/>
    </contour>
  </outline>
</glyph>
<glyph name="Y" format="1">
  <advance width="594"/>
  <unicode hex="0059"/>
  <outline>
    <contour>
      <point x="349" y="237" type="line" smooth="yes"/>
      <point x="578" y="780" type="line" smooth="yes"/>
      <point x="465" y="780" type="line" smooth="yes"/>
      <point x="297" y="366" type="line" smooth="yes"/>
      <point x="129" y="780" type="line" smooth="yes"/>
      <point x="16" y="780" type="line" smooth="yes"/>
      <point x="245" y="237" type="line" smooth="yes"/>
      <point x="245" y="0" type="line" smooth="yes"/>
      <point x="349" y="0" type="line" smooth="yes"/>
    </contour>
  </outline>
</glyph>
<glyph name="h" format="1">
  <advance width="545"/>
  <unicode hex="0068"/>
  <outline>
    <contour>
      <point x="162" y="800" type="line" smooth="yes"/>
      <point x="62" y="800" type="line" smooth="yes"/>
      <point x="62" y="0" type="line" smooth="yes"/>
      <point x="162" y="0" type="line" smooth="yes"/>
      <point x="162" y="383" type="line" smooth="yes"/>
      <point x="206" y="429" type="line" smooth="yes"/>
      <point x="290" y="454" type="line" smooth="yes"/>
      <point x="364" y="427" type="line" smooth="yes"/>
      <point x="390" y="351" type="line" smooth="yes"/>
      <point x="390" y="0" type="line" smooth="yes"/>
      <point x="489" y="0" type="line" smooth="yes"/>
      <point x="489" y="367" type="line" smooth="yes"/>
      <point x="450" y="491" type="line" smooth="yes"/>
      <point x="327" y="542" type="line" smooth="yes"/>
      <point x="227" y="522" type="line" smooth="yes"/>
      <point x="162" y="471" type="line" smooth="yes"/>
    </contour>
  </outline>
</glyph>
<glyph name="m" format="1">
  <advance width="825"/>
  <unicode hex="006D"/>
  <outline>
    <contour>
      <point x="768" y="0" type="line" smooth="yes"/>
      <point x="768" y="377" type="line" smooth="yes"/>
      <point x="730" y="497" type="line" smooth="yes"/>
      <point x="617" y="542" type="line" smooth="yes"/>
      <point x="514" y="517" type="line" smooth="yes"/>
      <point x="451" y="456" type="line" smooth="yes"/>
      <point x="401" y="519" type="line" smooth="yes"/>
      <point x="314" y="542" type="line" smooth="yes"/>
      <point x="214" y="518" type="line" smooth="yes"/>
      <point x="152" y="461" type="line" smooth="yes"/>
      <point x="141" y="530" type="line" smooth="yes"/>
      <point x="55" y="530" type="line" smooth="yes"/>
      <point x="62" y="380" type="line" smooth="yes"/>
      <point x="62" y="0" type="line" smooth="yes"/>
      <point x="162" y="0" type="line" smooth="yes"/>
      <point x="162" y="385" type="line" smooth="yes"/>
      <point x="202" y="431" type="line" smooth="yes"/>
      <point x="277" y="454" type="line" smooth="yes"/>
      <point x="341" y="434" type="line" smooth="yes"/>
      <point x="365" y="362" type="line" smooth="yes"/>
      <point x="365" y="0" type="line" smooth="yes"/>
      <point x="465" y="0" type="line" smooth="yes"/>
      <point x="465" y="385" type="line" smooth="yes"/>
      <point x="506" y="431" type="line" smooth="yes"/>
      <point x="580" y="454" type="line" smooth="yes"/>
      <point x="645" y="434" type="line" smooth="yes"/>
      <point x="669" y="362" type="line" smooth="yes"/>
      <point x="669" y="0" type="line" smooth="yes"/>
    </contour>
  </outline>
</glyph>
<glyph name="o" format="1">
  <advance width="548"/>
  <unicode hex="006F"/>
  <outline>
    <contour>
      <point x="274" y="76" type="line" smooth="yes"/>
      <point x="175" y="124" type="line" smooth="yes"/>
      <point x="143" y="251" type="line" smooth="yes"/>
      <point x="143" y="279" type="line" smooth="yes"/>
      <point x="175" y="406" type="line" smooth="yes"/>
      <point x="274" y="454" type="line" smooth="yes"/>
      <point x="373" y="406" type="line" smooth="yes"/>
      <point x="405" y="279" type="line" smooth="yes"/>
      <point x="405" y="251" type="line" smooth="yes"/>
      <point x="373" y="124" type="line" smooth="yes"/>
    </contour>
    <contour>
      <point x="274" y="-12" type="line" smooth="yes"/>
      <point x="450" y="64" type="line" smooth="yes"/>
      <point x="506" y="251" type="line" smooth="yes"/>
      <point x="506" y="279" type="line" smooth="yes"/>
      <point x="450" y="466" type="line" smooth="yes"/>
      <point x="274" y="542" type="line" smooth="yes"/>
      <point x="98" y="466" type="line" smooth="yes"/>
      <point x="42" y="279" type="line" smooth="yes"/>
      <point x="42" y="251" type="line" smooth="yes"/>
      <point x="98" y="64" type="line" smooth="yes"/>
    </contour>
  </outline>
</glyph>
<glyph name="q" format="1">
  <advance width="553"/>
  <unicode hex="0071"/>
  <outline>
    <contour>
      <point x="390" y="147" type="line" smooth="yes"/>
      <point x="347" y="101" type="line" smooth="yes"/>
      <point x="270" y="76" type="line" smooth="yes"/>
      <point x="175" y="123" type="line" smooth="yes"/>
      <point x="145" y="251" type="line" smooth="yes"/>
      <point x="145" y="279" type="line" smooth="yes"/>
      <point x="175" y="407" type="line" smooth="yes"/>
      <point x="270" y="454" type="line" smooth="yes"/>
      <point x="347" y="429" type="line" smooth="yes"/>
      <point x="390" y="383" type="line" smooth="yes"/>
    </contour>
    <contour>
      <point x="390" y="-200" type="line" smooth="yes"/>
      <point x="490" y="-200" type="line" smooth="yes"/>
      <point x="490" y="380" type="line" smooth="yes"/>
      <point x="497" y="530" type="line" smooth="yes"/>
      <point x="410" y="530" type="line" smooth="yes"/>
      <point x="399" y="461" type="line" smooth="yes"/>
      <point x="340" y="518" type="line" smooth="yes"/>
      <point x="245" y="542" type="line" smooth="yes"/>
      <point x="90" y="466" type="line" smooth="yes"/>
      <point x="44" y="279" type="line" smooth="yes"/>
      <point x="44" y="251" type="line" smooth="yes"/>
      <point x="90" y="64" type="line" smooth="yes"/>
      <point x="245" y="-12" type="line" smooth="yes"/>
      <point x="332" y="7" type="line" smooth="yes"/>
      <point x="390" y="54" type="line" smooth="yes"/>
    </contour>
  </outline>
</glyph>
<glyph name="s" format="1">
  <advance width="524"/>
  <unicode hex="0073"/>
  <outline>
    <contour>
      <point x="262" y="68" type="line" smooth="yes"/>
      <point x="173" y="97" type="line" smooth="yes"/>
      <point x="149" y="164" type="line" smooth="yes"/>
      <point x="50" y="164" type="line" smooth="yes"/>
      <point x="50" y="160" type="line" smooth="yes"/>
      <point x="99" y="41" type="line" smooth="yes"/>
      <point x="262" y="-12" type="line" smooth="yes"/>
      <point x="421" y="33" type="line" smooth="yes"/>
      <point x="475" y="152" type="line" smooth="yes"/>
      <point x="475" y="158" type="line" smooth="yes"/>
      <point x="424" y="266" type="line" smooth="yes"/>
      <point x="274" y="305" type="line" smooth="yes"/>
      <point x="179" y="330" type="line" smooth="yes"/>
      <point x="156" y="385" type="line" smooth="yes"/>
      <point x="184" y="442" type="line" smooth="yes"/>
      <point x="262" y="462" type="line" smooth="yes"/>
      <point x="346" y="434" type="line" smooth="yes"/>
      <point x="370" y="358" type="line" smooth="yes"/>
      <point x="469" y="358" type="line" smooth="yes"/>
      <point x="469" y="362" type="line" smooth="yes"/>
      <point x="421" y="492" type="line" smooth="yes"/>
      <point x="262" y="542" type="line" smooth="yes"/>
      <point x="112" y="501" type="line" smooth="yes"/>
      <point x="56" y="383" type="line" smooth="yes"/>
      <point x="56" y="376" type="line" smooth="yes"/>
      <point x="99" y="277" type="line" smooth="yes"/>
      <point x="250" y="232" type="line" smooth="yes"/>
      <point x="345" y="210" type="line" smooth="yes"/>
      <point x="373" y="150" type="line" smooth="yes"/>
      <point x="345" y="91" type="line" smooth="yes"/>
    </contour>
  </outline>
</glyph>
<glyph name="u" format="1">
  <advance width="545"/>
  <unicode hex="0075"/>
  <outline>
    <contour>
      <point x="56" y="530" type="line" smooth="yes"/>
      <point x="56" y="163" type="line" smooth="yes"/>
      <point x="96" y="39" type="line" smooth="yes"/>
      <point x="218" y="-12" type="line" smooth="yes"/>
      <point x="326" y="13" type="line" smooth="yes"/>
      <point x="393" y="73" type="line" smooth="yes"/>
      <point x="404" y="0" type="line" smooth="yes"/>
      <point x="491" y="0" type="line" smooth="yes"/>
      <point x="484" y="150" type="line" smooth="yes"/>
      <point x="484" y="530" type="line" smooth="yes"/>
      <point x="384" y="530" type="line" smooth="yes"/>
      <point x="384" y="147" type="line" smooth="yes"/>
      <point x="339" y="101" type="line" smooth="yes"/>
      <point x="255" y="76" type="line" smooth="yes"/>
      <point x="182" y="103" type="line" smooth="yes"/>
      <point x="156" y="179" type="line" smooth="yes"/>
      <point x="156" y="530" type="line" smooth="yes"/>
    </contour>
  </outline>
</glyph>
<glyph name="braceleft" format="1">
  <advance width="334"/>
  <unicode hex="007B"/>
  <outline>
    <contour>
      <point x="296" y="840" type="line" smooth="yes"/>
      <point x="274" y="840" type="line" smooth="yes"/>
      <point x="156" y="807" type="line" smooth="yes"/>
      <point x="106" y="687" type="line" smooth="yes"/>
      <point x="106" y="491" type="line" smooth="yes"/>
      <point x="86" y="423" type="line" smooth="yes"/>
      <point x="25" y="406" type="line" smooth="yes"/>
      <point x="25" y="314" type="line" smooth="yes"/>
      <point x="86" y="297" type="line" smooth="yes"/>
      <point x="106" y="229" type="line" smooth="yes"/>
      <point x="106" y="33" type="line" smooth="yes"/>
      <point x="156" y="-87" type="line" smooth="yes"/>
      <point x="274" y="-120" type="line" smooth="yes"/>
      <point x="296" y="-120" type="line" smooth="yes"/>
      <point x="296" y="-29" type="line" smooth="yes"/>
      <point x="231" y="-9" type="line" smooth="yes"/>
      <point x="208" y="68" type="line" smooth="yes"/>
      <point x="208" y="253" type="line" smooth="yes"/>
      <point x="193" y="320" type="line" smooth="yes"/>
      <point x="152" y="360" type="line" smooth="yes"/>
      <point x="193" y="400" type="line" smooth="yes"/>
      <point x="208" y="467" type="line" smooth="yes"/>
      <point x="208" y="652" type="line" smooth="yes"/>
      <point x="231" y="729" type="line" smooth="yes"/>
      <point x="296" y="749" type="line" smooth="yes"/>
    </contour>
  </outline>
</glyph>
<glyph name="braceright" format="1">
  <advance width="334"/>
  <unicode hex="007D"/>
  <outline>
    <contour>
      <point x="39" y="-120" type="line" smooth="yes"/>
      <point x="60" y="-120" type="line" smooth="yes"/>
      <point x="178" y="-87" type="line" smooth="yes"/>
      <point x="228" y="33" type="line" smooth="yes"/>
      <point x="228" y="229" type="line" smooth="yes"/>
      <point x="248" y="297" type="line" smooth="yes"/>
      <point x="310" y="314" type="line" smooth="yes"/>
      <point x="310" y="406" type="line" smooth="yes"/>
      <point x="248" y="423" type="line" smooth="yes"/>
      <point x="228" y="491" type="line" smooth="yes"/>
      <point x="228" y="687" type="line" smooth="yes"/>
      <point x="178" y="807" type="line" smooth="yes"/>
      <point x="60" y="840" type="line" smooth="yes"/>
      <point x="39" y="840" type="line" smooth="yes"/>
      <point x="39" y="749" type="line" smooth="yes"/>
      <point x="104" y="729" type="line" smooth="yes"/>
      <point x="126" y="652" type="line" smooth="yes"/>
      <point x="126" y="467" type="line" smooth="yes"/>
      <point x="141" y="400" type="line" smooth="yes"/>
      <point x="182" y="360" type="line" smooth="yes"/>
      <point x="141" y="320" type="line" smooth="yes"/>
      <point x="126" y="253" type="line" smooth="yes"/>
      <point x="126" y="68" type="line" smooth="yes"/>
      <point x="104" y="-9" type="line" smooth="yes"/>
      <point x="39" y="-29" type="line" smooth="yes"/>
    </contour>
  </outline>
</glyph>
<glyph name="asciitilde" format="1">
  <advance width="600"/>
  <unicode hex="007E"/>
  <outline>
    <contour>
      <point x="179" y="462" type="line" smooth="yes"/>
      <point x="90" y="435" type="line" smooth="yes"/>
      <point x="34" y="380" type="line" smooth="yes"/>
      <point x="86" y="327" type="line" smooth="yes"/>
      <point x="124" y="362" type="line" smooth="yes"/>
      <point x="181" y="381" type="line" smooth="yes"/>
      <point x="292" y="347" type="line" smooth="yes"/>
      <point x="421" y="312" type="line" smooth="yes"/>
      <point x="510" y="338" type="line" smooth="yes"/>
      <point x="566" y="394" type="line" smooth="yes"/>
      <point x="514" y="446" type="line" smooth="yes"/>
      <point x="476" y="412" type="line" smooth="yes"/>
      <point x="419" y="393" type="line" smooth="yes"/>
      <point x="308" y="428" type="line" smooth="yes"/>
    </contour>
  </outline>
</glyph>
<glyph name="cent" format="1">
  <advance width="600"/>
  <unicode hex="00A2"/>
  <outline>
    <contour>
      <point x="158" y="375" type="line" smooth="yes"/>
      <point x="158" y="406" type="line" smooth="yes"/>
      <point x="195" y="579" type="line" smooth="yes"/>
      <point x="311" y="637" type="line" smooth="yes"/>
      <point x="313" y="637" type="line" smooth="yes"/>
      <point x="206" y="188" type="line" smooth="yes"/>
      <point x="170" y="263" type="line" smooth="yes"/>
    </contour>
    <contour>
      <point x="444" y="840" type="line" smooth="yes"/>
      <point x="362" y="840" type="line" smooth="yes"/>
      <point x="335" y="728" type="line" smooth="yes"/>
      <point x="323" y="729" type="line" smooth="yes"/>
      <point x="311" y="729" type="line" smooth="yes"/>
      <point x="117" y="646" type="line" smooth="yes"/>
      <point x="54" y="406" type="line" smooth="yes"/>
      <point x="54" y="375" type="line" smooth="yes"/>
      <point x="85" y="190" type="line" smooth="yes"/>
      <point x="181" y="82" type="line" smooth="yes"/>
      <point x="147" y="-60" type="line" smooth="yes"/>
      <point x="229" y="-60" type="line" smooth="yes"/>
      <point x="257" y="57" type="line" smooth="yes"/>
      <point x="283" y="54" type="line" smooth="yes"/>
      <point x="311" y="53" type="line" smooth="yes"/>
      <point x="489" y="112" type="line" smooth="yes"/>
      <point x="546" y="272" type="line" smooth="yes"/>
      <point x="546" y="287" type="line" smooth="yes"/>
      <point x="445" y="287" type="line" smooth="yes"/>
      <point x="415" y="184" type="line" smooth="yes"/>
      <point x="315" y="145" type="line" smooth="yes"/>
      <point x="311" y="145" type="line" smooth="yes"/>
      <point x="294" y="146" type="line" smooth="yes"/>
      <point x="278" y="148" type="line" smooth="yes"/>
      <point x="391" y="618" type="line" smooth="yes"/>
      <point x="432" y="563" type="line" smooth="yes"/>
      <point x="445" y="473" type="line" smooth="yes"/>
      <point x="546" y="473" type="line" smooth="yes"/>
      <point x="546" y="499" type="line" smooth="yes"/>
      <point x="514" y="634" type="line" smooth="yes"/>
      <point x="414" y="713" type="line" smooth="yes"/>
    </contour>
  </outline>
</glyph>
<glyph name="sterling" format="1">
  <advance width="600"/>
  <unicode hex="00A3"/>
  <outline>
    <contour>
      <point x="326" y="701" type="line" smooth="yes"/>
      <point x="420" y="647" type="line" smooth="yes"/>
      <point x="449" y="500" type="line" smooth="yes"/>
      <point x="551" y="500" type="line" smooth="yes"/>
      <point x="551" y="514" type="line" smooth="yes"/>
      <point x="501" y="716" type="line" smooth="yes"/>
      <point x="326" y="792" type="line" smooth="yes"/>
      <point x="160" y="730" type="line" smooth="yes"/>
      <point x="108" y="579" type="line" smooth="yes"/>
      <point x="114" y="498" type="line" smooth="yes"/>
      <point x="128" y="423" type="line" smooth="yes"/>
      <point x="51" y="423" type="line" smooth="yes"/>
      <point x="51" y="332" type="line" smooth="yes"/>
      <point x="154" y="332" type="line" smooth="yes"/>
      <point x="189" y="217" type="line" smooth="yes"/>
      <point x="212" y="92" type="line" smooth="yes"/>
      <point x="51" y="92" type="line" smooth="yes"/>
      <point x="51" y="0" type="line" smooth="yes"/>
      <point x="549" y="0" type="line" smooth="yes"/>
      <point x="549" y="92" type="line" smooth="yes"/>
      <point x="302" y="92" type="line" smooth="yes"/>
      <point x="286" y="218" type="line" smooth="yes"/>
      <point x="258" y="332" type="line" smooth="yes"/>
      <point x="426" y="332" type="line" smooth="yes"/>
      <point x="426" y="423" type="line" smooth="yes"/>
      <point x="234" y="423" type="line" smooth="yes"/>
      <point x="218" y="499" type="line" smooth="yes"/>
      <point x="211" y="570" type="line" smooth="yes"/>
      <point x="239" y="665" type="line" smooth="yes"/>
    </contour>
  </outline>
</glyph>
<glyph name="section" format="1">
  <advance width="526"/>
  <unicode hex="00A7"/>
  <outline>
    <contour>
      <point x="385" y="390" type="line" smooth="yes"/>
      <point x="356" y="327" type="line" smooth="yes"/>
      <point x="269" y="303" type="line" smooth="yes"/>
      <point x="253" y="303" type="line" smooth="yes"/>
      <point x="167" y="327" type="line" smooth="yes"/>
      <point x="140" y="390" type="line" smooth="yes"/>
      <point x="170" y="453" type="line" smooth="yes"/>
      <point x="257" y="477" type="line" smooth="yes"/>
      <point x="273" y="477" type="line" smooth="yes"/>
      <point x="359" y="453" type="line" smooth="yes"/>
    </contour>
    <contour>
      <point x="488" y="391" type="line" smooth="yes"/>
      <point x="488" y="397" type="line" smooth="yes"/>
      <point x="437" y="510" type="line" smooth="yes"/>
      <point x="287" y="551" type="line" smooth="yes"/>
      <point x="192" y="578" type="line" smooth="yes"/>
      <point x="169" y="634" type="line" smooth="yes"/>
      <point x="197" y="691" type="line" smooth="yes"/>
      <point x="275" y="711" type="line" smooth="yes"/>
      <point x="359" y="683" type="line" smooth="yes"/>
      <point x="382" y="608" type="line" smooth="yes"/>
      <point x="482" y="608" type="line" smooth="yes"/>
      <point x="482" y="612" type="line" smooth="yes"/>
      <point x="434" y="743" type="line" smooth="yes"/>
      <point x="275" y="792" type="line" smooth="yes"/>
      <point x="125" y="751" type="line" smooth="yes"/>
      <point x="68" y="633" type="line" smooth="yes"/>
      <point x="68" y="626" type="line" smooth="yes"/>
      <point x="80" y="563" type="line" smooth="yes"/>
      <point x="119" y="517" type="line" smooth="yes"/>
      <point x="59" y="466" type="line" smooth="yes"/>
      <point x="38" y="389" type="line" smooth="yes"/>
      <point x="38" y="383" type="line" smooth="yes"/>
      <point x="89" y="270" type="line" smooth="yes"/>
      <point x="239" y="229" type="line" smooth="yes"/>
      <point x="333" y="202" type="line" smooth="yes"/>
      <point x="356" y="146" type="line" smooth="yes"/>
      <point x="328" y="89" type="line" smooth="yes"/>
      <point x="251" y="69" type="line" smooth="yes"/>
      <point x="167" y="97" type="line" smooth="yes"/>
      <point x="143" y="172" type="line" smooth="yes"/>
      <point x="44" y="172" type="line" smooth="yes"/>
      <point x="44" y="168" type="line" smooth="yes"/>
      <point x="92" y="38" type="line" smooth="yes"/>
      <point x="251" y="-12" type="line" smooth="yes"/>
      <point x="401" y="29" type="line" smooth="yes"/>
      <point x="457" y="147" type="line" smooth="yes"/>
      <point x="457" y="154" type="line" smooth="yes"/>
      <point x="445" y="216" type="line" smooth="yes"/>
      <point x="407" y="263" type="line" smooth="yes"/>
      <point x="467" y="314" type="line" smooth="yes"/>
    </contour>
  </outline>
</glyph>
<glyph name="dieresis" format="1">
  <advance width="500"/>
  <unicode hex="00A8"/>
  <outline>
    <contour>
      <point x="400" y="754" type="line" smooth="yes"/>
      <point x="284" y="754" type="line" smooth="yes"/>
      <point x="284" y="639" type="line" smooth="yes"/>
      <point x="400" y="639" type="line" smooth="yes"/>
    </contour>
    <contour>
      <point x="216" y="754" type="line" smooth="yes"/>
      <point x="100" y="754" type="line" smooth="yes"/>
      <point x="100" y="639" type="line" smooth="yes"/>
      <point x="216" y="639" type="line" smooth="yes"/>
    </contour>
  </outline>
</glyph>
<glyph name="ordfeminine" format="1">
  <advance width="403"/>
  <unicode hex="00AA"/>
  <outline>
    <contour>
      <point x="183" y="451" type="line" smooth="yes"/>
      <point x="137" y="467" type="line" smooth="yes"/>
      <point x="123" y="504" type="line" smooth="yes"/>
      <point x="123" y="509" type="line" smooth="yes"/>
      <point x="140" y="550" type="line" smooth="yes"/>
      <point x="187" y="570" type="line" smooth="yes"/>
      <point x="275" y="585" type="line" smooth="yes"/>
      <point x="275" y="495" type="line" smooth="yes"/>
      <point x="243" y="466" type="line" smooth="yes"/>
    </contour>
    <contour>
      <point x="368" y="202" type="line" smooth="yes"/>
      <point x="368" y="279" type="line" smooth="yes"/>
      <point x="45" y="279" type="line" smooth="yes"/>
      <point x="45" y="202" type="line" smooth="yes"/>
    </contour>
    <contour>
      <point x="292" y="388" type="line" smooth="yes"/>
      <point x="370" y="388" type="line" smooth="yes"/>
      <point x="364" y="499" type="line" smooth="yes"/>
      <point x="364" y="643" type="line" smooth="yes"/>
      <point x="331" y="752" type="line" smooth="yes"/>
      <point x="207" y="792" type="line" smooth="yes"/>
      <point x="82" y="750" type="line" smooth="yes"/>
      <point x="50" y="659" type="line" smooth="yes"/>
      <point x="50" y="652" type="line" smooth="yes"/>
      <point x="134" y="652" type="line" smooth="yes"/>
      <point x="148" y="702" type="line" smooth="yes"/>
      <point x="205" y="723" type="line" smooth="yes"/>
      <point x="260" y="703" type="line" smooth="yes"/>
      <point x="275" y="643" type="line" smooth="yes"/>
      <point x="275" y="639" type="line" smooth="yes"/>
      <point x="172" y="624" type="line" smooth="yes"/>
      <point x="75" y="590" type="line" smooth="yes"/>
      <point x="35" y="500" type="line" smooth="yes"/>
      <point x="35" y="492" type="line" smooth="yes"/>
      <point x="64" y="411" type="line" smooth="yes"/>
      <point x="153" y="378" type="line" smooth="yes"/>
      <point x="232" y="394" type="line" smooth="yes"/>
      <point x="284" y="436" type="line" smooth="yes"/>
    </contour>
  </outline>
</glyph>
<glyph name="logicalnot" format="1">
  <advance width="600"/>
  <unicode hex="00AC"/>
  <outline>
    <contour>
      <point x="46" y="471" type="line" smooth="yes"/>
      <point x="461" y="471" type="line" smooth="yes"/>
      <point x="461" y="206" type="line" smooth="yes"/>
      <point x="554" y="206" type="line" smooth="yes"/>
      <point x="554" y="564" type="line" smooth="yes"/>
      <point x="46" y="564" type="line" smooth="yes"/>
    </contour>
  </outline>
</glyph>
<glyph name="registered" format="1">
  <advance width="330"/>
  <unicode hex="00AE"/>
  <outline>
    <contour>
      <point x="191" y="696" type="line" smooth="yes"/>
      <point x="191" y="693" type="line" smooth="yes"/>
      <point x="185" y="677" type="line" smooth="yes"/>
      <point x="167" y="672" type="line" smooth="yes"/>
      <point x="139" y="672" type="line" smooth="yes"/>
      <point x="139" y="717" type="line" smooth="yes"/>
      <point x="167" y="717" type="line" smooth="yes"/>
      <point x="185" y="712" type="line" smooth="yes"/>
    </contour>
    <contour>
      <point x="234" y="691" type="line" smooth="yes"/>
      <point x="234" y="698" type="line" smooth="yes"/>
      <point x="217" y="739" type="line" smooth="yes"/>
      <point x="176" y="751" type="line" smooth="yes"/>
      <point x="96" y="751" type="line" smooth="yes"/>
      <point x="96" y="579" type="line" smooth="yes"/>
      <point x="139" y="579" type="line" smooth="yes"/>
      <point x="139" y="638" type="line" smooth="yes"/>
      <point x="165" y="638" type="line" smooth="yes"/>
      <point x="190" y="579" type="line" smooth="yes"/>
      <point x="234" y="579" type="line" smooth="yes"/>
      <point x="204" y="643" type="line" smooth="yes"/>
      <point x="226" y="660" type="line" smooth="yes"/>
    </contour>
    <contour>
      <point x="42" y="665" type="line" smooth="yes"/>
      <point x="78" y="752" type="line" smooth="yes"/>
      <point x="165" y="788" type="line" smooth="yes"/>
      <point x="252" y="752" type="line" smooth="yes"/>
      <point x="288" y="665" type="line" smooth="yes"/>
      <point x="252" y="578" type="line" smooth="yes"/>
      <point x="165" y="542" type="line" smooth="yes"/>
      <point x="78" y="578" type="line" smooth="yes"/>
    </contour>
    <contour>
      <point x="18" y="665" type="line" smooth="yes"/>
      <point x="61" y="561" type="line" smooth="yes"/>
      <point x="165" y="518" type="line" smooth="yes"/>
      <point x="269" y="561" type="line" smooth="yes"/>
      <point x="312" y="665" type="line" smooth="yes"/>
      <point x="269" y="769" type="line" smooth="yes"/>
      <point x="165" y="812" type="line" smooth="yes"/>
      <point x="61" y="769" type="line" smooth="yes"/>
    </contour>
  </outline>
</glyph>
<glyph name="macron" format="1">
  <advance width="500"/>
  <unicode hex="00AF"/>
  <outline>
    <contour>
      <point x="122" y="648" type="line" smooth="yes"/>
      <point x="378" y="648" type="line" smooth="yes"/>
      <point x="378" y="739" type="line" smooth="yes"/>
      <point x="122" y="739" type="line" smooth="yes"/>
    </contour>
  </outline>
</glyph>
<glyph name="degree" format="1">
  <advance width="400"/>
  <unicode hex="00B0"/>
  <outline>
    <contour>
      <point x="356" y="637" type="line" smooth="yes"/>
      <point x="311" y="751" type="line" smooth="yes"/>
      <point x="200" y="792" type="line" smooth="yes"/>
      <point x="89" y="751" type="line" smooth="yes"/>
      <point x="44" y="637" type="line" smooth="yes"/>
      <point x="44" y="632" type="line" smooth="yes"/>
      <point x="89" y="519" type="line" smooth="yes"/>
      <point x="200" y="478" type="line" smooth="yes"/>
      <point x="311" y="519" type="line" smooth="yes"/>
      <point x="356" y="632" type="line" smooth="yes"/>
    </contour>
    <contour>
      <point x="288" y="631" type="line" smooth="yes"/>
      <point x="263" y="569" type="line" smooth="yes"/>
      <point x="203" y="546" type="line" smooth="yes"/>
      <point x="197" y="546" type="line" smooth="yes"/>
      <point x="137" y="569" type="line" smooth="yes"/>
      <point x="112" y="631" type="line" smooth="yes"/>
      <point x="112" y="638" type="line" smooth="yes"/>
      <point x="137" y="700" type="line" smooth="yes"/>
      <point x="197" y="723" type="line" smooth="yes"/>
      <point x="203" y="723" type="line" smooth="yes"/>
      <point x="263" y="700" type="line" smooth="yes"/>
      <point x="288" y="638" type="line" smooth="yes"/>
    </contour>
  </outline>
</glyph>
<glyph name="threesuperior" format="1">
  <advance width="300"/>
  <unicode hex="00B3"/>
  <outline>
    <contour>
      <point x="102" y="515" type="line" smooth="yes"/>
      <point x="18" y="515" type="line" smooth="yes"/>
      <point x="18" y="508" type="line" smooth="yes"/>
      <point x="51" y="416" type="line" smooth="yes"/>
      <point x="150" y="383" type="line" smooth="yes"/>
      <point x="251" y="421" type="line" smooth="yes"/>
      <point x="281" y="495" type="line" smooth="yes"/>
      <point x="281" y="504" type="line" smooth="yes"/>
      <point x="267" y="556" type="line" smooth="yes"/>
      <point x="234" y="589" type="line" smooth="yes"/>
      <point x="266" y="621" type="line" smooth="yes"/>
      <point x="279" y="673" type="line" smooth="yes"/>
      <point x="279" y="682" type="line" smooth="yes"/>
      <point x="251" y="751" type="line" smooth="yes"/>
      <point x="150" y="786" type="line" smooth="yes"/>
      <point x="53" y="755" type="line" smooth="yes"/>
      <point x="21" y="660" type="line" smooth="yes"/>
      <point x="21" y="650" type="line" smooth="yes"/>
      <point x="105" y="650" type="line" smooth="yes"/>
      <point x="117" y="699" type="line" smooth="yes"/>
      <point x="147" y="713" type="line" smooth="yes"/>
      <point x="152" y="713" type="line" smooth="yes"/>
      <point x="183" y="702" type="line" smooth="yes"/>
      <point x="195" y="673" type="line" smooth="yes"/>
      <point x="195" y="667" type="line" smooth="yes"/>
      <point x="184" y="636" type="line" smooth="yes"/>
      <point x="152" y="626" type="line" smooth="yes"/>
      <point x="100" y="626" type="line" smooth="yes"/>
      <point x="100" y="552" type="line" smooth="yes"/>
      <point x="153" y="552" type="line" smooth="yes"/>
      <point x="186" y="541" type="line" smooth="yes"/>
      <point x="198" y="509" type="line" smooth="yes"/>
      <point x="198" y="504" type="line" smooth="yes"/>
      <point x="184" y="468" type="line" smooth="yes"/>
      <point x="152" y="456" type="line" smooth="yes"/>
      <point x="147" y="456" type="line" smooth="yes"/>
      <point x="115" y="469" type="line" smooth="yes"/>
    </contour>
  </outline>
</glyph>
<glyph name="paragraph" format="1">
  <advance width="526"/>
  <unicode hex="00B6"/>
  <outline>
    <contour>
      <point x="137" y="535" type="line" smooth="yes"/>
      <point x="137" y="548" type="line" smooth="yes"/>
      <point x="173" y="652" type="line" smooth="yes"/>
      <point x="250" y="686" type="line" smooth="yes"/>
      <point x="250" y="396" type="line" smooth="yes"/>
      <point x="173" y="431" type="line" smooth="yes"/>
    </contour>
    <contour>
      <point x="360" y="0" type="line" smooth="yes"/>
      <point x="464" y="0" type="line" smooth="yes"/>
      <point x="464" y="780" type="line" smooth="yes"/>
      <point x="282" y="780" type="line" smooth="yes"/>
      <point x="113" y="737" type="line" smooth="yes"/>
      <point x="31" y="552" type="line" smooth="yes"/>
      <point x="31" y="532" type="line" smooth="yes"/>
      <point x="100" y="356" type="line" smooth="yes"/>
      <point x="250" y="305" type="line" smooth="yes"/>
      <point x="250" y="0" type="line" smooth="yes"/>
      <point x="314" y="0" type="line" smooth="yes"/>
      <point x="314" y="688" type="line" smooth="yes"/>
      <point x="360" y="688" type="line" smooth="yes"/>
    </contour>
  </outline>
</glyph>
<glyph name="periodcentered" format="1">
  <advance width="234"/>
  <unicode hex="00B7"/>
  <outline>
    <contour>
      <point x="174" y="407" type="line" smooth="yes"/>
      <point x="60" y="407" type="line" smooth="yes"/>
      <point x="60" y="293" type="line" smooth="yes"/>
      <point x="174" y="293" type="line" smooth="yes"/>
    </contour>
  </outline>
</glyph>
<glyph name="cedilla" format="1">
  <advance width="602"/>
  <unicode hex="00B8"/>
  <outline>
    <contour>
      <point x="156" y="-191" type="line" smooth="yes"/>
      <point x="196" y="-207" type="line" smooth="yes"/>
      <point x="253" y="-213" type="line" smooth="yes"/>
      <point x="333" y="-193" type="line" smooth="yes"/>
      <point x="362" y="-131" type="line" smooth="yes"/>
      <point x="331" y="-70" type="line" smooth="yes"/>
      <point x="260" y="-50" type="line" smooth="yes"/>
      <point x="279" y="0" type="line" smooth="yes"/>
      <point x="221" y="0" type="line" smooth="yes"/>
      <point x="192" y="-77" type="line" smooth="yes"/>
      <point x="209" y="-102" type="line" smooth="yes"/>
      <point x="219" y="-101" type="line" smooth="yes"/>
      <point x="241" y="-99" type="line" smooth="yes"/>
      <point x="283" y="-105" type="line" smooth="yes"/>
      <point x="298" y="-126" type="line" smooth="yes"/>
      <point x="285" y="-148" type="line" smooth="yes"/>
      <point x="244" y="-155" type="line" smooth="yes"/>
      <point x="205" y="-150" type="line" smooth="yes"/>
      <point x="174" y="-139" type="line" smooth="yes"/>
    </contour>
  </outline>
</glyph>
<glyph name="onesuperior" format="1">
  <advance width="300"/>
  <unicode hex="00B9"/>
  <outline>
    <contour>
      <point x="286" y="390" type="line" smooth="yes"/>
      <point x="286" y="463" type="line" smooth="yes"/>
      <point x="202" y="463" type="line" smooth="yes"/>
      <point x="202" y="780" type="line" smooth="yes"/>
      <point x="139" y="780" type="line" smooth="yes"/>
      <point x="17" y="698" type="line" smooth="yes"/>
      <point x="59" y="637" type="line" smooth="yes"/>
      <point x="118" y="677" type="line" smooth="yes"/>
      <point x="118" y="463" type="line" smooth="yes"/>
      <point x="33" y="463" type="line" smooth="yes"/>
      <point x="33" y="390" type="line" smooth="yes"/>
    </contour>
  </outline>
</glyph>
<glyph name="ordmasculine" format="1">
  <advance width="427"/>
  <unicode hex="00BA"/>
  <outline>
    <contour>
      <point x="45" y="202" type="line" smooth="yes"/>
      <point x="382" y="202" type="line" smooth="yes"/>
      <point x="382" y="279" type="line" smooth="yes"/>
      <point x="45" y="279" type="line" smooth="yes"/>
    </contour>
    <contour>
      <point x="126" y="574" type="line" smooth="yes"/>
      <point x="126" y="597" type="line" smooth="yes"/>
      <point x="147" y="683" type="line" smooth="yes"/>
      <point x="213" y="715" type="line" smooth="yes"/>
      <point x="280" y="683" type="line" smooth="yes"/>
      <point x="301" y="597" type="line" smooth="yes"/>
      <point x="301" y="574" type="line" smooth="yes"/>
      <point x="280" y="488" type="line" smooth="yes"/>
      <point x="213" y="456" type="line" smooth="yes"/>
      <point x="147" y="488" type="line" smooth="yes"/>
    </contour>
    <contour>
      <point x="390" y="574" type="line" smooth="yes"/>
      <point x="390" y="597" type="line" smooth="yes"/>
      <point x="347" y="737" type="line" smooth="yes"/>
      <point x="213" y="792" type="line" smooth="yes"/>
      <point x="79" y="737" type="line" smooth="yes"/>
      <point x="37" y="597" type="line" smooth="yes"/>
      <point x="37" y="574" type="line" smooth="yes"/>
      <point x="79" y="434" type="line" smooth="yes"/>
      <point x="213" y="378" type="line" smooth="yes"/>
      <point x="347" y="434" type="line" smooth="yes"/>
    </contour>
  </outline>
</glyph>
<glyph name="threequarters" format="1">
  <advance width="800"/>
  <unicode hex="00BE"/>
  <outline>
    <contour>
      <point x="663" y="256" type="line" smooth="yes"/>
      <point x="662" y="230" type="line" smooth="yes"/>
      <point x="662" y="157" type="line" smooth="yes"/>
      <point x="624" y="157" type="line" smooth="yes"/>
      <point x="600" y="155" type="line" smooth="yes"/>
    </contour>
    <contour>
      <point x="746" y="0" type="line" smooth="yes"/>
      <point x="746" y="83" type="line" smooth="yes"/>
      <point x="786" y="83" type="line" smooth="yes"/>
      <point x="786" y="157" type="line" smooth="yes"/>
      <point x="746" y="157" type="line" smooth="yes"/>
      <point x="746" y="390" type="line" smooth="yes"/>
      <point x="667" y="390" type="line" smooth="yes"/>
      <point x="513" y="142" type="line" smooth="yes"/>
      <point x="513" y="83" type="line" smooth="yes"/>
      <point x="662" y="83" type="line" smooth="yes"/>
      <point x="662" y="0" type="line" smooth="yes"/>
    </contour>
    <contour>
      <point x="102" y="515" type="line" smooth="yes"/>
      <point x="18" y="515" type="line" smooth="yes"/>
      <point x="18" y="508" type="line" smooth="yes"/>
      <point x="51" y="416" type="line" smooth="yes"/>
      <point x="150" y="383" type="line" smooth="yes"/>
      <point x="251" y="421" type="line" smooth="yes"/>
      <point x="281" y="495" type="line" smooth="yes"/>
      <point x="281" y="504" type="line" smooth="yes"/>
      <point x="267" y="556" type="line" smooth="yes"/>
      <point x="234" y="589" type="line" smooth="yes"/>
      <point x="266" y="621" type="line" smooth="yes"/>
      <point x="279" y="673" type="line" smooth="yes"/>
      <point x="279" y="682" type="line" smooth="yes"/>
      <point x="251" y="751" type="line" smooth="yes"/>
      <point x="150" y="786" type="line" smooth="yes"/>
      <point x="53" y="755" type="line" smooth="yes"/>
      <point x="21" y="660" type="line" smooth="yes"/>
      <point x="21" y="650" type="line" smooth="yes"/>
      <point x="105" y="650" type="line" smooth="yes"/>
      <point x="117" y="699" type="line" smooth="yes"/>
      <point x="147" y="713" type="line" smooth="yes"/>
      <point x="152" y="713" type="line" smooth="yes"/>
      <point x="183" y="702" type="line" smooth="yes"/>
      <point x="195" y="673" type="line" smooth="yes"/>
      <point x="195" y="667" type="line" smooth="yes"/>
      <point x="184" y="636" type="line" smooth="yes"/>
      <point x="152" y="626" type="line" smooth="yes"/>
      <point x="100" y="626" type="line" smooth="yes"/>
      <point x="100" y="552" type="line" smooth="yes"/>
      <point x="153" y="552" type="line" smooth="yes"/>
      <point x="186" y="541" type="line" smooth="yes"/>
      <point x="198" y="509" type="line" smooth="yes"/>
      <point x="198" y="504" type="line" smooth="yes"/>
      <point x="184" y="468" type="line" smooth="yes"/>
      <point x="152" y="456" type="line" smooth="yes"/>
      <point x="147" y="456" type="line" smooth="yes"/>
      <point x="115" y="469" type="line" smooth="yes"/>
    </contour>
    <contour>
      <point x="164" y="0" type="line" smooth="yes"/>
      <point x="740" y="780" type="line" smooth="yes"/>
      <point x="636" y="780" type="line" smooth="yes"/>
      <point x="60" y="0" type="line" smooth="yes"/>
    </contour>
  </outline>
</glyph>
<glyph name="questiondown" format="1">
  <advance width="470"/>
  <unicode hex="00BF"/>
  <outline>
    <contour>
      <point x="180" y="416" type="line" smooth="yes"/>
      <point x="294" y="416" type="line" smooth="yes"/>
      <point x="294" y="530" type="line" smooth="yes"/>
      <point x="180" y="530" type="line" smooth="yes"/>
    </contour>
    <contour>
      <point x="231" y="-121" type="line" smooth="yes"/>
      <point x="152" y="-93" type="line" smooth="yes"/>
      <point x="128" y="-17" type="line" smooth="yes"/>
      <point x="203" y="136" type="line" smooth="yes"/>
      <point x="272" y="327" type="line" smooth="yes"/>
      <point x="202" y="327" type="line" smooth="yes"/>
      <point x="110" y="161" type="line" smooth="yes"/>
      <point x="25" y="-26" type="line" smooth="yes"/>
      <point x="73" y="-157" type="line" smooth="yes"/>
      <point x="231" y="-212" type="line" smooth="yes"/>
      <point x="400" y="-141" type="line" smooth="yes"/>
      <point x="445" y="46" type="line" smooth="yes"/>
      <point x="445" y="60" type="line" smooth="yes"/>
      <point x="343" y="60" type="line" smooth="yes"/>
      <point x="320" y="-74" type="line" smooth="yes"/>
    </contour>
  </outline>
</glyph>
<glyph name="Agrave" format="1">
  <advance width="621"/>
  <unicode hex="00C0"/>
  <outline>
    <contour>
      <point x="197" y="950" type="line" smooth="yes"/>
      <point x="260" y="840" type="line" smooth="yes"/>
      <point x="362" y="840" type="line" smooth="yes"/>
      <point x="304" y="950" type="line" smooth="yes"/>
    </contour>
    <contour>
      <point x="311" y="669" type="line" smooth="yes"/>
      <point x="413" y="280" type="line" smooth="yes"/>
      <point x="209" y="280" type="line" smooth="yes"/>
    </contour>
    <contour>
      <point x="238" y="786" type="line" smooth="yes"/>
      <point x="23" y="0" type="line" smooth="yes"/>
      <point x="136" y="0" type="line" smooth="yes"/>
      <point x="185" y="188" type="line" smooth="yes"/>
      <point x="437" y="188" type="line" smooth="yes"/>
      <point x="486" y="0" type="line" smooth="yes"/>
      <point x="598" y="0" type="line" smooth="yes"/>
      <point x="383" y="786" type="line" smooth="yes"/>
    </contour>
  </outline>
</glyph>
<glyph name="Acircumflex" format="1">
  <advance width="621"/>
  <unicode hex="00C2"/>
  <outline>
    <contour>
      <point x="245" y="840" type="line" smooth="yes"/>
      <point x="311" y="897" type="line" smooth="yes"/>
      <point x="377" y="840" type="line" smooth="yes"/>
      <point x="473" y="840" type="line" smooth="yes"/>
      <point x="360" y="950" type="line" smooth="yes"/>
      <point x="262" y="950" type="line" smooth="yes"/>
      <point x="149" y="840" type="line" smooth="yes"/>
    </contour>
    <contour>
      <point x="311" y="669" type="line" smooth="yes"/>
      <point x="413" y="280" type="line" smooth="yes"/>
      <point x="209" y="280" type="line" smooth="yes"/>
    </contour>
    <contour>
      <point x="238" y="786" type="line" smooth="yes"/>
      <point x="23" y="0" type="line" smooth="yes"/>
      <point x="136" y="0" type="line" smooth="yes"/>
      <point x="185" y="188" type="line" smooth="yes"/>
      <point x="437" y="188" type="line" smooth="yes"/>
      <point x="486" y="0" type="line" smooth="yes"/>
      <point x="598" y="0" type="line" smooth="yes"/>
      <point x="383" y="786" type="line" smooth="yes"/>
    </contour>
  </outline>
</glyph>
<glyph name="Atilde" format="1">
  <advance width="621"/>
  <unicode hex="00C3"/>
  <outline>
    <contour>
      <point x="412" y="940" type="line" smooth="yes"/>
      <point x="402" y="909" type="line" smooth="yes"/>
      <point x="377" y="901" type="line" smooth="yes"/>
      <point x="315" y="927" type="line" smooth="yes"/>
      <point x="235" y="952" type="line" smooth="yes"/>
      <point x="173" y="929" type="line" smooth="yes"/>
      <point x="148" y="850" type="line" smooth="yes"/>
      <point x="210" y="850" type="line" smooth="yes"/>
      <point x="220" y="881" type="line" smooth="yes"/>
      <point x="245" y="889" type="line" smooth="yes"/>
      <point x="307" y="864" type="line" smooth="yes"/>
      <point x="387" y="838" type="line" smooth="yes"/>
      <point x="449" y="861" type="line" smooth="yes"/>
      <point x="474" y="940" type="line" smooth="yes"/>
    </contour>
    <contour>
      <point x="311" y="669" type="line" smooth="yes"/>
      <point x="413" y="280" type="line" smooth="yes"/>
      <point x="209" y="280" type="line" smooth="yes"/>
    </contour>
    <contour>
      <point x="238" y="786" type="line" smooth="yes"/>
      <point x="23" y="0" type="line" smooth="yes"/>
      <point x="136" y="0" type="line" smooth="yes"/>
      <point x="185" y="188" type="line" smooth="yes"/>
      <point x="437" y="188" type="line" smooth="yes"/>
      <point x="486" y="0" type="line" smooth="yes"/>
      <point x="598" y="0" type="line" smooth="yes"/>
      <point x="383" y="786" type="line" smooth="yes"/>
    </contour>
  </outline>
</glyph>
<glyph name="Aring" format="1">
  <advance width="621"/>
  <unicode hex="00C5"/>
  <outline>
    <contour>
      <point x="257" y="864" type="line" smooth="yes"/>
      <point x="273" y="902" type="line" smooth="yes"/>
      <point x="311" y="918" type="line" smooth="yes"/>
      <point x="349" y="902" type="line" smooth="yes"/>
      <point x="365" y="864" type="line" smooth="yes"/>
      <point x="349" y="825" type="line" smooth="yes"/>
      <point x="311" y="809" type="line" smooth="yes"/>
      <point x="273" y="825" type="line" smooth="yes"/>
    </contour>
    <contour>
      <point x="311" y="669" type="line" smooth="yes"/>
      <point x="413" y="280" type="line" smooth="yes"/>
      <point x="209" y="280" type="line" smooth="yes"/>
    </contour>
    <contour>
      <point x="213" y="864" type="line" smooth="yes"/>
      <point x="223" y="820" type="line" smooth="yes"/>
      <point x="250" y="786" type="line" smooth="yes"/>
      <point x="238" y="786" type="line" smooth="yes"/>
      <point x="23" y="0" type="line" smooth="yes"/>
      <point x="136" y="0" type="line" smooth="yes"/>
      <point x="185" y="188" type="line" smooth="yes"/>
      <point x="437" y="188" type="line" smooth="yes"/>
      <point x="486" y="0" type="line" smooth="yes"/>
      <point x="598" y="0" type="line" smooth="yes"/>
      <point x="383" y="786" type="line" smooth="yes"/>
      <point x="371" y="786" type="line" smooth="yes"/>
      <point x="399" y="820" type="line" smooth="yes"/>
      <point x="409" y="864" type="line" smooth="yes"/>
      <point x="380" y="933" type="line" smooth="yes"/>
      <point x="311" y="962" type="line" smooth="yes"/>
      <point x="242" y="933" type="line" smooth="yes"/>
    </contour>
  </outline>
</glyph>
<glyph name="Ccedilla" format="1">
  <advance width="630"/>
  <unicode hex="00C7"/>
  <outline>
    <contour>
      <point x="239" y="-191" type="line" smooth="yes"/>
      <point x="279" y="-207" type="line" smooth="yes"/>
      <point x="336" y="-213" type="line" smooth="yes"/>
      <point x="416" y="-193" type="line" smooth="yes"/>
      <point x="445" y="-131" type="line" smooth="yes"/>
      <point x="414" y="-70" type="line" smooth="yes"/>
      <point x="343" y="-50" type="line" smooth="yes"/>
      <point x="358" y="-11" type="line" smooth="yes"/>
      <point x="527" y="62" type="line" smooth="yes"/>
      <point x="583" y="249" type="line" smooth="yes"/>
      <point x="583" y="259" type="line" smooth="yes"/>
      <point x="478" y="259" type="line" smooth="yes"/>
      <point x="444" y="127" type="line" smooth="yes"/>
      <point x="332" y="80" type="line" smooth="yes"/>
      <point x="325" y="80" type="line" smooth="yes"/>
      <point x="195" y="151" type="line" smooth="yes"/>
      <point x="157" y="370" type="line" smooth="yes"/>
      <point x="157" y="410" type="line" smooth="yes"/>
      <point x="196" y="629" type="line" smooth="yes"/>
      <point x="325" y="700" type="line" smooth="yes"/>
      <point x="332" y="700" type="line" smooth="yes"/>
      <point x="445" y="649" type="line" smooth="yes"/>
      <point x="478" y="491" type="line" smooth="yes"/>
      <point x="583" y="491" type="line" smooth="yes"/>
      <point x="583" y="522" type="line" smooth="yes"/>
      <point x="519" y="726" type="line" smooth="yes"/>
      <point x="325" y="792" type="line" smooth="yes"/>
      <point x="117" y="702" type="line" smooth="yes"/>
      <point x="50" y="410" type="line" smooth="yes"/>
      <point x="50" y="370" type="line" smooth="yes"/>
      <point x="111" y="87" type="line" smooth="yes"/>
      <point x="300" y="-11" type="line" smooth="yes"/>
      <point x="275" y="-77" type="line" smooth="yes"/>
      <point x="292" y="-102" type="line" smooth="yes"/>
      <point x="302" y="-101" type="line" smooth="yes"/>
      <point x="324" y="-99" type="line" smooth="yes"/>
      <point x="366" y="-105" type="line" smooth="yes"/>
      <point x="381" y="-126" type="line" smooth="yes"/>
      <point x="368" y="-148" type="line" smooth="yes"/>
      <point x="327" y="-155" type="line" smooth="yes"/>
      <point x="288" y="-150" type="line" smooth="yes"/>
      <point x="257" y="-139" type="line" smooth="yes"/>
    </contour>
  </outline>
</glyph>
<glyph name="Igrave" format="1">
  <advance width="248"/>
  <unicode hex="00CC"/>
  <outline>
    <contour>
      <point x="10" y="950" type="line" smooth="yes"/>
      <point x="73" y="840" type="line" smooth="yes"/>
      <point x="175" y="840" type="line" smooth="yes"/>
      <point x="117" y="950" type="line" smooth="yes"/>
    </contour>
    <contour>
      <point x="176" y="780" type="line" smooth="yes"/>
      <point x="72" y="780" type="line" smooth="yes"/>
      <point x="72" y="0" type="line" smooth="yes"/>
      <point x="176" y="0" type="line" smooth="yes"/>
    </contour>
  </outline>
</glyph>
<glyph name="Idieresis" format="1">
  <advance width="248"/>
  <unicode hex="00CF"/>
  <outline>
    <contour>
      <point x="92" y="936" type="line" smooth="yes"/>
      <point x="-7" y="936" type="line" smooth="yes"/>
      <point x="-7" y="854" type="line" smooth="yes"/>
      <point x="92" y="854" type="line" smooth="yes"/>
    </contour>
    <contour>
      <point x="255" y="936" type="line" smooth="yes"/>
      <point x="156" y="936" type="line" smooth="yes"/>
      <point x="156" y="854" type="line" smooth="yes"/>
      <point x="255" y="854" type="line" smooth="yes"/>
    </contour>
    <contour>
      <point x="176" y="780" type="line" smooth="yes"/>
      <point x="72" y="780" type="line" smooth="yes"/>
      <point x="72" y="0" type="line" smooth="yes"/>
      <point x="176" y="0" type="line" smooth="yes"/>
    </contour>
  </outline>
</glyph>
<glyph name="Ntilde" format="1">
  <advance width="667"/>
  <unicode hex="00D1"/>
  <outline>
    <contour>
      <point x="435" y="940" type="line" smooth="yes"/>
      <point x="425" y="909" type="line" smooth="yes"/>
      <point x="400" y="901" type="line" smooth="yes"/>
      <point x="338" y="927" type="line" smooth="yes"/>
      <point x="258" y="952" type="line" smooth="yes"/>
      <point x="196" y="929" type="line" smooth="yes"/>
      <point x="171" y="850" type="line" smooth="yes"/>
      <point x="233" y="850" type="line" smooth="yes"/>
      <point x="243" y="881" type="line" smooth="yes"/>
      <point x="268" y="889" type="line" smooth="yes"/>
      <point x="330" y="864" type="line" smooth="yes"/>
      <point x="410" y="838" type="line" smooth="yes"/>
      <point x="472" y="861" type="line" smooth="yes"/>
      <point x="497" y="940" type="line" smooth="yes"/>
    </contour>
    <contour>
      <point x="600" y="780" type="line" smooth="yes"/>
      <point x="501" y="780" type="line" smooth="yes"/>
      <point x="501" y="357" type="line" smooth="yes"/>
      <point x="505" y="184" type="line" smooth="yes"/>
      <point x="178" y="780" type="line" smooth="yes"/>
      <point x="67" y="780" type="line" smooth="yes"/>
      <point x="67" y="0" type="line" smooth="yes"/>
      <point x="166" y="0" type="line" smooth="yes"/>
      <point x="166" y="423" type="line" smooth="yes"/>
      <point x="162" y="596" type="line" smooth="yes"/>
      <point x="489" y="0" type="line" smooth="yes"/>
      <point x="600" y="0" type="line" smooth="yes"/>
    </contour>
  </outline>
</glyph>
<glyph name="Otilde" format="1">
  <advance width="657"/>
  <unicode hex="00D5"/>
  <outline>
    <contour>
      <point x="430" y="940" type="line" smooth="yes"/>
      <point x="420" y="909" type="line" smooth="yes"/>
      <point x="395" y="901" type="line" smooth="yes"/>
      <point x="333" y="927" type="line" smooth="yes"/>
      <point x="253" y="952" type="line" smooth="yes"/>
      <point x="191" y="929" type="line" smooth="yes"/>
      <point x="166" y="850" type="line" smooth="yes"/>
      <point x="228" y="850" type="line" smooth="yes"/>
      <point x="238" y="881" type="line" smooth="yes"/>
      <point x="263" y="889" type="line" smooth="yes"/>
      <point x="325" y="864" type="line" smooth="yes"/>
      <point x="405" y="838" type="line" smooth="yes"/>
      <point x="467" y="861" type="line" smooth="yes"/>
      <point x="492" y="940" type="line" smooth="yes"/>
    </contour>
    <contour>
      <point x="325" y="80" type="line" smooth="yes"/>
      <point x="196" y="151" type="line" smooth="yes"/>
      <point x="157" y="370" type="line" smooth="yes"/>
      <point x="157" y="410" type="line" smooth="yes"/>
      <point x="196" y="629" type="line" smooth="yes"/>
      <point x="325" y="700" type="line" smooth="yes"/>
      <point x="332" y="700" type="line" smooth="yes"/>
      <point x="461" y="629" type="line" smooth="yes"/>
      <point x="500" y="410" type="line" smooth="yes"/>
      <point x="500" y="370" type="line" smooth="yes"/>
      <point x="461" y="151" type="line" smooth="yes"/>
      <point x="332" y="80" type="line" smooth="yes"/>
    </contour>
    <contour>
      <point x="329" y="-12" type="line" smooth="yes"/>
      <point x="538" y="78" type="line" smooth="yes"/>
      <point x="607" y="370" type="line" smooth="yes"/>
      <point x="607" y="410" type="line" smooth="yes"/>
      <point x="538" y="702" type="line" smooth="yes"/>
      <point x="329" y="792" type="line" smooth="yes"/>
      <point x="119" y="702" type="line" smooth="yes"/>
      <point x="50" y="410" type="line" smooth="yes"/>
      <point x="50" y="370" type="line" smooth="yes"/>
      <point x="119" y="78" type="line" smooth="yes"/>
    </contour>
  </outline>
</glyph>
<glyph name="Odieresis" format="1">
  <advance width="657"/>
  <unicode hex="00D6"/>
  <outline>
    <contour>
      <point x="460" y="936" type="line" smooth="yes"/>
      <point x="361" y="936" type="line" smooth="yes"/>
      <point x="361" y="854" type="line" smooth="yes"/>
      <point x="460" y="854" type="line" smooth="yes"/>
    </contour>
    <contour>
      <point x="297" y="936" type="line" smooth="yes"/>
      <point x="198" y="936" type="line" smooth="yes"/>
      <point x="198" y="854" type="line" smooth="yes"/>
      <point x="297" y="854" type="line" smooth="yes"/>
    </contour>
    <contour>
      <point x="325" y="80" type="line" smooth="yes"/>
      <point x="196" y="151" type="line" smooth="yes"/>
      <point x="157" y="370" type="line" smooth="yes"/>
      <point x="157" y="410" type="line" smooth="yes"/>
      <point x="196" y="629" type="line" smooth="yes"/>
      <point x="325" y="700" type="line" smooth="yes"/>
      <point x="332" y="700" type="line" smooth="yes"/>
      <point x="461" y="629" type="line" smooth="yes"/>
      <point x="500" y="410" type="line" smooth="yes"/>
      <point x="500" y="370" type="line" smooth="yes"/>
      <point x="461" y="151" type="line" smooth="yes"/>
      <point x="332" y="80" type="line" smooth="yes"/>
    </contour>
    <contour>
      <point x="329" y="-12" type="line" smooth="yes"/>
      <point x="538" y="78" type="line" smooth="yes"/>
      <point x="607" y="370" type="line" smooth="yes"/>
      <point x="607" y="410" type="line" smooth="yes"/>
      <point x="538" y="702" type="line" smooth="yes"/>
      <point x="329" y="792" type="line" smooth="yes"/>
      <point x="119" y="702" type="line" smooth="yes"/>
      <point x="50" y="410" type="line" smooth="yes"/>
      <point x="50" y="370" type="line" smooth="yes"/>
      <point x="119" y="78" type="line" smooth="yes"/>
    </contour>
  </outline>
</glyph>
<glyph name="Oslash" format="1">
  <advance width="649"/>
  <unicode hex="00D8"/>
  <outline>
    <contour>
      <point x="157" y="370" type="line" smooth="yes"/>
      <point x="157" y="410" type="line" smooth="yes"/>
      <point x="196" y="629" type="line" smooth="yes"/>
      <point x="325" y="700" type="line" smooth="yes"/>
      <point x="332" y="700" type="line" smooth="yes"/>
      <point x="400" y="687" type="line" smooth="yes"/>
      <point x="449" y="647" type="line" smooth="yes"/>
      <point x="174" y="204" type="line" smooth="yes"/>
      <point x="161" y="278" type="line" smooth="yes"/>
    </contour>
    <contour>
      <point x="500" y="410" type="line" smooth="yes"/>
      <point x="500" y="370" type="line" smooth="yes"/>
      <point x="461" y="151" type="line" smooth="yes"/>
      <point x="332" y="80" type="line" smooth="yes"/>
      <point x="325" y="80" type="line" smooth="yes"/>
      <point x="255" y="94" type="line" smooth="yes"/>
      <point x="205" y="136" type="line" smooth="yes"/>
      <point x="480" y="582" type="line" smooth="yes"/>
      <point x="495" y="505" type="line" smooth="yes"/>
    </contour>
    <contour>
      <point x="50" y="410" type="line" smooth="yes"/>
      <point x="50" y="370" type="line" smooth="yes"/>
      <point x="64" y="210" type="line" smooth="yes"/>
      <point x="107" y="95" type="line" smooth="yes"/>
      <point x="48" y="0" type="line" smooth="yes"/>
      <point x="121" y="0" type="line" smooth="yes"/>
      <point x="149" y="45" type="line" smooth="yes"/>
      <point x="227" y="2" type="line" smooth="yes"/>
      <point x="329" y="-12" type="line" smooth="yes"/>
      <point x="538" y="78" type="line" smooth="yes"/>
      <point x="607" y="370" type="line" smooth="yes"/>
      <point x="607" y="410" type="line" smooth="yes"/>
      <point x="592" y="574" type="line" smooth="yes"/>
      <point x="547" y="689" type="line" smooth="yes"/>
      <point x="603" y="780" type="line" smooth="yes"/>
      <point x="531" y="780" type="line" smooth="yes"/>
      <point x="505" y="737" type="line" smooth="yes"/>
      <point x="428" y="779" type="line" smooth="yes"/>
      <point x="329" y="792" type="line" smooth="yes"/>
      <point x="119" y="702" type="line" smooth="yes"/>
    </contour>
  </outline>
</glyph>
<glyph name="Ugrave" format="1">
  <advance width="647"/>
  <unicode hex="00D9"/>
  <outline>
    <contour>
      <point x="210" y="950" type="line" smooth="yes"/>
      <point x="273" y="840" type="line" smooth="yes"/>
      <point x="375" y="840" type="line" smooth="yes"/>
      <point x="317" y="950" type="line" smooth="yes"/>
    </contour>
    <contour>
      <point x="324" y="-12" type="line" smooth="yes"/>
      <point x="523" y="48" type="line" smooth="yes"/>
      <point x="585" y="243" type="line" smooth="yes"/>
      <point x="585" y="780" type="line" smooth="yes"/>
      <point x="481" y="780" type="line" smooth="yes"/>
      <point x="481" y="248" type="line" smooth="yes"/>
      <point x="443" y="118" type="line" smooth="yes"/>
      <point x="324" y="80" type="line" smooth="yes"/>
      <point x="204" y="118" type="line" smooth="yes"/>
      <point x="166" y="248" type="line" smooth="yes"/>
      <point x="166" y="780" type="line" smooth="yes"/>
      <point x="62" y="780" type="line" smooth="yes"/>
      <point x="62" y="243" type="line" smooth="yes"/>
      <point x="124" y="48" type="line" smooth="yes"/>
    </contour>
  </outline>
</glyph>
<glyph name="Udieresis" format="1">
  <advance width="647"/>
  <unicode hex="00DC"/>
  <outline>
    <contour>
      <point x="455" y="936" type="line" smooth="yes"/>
      <point x="356" y="936" type="line" smooth="yes"/>
      <point x="356" y="854" type="line" smooth="yes"/>
      <point x="455" y="854" type="line" smooth="yes"/>
    </contour>
    <contour>
      <point x="292" y="936" type="line" smooth="yes"/>
      <point x="193" y="936" type="line" smooth="yes"/>
      <point x="193" y="854" type="line" smooth="yes"/>
      <point x="292" y="854" type="line" smooth="yes"/>
    </contour>
    <contour>
      <point x="324" y="-12" type="line" smooth="yes"/>
      <point x="523" y="48" type="line" smooth="yes"/>
      <point x="585" y="243" type="line" smooth="yes"/>
      <point x="585" y="780" type="line" smooth="yes"/>
      <point x="481" y="780" type="line" smooth="yes"/>
      <point x="481" y="248" type="line" smooth="yes"/>
      <point x="443" y="118" type="line" smooth="yes"/>
      <point x="324" y="80" type="line" smooth="yes"/>
      <point x="204" y="118" type="line" smooth="yes"/>
      <point x="166" y="248" type="line" smooth="yes"/>
      <point x="166" y="780" type="line" smooth="yes"/>
      <point x="62" y="780" type="line" smooth="yes"/>
      <point x="62" y="243" type="line" smooth="yes"/>
      <point x="124" y="48" type="line" smooth="yes"/>
    </contour>
  </outline>
</glyph>
<glyph name="Thorn" format="1">
  <advance width="586"/>
  <unicode hex="00DE"/>
  <outline>
    <contour>
      <point x="171" y="244" type="line" smooth="yes"/>
      <point x="171" y="536" type="line" smooth="yes"/>
      <point x="301" y="536" type="line" smooth="yes"/>
      <point x="394" y="510" type="line" smooth="yes"/>
      <point x="442" y="396" type="line" smooth="yes"/>
      <point x="442" y="384" type="line" smooth="yes"/>
      <point x="394" y="270" type="line" smooth="yes"/>
      <point x="301" y="244" type="line" smooth="yes"/>
    </contour>
    <contour>
      <point x="171" y="780" type="line" smooth="yes"/>
      <point x="67" y="780" type="line" smooth="yes"/>
      <point x="67" y="0" type="line" smooth="yes"/>
      <point x="171" y="0" type="line" smooth="yes"/>
      <point x="171" y="152" type="line" smooth="yes"/>
      <point x="298" y="152" type="line" smooth="yes"/>
      <point x="467" y="195" type="line" smooth="yes"/>
      <point x="548" y="380" type="line" smooth="yes"/>
      <point x="548" y="400" type="line" smooth="yes"/>
      <point x="467" y="585" type="line" smooth="yes"/>
      <point x="298" y="628" type="line" smooth="yes"/>
      <point x="171" y="628" type="line" smooth="yes"/>
    </contour>
  </outline>
</glyph>
<glyph name="germandbls" format="1">
  <advance width="592"/>
  <unicode hex="00DF"/>
  <outline>
    <contour>
      <point x="270" y="358" type="line" smooth="yes"/>
      <point x="352" y="303" type="line" smooth="yes"/>
      <point x="439" y="232" type="line" smooth="yes"/>
      <point x="467" y="161" type="line" smooth="yes"/>
      <point x="452" y="97" type="line" smooth="yes"/>
      <point x="384" y="68" type="line" smooth="yes"/>
      <point x="317" y="97" type="line" smooth="yes"/>
      <point x="301" y="164" type="line" smooth="yes"/>
      <point x="213" y="164" type="line" smooth="yes"/>
      <point x="213" y="158" type="line" smooth="yes"/>
      <point x="246" y="42" type="line" smooth="yes"/>
      <point x="386" y="-12" type="line" smooth="yes"/>
      <point x="527" y="43" type="line" smooth="yes"/>
      <point x="567" y="161" type="line" smooth="yes"/>
      <point x="567" y="167" type="line" smooth="yes"/>
      <point x="529" y="276" type="line" smooth="yes"/>
      <point x="419" y="370" type="line" smooth="yes"/>
      <point x="379" y="397" type="line" smooth="yes"/>
      <point x="470" y="484" type="line" smooth="yes"/>
      <point x="500" y="596" type="line" smooth="yes"/>
      <point x="500" y="604" type="line" smooth="yes"/>
      <point x="447" y="752" type="line" smooth="yes"/>
      <point x="280" y="812" type="line" smooth="yes"/>
      <point x="111" y="753" type="line" smooth="yes"/>
      <point x="59" y="604" type="line" smooth="yes"/>
      <point x="59" y="0" type="line" smooth="yes"/>
      <point x="159" y="0" type="line" smooth="yes"/>
      <point x="159" y="597" type="line" smooth="yes"/>
      <point x="188" y="686" type="line" smooth="yes"/>
      <point x="280" y="722" type="line" smooth="yes"/>
      <point x="372" y="686" type="line" smooth="yes"/>
      <point x="400" y="593" type="line" smooth="yes"/>
      <point x="368" y="498" type="line" smooth="yes"/>
      <point x="270" y="422" type="line" smooth="yes"/>
    </contour>
  </outline>
</glyph>
<glyph name="acircumflex" format="1">
  <advance width="525"/>
  <unicode hex="00E2"/>
  <outline>
    <contour>
      <point x="178" y="607" type="line" smooth="yes"/>
      <point x="263" y="709" type="line" smooth="yes"/>
      <point x="348" y="607" type="line" smooth="yes"/>
      <point x="442" y="607" type="line" smooth="yes"/>
      <point x="310" y="780" type="line" smooth="yes"/>
      <point x="216" y="780" type="line" smooth="yes"/>
      <point x="84" y="607" type="line" smooth="yes"/>
    </contour>
    <contour>
      <point x="228" y="72" type="line" smooth="yes"/>
      <point x="160" y="96" type="line" smooth="yes"/>
      <point x="139" y="150" type="line" smooth="yes"/>
      <point x="139" y="158" type="line" smooth="yes"/>
      <point x="163" y="218" type="line" smooth="yes"/>
      <point x="234" y="248" type="line" smooth="yes"/>
      <point x="366" y="270" type="line" smooth="yes"/>
      <point x="366" y="141" type="line" smooth="yes"/>
      <point x="320" y="96" type="line" smooth="yes"/>
    </contour>
    <contour>
      <point x="386" y="0" type="line" smooth="yes"/>
      <point x="473" y="0" type="line" smooth="yes"/>
      <point x="466" y="150" type="line" smooth="yes"/>
      <point x="466" y="343" type="line" smooth="yes"/>
      <point x="423" y="488" type="line" smooth="yes"/>
      <point x="263" y="542" type="line" smooth="yes"/>
      <point x="100" y="485" type="line" smooth="yes"/>
      <point x="60" y="364" type="line" smooth="yes"/>
      <point x="60" y="355" type="line" smooth="yes"/>
      <point x="155" y="355" type="line" smooth="yes"/>
      <point x="176" y="430" type="line" smooth="yes"/>
      <point x="260" y="462" type="line" smooth="yes"/>
      <point x="343" y="432" type="line" smooth="yes"/>
      <point x="366" y="343" type="line" smooth="yes"/>
      <point x="366" y="335" type="line" smooth="yes"/>
      <point x="219" y="312" type="line" smooth="yes"/>
      <point x="94" y="268" type="line" smooth="yes"/>
      <point x="40" y="148" type="line" smooth="yes"/>
      <point x="40" y="138" type="line" smooth="yes"/>
      <point x="79" y="31" type="line" smooth="yes"/>
      <point x="196" y="-12" type="line" smooth="yes"/>
      <point x="305" y="11" type="line" smooth="yes"/>
      <point x="376" y="68" type="line" smooth="yes"/>
    </contour>
  </outline>
</glyph>
<glyph name="atilde" format="1">
  <advance width="525"/>
  <unicode hex="00E3"/>
  <outline>
    <contour>
      <point x="362" y="755" type="line" smooth="yes"/>
      <point x="352" y="723" type="line" smooth="yes"/>
      <point x="328" y="714" type="line" smooth="yes"/>
      <point x="264" y="741" type="line" smooth="yes"/>
      <point x="182" y="768" type="line" smooth="yes"/>
      <point x="117" y="739" type="line" smooth="yes"/>
      <point x="91" y="645" type="line" smooth="yes"/>
      <point x="164" y="645" type="line" smooth="yes"/>
      <point x="174" y="677" type="line" smooth="yes"/>
      <point x="198" y="686" type="line" smooth="yes"/>
      <point x="262" y="659" type="line" smooth="yes"/>
      <point x="344" y="632" type="line" smooth="yes"/>
      <point x="409" y="661" type="line" smooth="yes"/>
      <point x="435" y="755" type="line" smooth="yes"/>
    </contour>
    <contour>
      <point x="228" y="72" type="line" smooth="yes"/>
      <point x="160" y="96" type="line" smooth="yes"/>
      <point x="139" y="150" type="line" smooth="yes"/>
      <point x="139" y="158" type="line" smooth="yes"/>
      <point x="163" y="218" type="line" smooth="yes"/>
      <point x="234" y="248" type="line" smooth="yes"/>
      <point x="366" y="270" type="line" smooth="yes"/>
      <point x="366" y="141" type="line" smooth="yes"/>
      <point x="320" y="96" type="line" smooth="yes"/>
    </contour>
    <contour>
      <point x="386" y="0" type="line" smooth="yes"/>
      <point x="473" y="0" type="line" smooth="yes"/>
      <point x="466" y="150" type="line" smooth="yes"/>
      <point x="466" y="343" type="line" smooth="yes"/>
      <point x="423" y="488" type="line" smooth="yes"/>
      <point x="263" y="542" type="line" smooth="yes"/>
      <point x="100" y="485" type="line" smooth="yes"/>
      <point x="60" y="364" type="line" smooth="yes"/>
      <point x="60" y="355" type="line" smooth="yes"/>
      <point x="155" y="355" type="line" smooth="yes"/>
      <point x="176" y="430" type="line" smooth="yes"/>
      <point x="260" y="462" type="line" smooth="yes"/>
      <point x="343" y="432" type="line" smooth="yes"/>
      <point x="366" y="343" type="line" smooth="yes"/>
      <point x="366" y="335" type="line" smooth="yes"/>
      <point x="219" y="312" type="line" smooth="yes"/>
      <point x="94" y="268" type="line" smooth="yes"/>
      <point x="40" y="148" type="line" smooth="yes"/>
      <point x="40" y="138" type="line" smooth="yes"/>
      <point x="79" y="31" type="line" smooth="yes"/>
      <point x="196" y="-12" type="line" smooth="yes"/>
      <point x="305" y="11" type="line" smooth="yes"/>
      <point x="376" y="68" type="line" smooth="yes"/>
    </contour>
  </outline>
</glyph>
<glyph name="ae" format="1">
  <advance width="867"/>
  <unicode hex="00E6"/>
  <outline>
    <contour>
      <point x="597" y="462" type="line" smooth="yes"/>
      <point x="693" y="420" type="line" smooth="yes"/>
      <point x="728" y="303" type="line" smooth="yes"/>
      <point x="467" y="303" type="line" smooth="yes"/>
      <point x="501" y="420" type="line" smooth="yes"/>
    </contour>
    <contour>
      <point x="371" y="147" type="line" smooth="yes"/>
      <point x="327" y="99" type="line" smooth="yes"/>
      <point x="228" y="70" type="line" smooth="yes"/>
      <point x="160" y="94" type="line" smooth="yes"/>
      <point x="139" y="148" type="line" smooth="yes"/>
      <point x="139" y="156" type="line" smooth="yes"/>
      <point x="164" y="216" type="line" smooth="yes"/>
      <point x="234" y="246" type="line" smooth="yes"/>
      <point x="366" y="268" type="line" smooth="yes"/>
      <point x="366" y="253" type="line" smooth="yes"/>
      <point x="369" y="202" type="line" smooth="yes"/>
      <point x="378" y="155" type="line" smooth="yes"/>
    </contour>
    <contour>
      <point x="829" y="227" type="line" smooth="yes"/>
      <point x="829" y="277" type="line" smooth="yes"/>
      <point x="774" y="465" type="line" smooth="yes"/>
      <point x="599" y="542" type="line" smooth="yes"/>
      <point x="496" y="520" type="line" smooth="yes"/>
      <point x="429" y="459" type="line" smooth="yes"/>
      <point x="372" y="520" type="line" smooth="yes"/>
      <point x="263" y="542" type="line" smooth="yes"/>
      <point x="100" y="485" type="line" smooth="yes"/>
      <point x="60" y="364" type="line" smooth="yes"/>
      <point x="60" y="355" type="line" smooth="yes"/>
      <point x="155" y="355" type="line" smooth="yes"/>
      <point x="176" y="430" type="line" smooth="yes"/>
      <point x="260" y="462" type="line" smooth="yes"/>
      <point x="343" y="432" type="line" smooth="yes"/>
      <point x="366" y="343" type="line" smooth="yes"/>
      <point x="366" y="335" type="line" smooth="yes"/>
      <point x="220" y="312" type="line" smooth="yes"/>
      <point x="94" y="268" type="line" smooth="yes"/>
      <point x="40" y="148" type="line" smooth="yes"/>
      <point x="40" y="138" type="line" smooth="yes"/>
      <point x="80" y="31" type="line" smooth="yes"/>
      <point x="202" y="-12" type="line" smooth="yes"/>
      <point x="325" y="15" type="line" smooth="yes"/>
      <point x="412" y="79" type="line" smooth="yes"/>
      <point x="488" y="13" type="line" smooth="yes"/>
      <point x="605" y="-12" type="line" smooth="yes"/>
      <point x="773" y="44" type="line" smooth="yes"/>
      <point x="829" y="166" type="line" smooth="yes"/>
      <point x="829" y="170" type="line" smooth="yes"/>
      <point x="734" y="170" type="line" smooth="yes"/>
      <point x="703" y="101" type="line" smooth="yes"/>
      <point x="605" y="68" type="line" smooth="yes"/>
      <point x="503" y="109" type="line" smooth="yes"/>
      <point x="467" y="227" type="line" smooth="yes"/>
    </contour>
  </outline>
</glyph>
<glyph name="ccedilla" format="1">
  <advance width="523"/>
  <unicode hex="00E7"/>
  <outline>
    <contour>
      <point x="180" y="-191" type="line" smooth="yes"/>
      <point x="220" y="-207" type="line" smooth="yes"/>
      <point x="277" y="-213" type="line" smooth="yes"/>
      <point x="357" y="-193" type="line" smooth="yes"/>
      <point x="386" y="-131" type="line" smooth="yes"/>
      <point x="355" y="-70" type="line" smooth="yes"/>
      <point x="284" y="-50" type="line" smooth="yes"/>
      <point x="299" y="-11" type="line" smooth="yes"/>
      <point x="438" y="51" type="line" smooth="yes"/>
      <point x="482" y="170" type="line" smooth="yes"/>
      <point x="482" y="188" type="line" smooth="yes"/>
      <point x="386" y="188" type="line" smooth="yes"/>
      <point x="360" y="110" type="line" smooth="yes"/>
      <point x="272" y="76" type="line" smooth="yes"/>
      <point x="174" y="124" type="line" smooth="yes"/>
      <point x="143" y="251" type="line" smooth="yes"/>
      <point x="143" y="279" type="line" smooth="yes"/>
      <point x="174" y="406" type="line" smooth="yes"/>
      <point x="272" y="454" type="line" smooth="yes"/>
      <point x="359" y="420" type="line" smooth="yes"/>
      <point x="386" y="332" type="line" smooth="yes"/>
      <point x="482" y="332" type="line" smooth="yes"/>
      <point x="482" y="353" type="line" smooth="yes"/>
      <point x="432" y="484" type="line" smooth="yes"/>
      <point x="270" y="542" type="line" smooth="yes"/>
      <point x="96" y="466" type="line" smooth="yes"/>
      <point x="42" y="279" type="line" smooth="yes"/>
      <point x="42" y="251" type="line" smooth="yes"/>
      <point x="89" y="73" type="line" smooth="yes"/>
      <point x="241" y="-10" type="line" smooth="yes"/>
      <point x="216" y="-77" type="line" smooth="yes"/>
      <point x="233" y="-102" type="line" smooth="yes"/>
      <point x="243" y="-101" type="line" smooth="yes"/>
      <point x="265" y="-99" type="line" smooth="yes"/>
      <point x="307" y="-105" type="line" smooth="yes"/>
      <point x="322" y="-126" type="line" smooth="yes"/>
      <point x="309" y="-148" type="line" smooth="yes"/>
      <point x="268" y="-155" type="line" smooth="yes"/>
      <point x="229" y="-150" type="line" smooth="yes"/>
      <point x="198" y="-139" type="line" smooth="yes"/>
    </contour>
  </outline>
</glyph>
<glyph name="eacute" format="1">
  <advance width="548"/>
  <unicode hex="00E9"/>
  <outline>
    <contour>
      <point x="316" y="780" type="line" smooth="yes"/>
      <point x="225" y="607" type="line" smooth="yes"/>
      <point x="327" y="607" type="line" smooth="yes"/>
      <point x="426" y="780" type="line" smooth="yes"/>
    </contour>
    <contour>
      <point x="274" y="462" type="line" smooth="yes"/>
      <point x="370" y="420" type="line" smooth="yes"/>
      <point x="405" y="303" type="line" smooth="yes"/>
      <point x="143" y="303" type="line" smooth="yes"/>
      <point x="177" y="420" type="line" smooth="yes"/>
    </contour>
    <contour>
      <point x="506" y="227" type="line" smooth="yes"/>
      <point x="506" y="277" type="line" smooth="yes"/>
      <point x="451" y="465" type="line" smooth="yes"/>
      <point x="276" y="542" type="line" smooth="yes"/>
      <point x="99" y="465" type="line" smooth="yes"/>
      <point x="42" y="277" type="line" smooth="yes"/>
      <point x="42" y="253" type="line" smooth="yes"/>
      <point x="99" y="65" type="line" smooth="yes"/>
      <point x="281" y="-12" type="line" smooth="yes"/>
      <point x="450" y="44" type="line" smooth="yes"/>
      <point x="506" y="166" type="line" smooth="yes"/>
      <point x="506" y="170" type="line" smooth="yes"/>
      <point x="410" y="170" type="line" smooth="yes"/>
      <point x="379" y="101" type="line" smooth="yes"/>
      <point x="282" y="68" type="line" smooth="yes"/>
      <point x="180" y="109" type="line" smooth="yes"/>
      <point x="143" y="227" type="line" smooth="yes"/>
    </contour>
  </outline>
</glyph>
<glyph name="icircumflex" format="1">
  <advance width="234"/>
  <unicode hex="00EE"/>
  <outline>
    <contour>
      <point x="32" y="607" type="line" smooth="yes"/>
      <point x="117" y="709" type="line" smooth="yes"/>
      <point x="202" y="607" type="line" smooth="yes"/>
      <point x="296" y="607" type="line" smooth="yes"/>
      <point x="164" y="780" type="line" smooth="yes"/>
      <point x="70" y="780" type="line" smooth="yes"/>
      <point x="-62" y="607" type="line" smooth="yes"/>
    </contour>
    <contour>
      <point x="66" y="0" type="line" smooth="yes"/>
      <point x="168" y="0" type="line" smooth="yes"/>
      <point x="168" y="530" type="line" smooth="yes"/>
      <point x="66" y="530" type="line" smooth="yes"/>
    </contour>
  </outline>
</glyph>
<glyph name="idieresis" format="1">
  <advance width="234"/>
  <unicode hex="00EF"/>
  <outline>
    <contour>
      <point x="267" y="754" type="line" smooth="yes"/>
      <point x="151" y="754" type="line" smooth="yes"/>
      <point x="151" y="639" type="line" smooth="yes"/>
      <point x="267" y="639" type="line" smooth="yes"/>
    </contour>
    <contour>
      <point x="83" y="754" type="line" smooth="yes"/>
      <point x="-33" y="754" type="line" smooth="yes"/>
      <point x="-33" y="639" type="line" smooth="yes"/>
      <point x="83" y="639" type="line" smooth="yes"/>
    </contour>
    <contour>
      <point x="66" y="0" type="line" smooth="yes"/>
      <point x="168" y="0" type="line" smooth="yes"/>
      <point x="168" y="530" type="line" smooth="yes"/>
      <point x="66" y="530" type="line" smooth="yes"/>
    </contour>
  </outline>
</glyph>
<glyph name="ntilde" format="1">
  <advance width="545"/>
  <unicode hex="00F1"/>
  <outline>
    <contour>
      <point x="375" y="755" type="line" smooth="yes"/>
      <point x="365" y="723" type="line" smooth="yes"/>
      <point x="341" y="714" type="line" smooth="yes"/>
      <point x="277" y="741" type="line" smooth="yes"/>
      <point x="195" y="768" type="line" smooth="yes"/>
      <point x="130" y="739" type="line" smooth="yes"/>
      <point x="104" y="645" type="line" smooth="yes"/>
      <point x="177" y="645" type="line" smooth="yes"/>
      <point x="187" y="677" type="line" smooth="yes"/>
      <point x="211" y="686" type="line" smooth="yes"/>
      <point x="275" y="659" type="line" smooth="yes"/>
      <point x="357" y="632" type="line" smooth="yes"/>
      <point x="422" y="661" type="line" smooth="yes"/>
      <point x="448" y="755" type="line" smooth="yes"/>
    </contour>
    <contour>
      <point x="489" y="0" type="line" smooth="yes"/>
      <point x="489" y="367" type="line" smooth="yes"/>
      <point x="450" y="491" type="line" smooth="yes"/>
      <point x="327" y="542" type="line" smooth="yes"/>
      <point x="219" y="518" type="line" smooth="yes"/>
      <point x="152" y="457" type="line" smooth="yes"/>
      <point x="141" y="530" type="line" smooth="yes"/>
      <point x="55" y="530" type="line" smooth="yes"/>
      <point x="62" y="380" type="line" smooth="yes"/>
      <point x="62" y="0" type="line" smooth="yes"/>
      <point x="162" y="0" type="line" smooth="yes"/>
      <point x="162" y="383" type="line" smooth="yes"/>
      <point x="206" y="429" type="line" smooth="yes"/>
      <point x="290" y="454" type="line" smooth="yes"/>
      <point x="364" y="427" type="line" smooth="yes"/>
      <point x="390" y="351" type="line" smooth="yes"/>
      <point x="390" y="0" type="line" smooth="yes"/>
    </contour>
  </outline>
</glyph>
<glyph name="ocircumflex" format="1">
  <advance width="548"/>
  <unicode hex="00F4"/>
  <outline>
    <contour>
      <point x="189" y="607" type="line" smooth="yes"/>
      <point x="274" y="709" type="line" smooth="yes"/>
      <point x="359" y="607" type="line" smooth="yes"/>
      <point x="453" y="607" type="line" smooth="yes"/>
      <point x="321" y="780" type="line" smooth="yes"/>
      <point x="227" y="780" type="line" smooth="yes"/>
      <point x="95" y="607" type="line" smooth="yes"/>
    </contour>
    <contour>
      <point x="274" y="76" type="line" smooth="yes"/>
      <point x="175" y="124" type="line" smooth="yes"/>
      <point x="143" y="251" type="line" smooth="yes"/>
      <point x="143" y="279" type="line" smooth="yes"/>
      <point x="175" y="406" type="line" smooth="yes"/>
      <point x="274" y="454" type="line" smooth="yes"/>
      <point x="373" y="406" type="line" smooth="yes"/>
      <point x="405" y="279" type="line" smooth="yes"/>
      <point x="405" y="251" type="line" smooth="yes"/>
      <point x="373" y="124" type="line" smooth="yes"/>
    </contour>
    <contour>
      <point x="274" y="-12" type="line" smooth="yes"/>
      <point x="450" y="64" type="line" smooth="yes"/>
      <point x="506" y="251" type="line" smooth="yes"/>
      <point x="506" y="279" type="line" smooth="yes"/>
      <point x="450" y="466" type="line" smooth="yes"/>
      <point x="274" y="542" type="line" smooth="yes"/>
      <point x="98" y="466" type="line" smooth="yes"/>
      <point x="42" y="279" type="line" smooth="yes"/>
      <point x="42" y="251" type="line" smooth="yes"/>
      <point x="98" y="64" type="line" smooth="yes"/>
    </contour>
  </outline>
</glyph>
<glyph name="otilde" format="1">
  <advance width="548"/>
  <unicode hex="00F5"/>
  <outline>
    <contour>
      <point x="373" y="755" type="line" smooth="yes"/>
      <point x="363" y="723" type="line" smooth="yes"/>
      <point x="339" y="714" type="line" smooth="yes"/>
      <point x="275" y="741" type="line" smooth="yes"/>
      <point x="193" y="768" type="line" smooth="yes"/>
      <point x="128" y="739" type="line" smooth="yes"/>
      <point x="102" y="645" type="line" smooth="yes"/>
      <point x="175" y="645" type="line" smooth="yes"/>
      <point x="185" y="677" type="line" smooth="yes"/>
      <point x="209" y="686" type="line" smooth="yes"/>
      <point x="273" y="659" type="line" smooth="yes"/>
      <point x="355" y="632" type="line" smooth="yes"/>
      <point x="420" y="661" type="line" smooth="yes"/>
      <point x="446" y="755" type="line" smooth="yes"/>
    </contour>
    <contour>
      <point x="274" y="76" type="line" smooth="yes"/>
      <point x="175" y="124" type="line" smooth="yes"/>
      <point x="143" y="251" type="line" smooth="yes"/>
      <point x="143" y="279" type="line" smooth="yes"/>
      <point x="175" y="406" type="line" smooth="yes"/>
      <point x="274" y="454" type="line" smooth="yes"/>
      <point x="373" y="406" type="line" smooth="yes"/>
      <point x="405" y="279" type="line" smooth="yes"/>
      <point x="405" y="251" type="line" smooth="yes"/>
      <point x="373" y="124" type="line" smooth="yes"/>
    </contour>
    <contour>
      <point x="274" y="-12" type="line" smooth="yes"/>
      <point x="450" y="64" type="line" smooth="yes"/>
      <point x="506" y="251" type="line" smooth="yes"/>
      <point x="506" y="279" type="line" smooth="yes"/>
      <point x="450" y="466" type="line" smooth="yes"/>
      <point x="274" y="542" type="line" smooth="yes"/>
      <point x="98" y="466" type="line" smooth="yes"/>
      <point x="42" y="279" type="line" smooth="yes"/>
      <point x="42" y="251" type="line" smooth="yes"/>
      <point x="98" y="64" type="line" smooth="yes"/>
    </contour>
  </outline>
</glyph>
<glyph name="oslash" format="1">
  <advance width="548"/>
  <unicode hex="00F8"/>
  <outline>
    <contour>
      <point x="143" y="251" type="line" smooth="yes"/>
      <point x="143" y="279" type="line" smooth="yes"/>
      <point x="175" y="406" type="line" smooth="yes"/>
      <point x="274" y="454" type="line" smooth="yes"/>
      <point x="323" y="445" type="line" smooth="yes"/>
      <point x="360" y="421" type="line" smooth="yes"/>
      <point x="158" y="154" type="line" smooth="yes"/>
      <point x="147" y="198" type="line" smooth="yes"/>
    </contour>
    <contour>
      <point x="405" y="279" type="line" smooth="yes"/>
      <point x="405" y="251" type="line" smooth="yes"/>
      <point x="373" y="124" type="line" smooth="yes"/>
      <point x="274" y="76" type="line" smooth="yes"/>
      <point x="225" y="85" type="line" smooth="yes"/>
      <point x="187" y="109" type="line" smooth="yes"/>
      <point x="389" y="376" type="line" smooth="yes"/>
      <point x="401" y="331" type="line" smooth="yes"/>
    </contour>
    <contour>
      <point x="506" y="530" type="line" smooth="yes"/>
      <point x="443" y="530" type="line" smooth="yes"/>
      <point x="418" y="497" type="line" smooth="yes"/>
      <point x="355" y="530" type="line" smooth="yes"/>
      <point x="274" y="542" type="line" smooth="yes"/>
      <point x="98" y="466" type="line" smooth="yes"/>
      <point x="42" y="279" type="line" smooth="yes"/>
      <point x="42" y="251" type="line" smooth="yes"/>
      <point x="55" y="150" type="line" smooth="yes"/>
      <point x="94" y="68" type="line" smooth="yes"/>
      <point x="42" y="0" type="line" smooth="yes"/>
      <point x="105" y="0" type="line" smooth="yes"/>
      <point x="129" y="32" type="line" smooth="yes"/>
      <point x="192" y="-1" type="line" smooth="yes"/>
      <point x="274" y="-12" type="line" smooth="yes"/>
      <point x="450" y="64" type="line" smooth="yes"/>
      <point x="506" y="251" type="line" smooth="yes"/>
      <point x="506" y="279" type="line" smooth="yes"/>
      <point x="493" y="379" type="line" smooth="yes"/>
      <point x="454" y="461" type="line" smooth="yes"/>
    </contour>
  </outline>
</glyph>
<glyph name="yacute" format="1">
  <advance width="507"/>
  <unicode hex="00FD"/>
  <outline>
    <contour>
      <point x="299" y="780" type="line" smooth="yes"/>
      <point x="208" y="607" type="line" smooth="yes"/>
      <point x="310" y="607" type="line" smooth="yes"/>
      <point x="409" y="780" type="line" smooth="yes"/>
    </contour>
    <contour>
      <point x="259" y="130" type="line" smooth="yes"/>
      <point x="125" y="530" type="line" smooth="yes"/>
      <point x="17" y="530" type="line" smooth="yes"/>
      <point x="205" y="23" type="line" smooth="yes"/>
      <point x="122" y="-200" type="line" smooth="yes"/>
      <point x="239" y="-200" type="line" smooth="yes"/>
      <point x="312" y="23" type="line" smooth="yes"/>
      <point x="501" y="530" type="line" smooth="yes"/>
      <point x="393" y="530" type="line" smooth="yes"/>
    </contour>
  </outline>
</glyph>
<glyph name="ydieresis" format="1">
  <advance width="507"/>
  <unicode hex="00FF"/>
  <outline>
    <contour>
      <point x="225" y="754" type="line" smooth="yes"/>
      <point x="109" y="754" type="line" smooth="yes"/>
      <point x="109" y="639" type="line" smooth="yes"/>
      <point x="225" y="639" type="line" smooth="yes"/>
    </contour>
    <contour>
      <point x="409" y="754" type="line" smooth="yes"/>
      <point x="293" y="754" type="line" smooth="yes"/>
      <point x="293" y="639" type="line" smooth="yes"/>
      <point x="409" y="639" type="line" smooth="yes"/>
    </contour>
    <contour>
      <point x="259" y="130" type="line" smooth="yes"/>
      <point x="125" y="530" type="line" smooth="yes"/>
      <point x="17" y="530" type="line" smooth="yes"/>
      <point x="205" y="23" type="line" smooth="yes"/>
      <point x="122" y="-200" type="line" smooth="yes"/>
      <point x="239" y="-200" type="line" smooth="yes"/>
      <point x="312" y="23" type="line" smooth="yes"/>
      <point x="501" y="530" type="line" smooth="yes"/>
      <point x="393" y="530" type="line" smooth="yes"/>
    </contour>
  </outline>
</glyph>
<glyph name="Abreve" format="1">
  <advance width="621"/>
  <unicode hex="0102"/>
  <outline>
    <contour>
      <point x="311" y="827" type="line" smooth="yes"/>
      <point x="436" y="863" type="line" smooth="yes"/>
      <point x="470" y="950" type="line" smooth="yes"/>
      <point x="395" y="950" type="line" smooth="yes"/>
      <point x="375" y="906" type="line" smooth="yes"/>
      <point x="311" y="890" type="line" smooth="yes"/>
      <point x="247" y="906" type="line" smooth="yes"/>
      <point x="227" y="950" type="line" smooth="yes"/>
      <point x="152" y="950" type="line" smooth="yes"/>
      <point x="187" y="863" type="line" smooth="yes"/>
    </contour>
    <contour>
      <point x="311" y="669" type="line" smooth="yes"/>
      <point x="413" y="280" type="line" smooth="yes"/>
      <point x="209" y="280" type="line" smooth="yes"/>
    </contour>
    <contour>
      <point x="238" y="786" type="line" smooth="yes"/>
      <point x="23" y="0" type="line" smooth="yes"/>
      <point x="136" y="0" type="line" smooth="yes"/>
      <point x="185" y="188" type="line" smooth="yes"/>
      <point x="437" y="188" type="line" smooth="yes"/>
      <point x="486" y="0" type="line" smooth="yes"/>
      <point x="598" y="0" type="line" smooth="yes"/>
      <point x="383" y="786" type="line" smooth="yes"/>
    </contour>
  </outline>
</glyph>
<glyph name="aogonek" format="1">
  <advance width="525"/>
  <unicode hex="0105"/>
  <outline>
    <contour>
      <point x="228" y="72" type="line" smooth="yes"/>
      <point x="160" y="96" type="line" smooth="yes"/>
      <point x="139" y="150" type="line" smooth="yes"/>
      <point x="139" y="158" type="line" smooth="yes"/>
      <point x="163" y="218" type="line" smooth="yes"/>
      <point x="234" y="248" type="line" smooth="yes"/>
      <point x="366" y="270" type="line" smooth="yes"/>
      <point x="366" y="141" type="line" smooth="yes"/>
      <point x="320" y="96" type="line" smooth="yes"/>
    </contour>
    <contour>
      <point x="395" y="-91" type="line" smooth="yes"/>
      <point x="417" y="-36" type="line" smooth="yes"/>
      <point x="470" y="0" type="line" smooth="yes"/>
      <point x="473" y="0" type="line" smooth="yes"/>
      <point x="466" y="150" type="line" smooth="yes"/>
      <point x="466" y="343" type="line" smooth="yes"/>
      <point x="423" y="488" type="line" smooth="yes"/>
      <point x="263" y="542" type="line" smooth="yes"/>
      <point x="100" y="485" type="line" smooth="yes"/>
      <point x="60" y="364" type="line" smooth="yes"/>
      <point x="60" y="355" type="line" smooth="yes"/>
      <point x="155" y="355" type="line" smooth="yes"/>
      <point x="176" y="430" type="line" smooth="yes"/>
      <point x="260" y="462" type="line" smooth="yes"/>
      <point x="343" y="432" type="line" smooth="yes"/>
      <point x="366" y="343" type="line" smooth="yes"/>
      <point x="366" y="335" type="line" smooth="yes"/>
      <point x="219" y="312" type="line" smooth="yes"/>
      <point x="94" y="268" type="line" smooth="yes"/>
      <point x="40" y="148" type="line" smooth="yes"/>
      <point x="40" y="138" type="line" smooth="yes"/>
      <point x="79" y="31" type="line" smooth="yes"/>
      <point x="196" y="-12" type="line" smooth="yes"/>
      <point x="305" y="11" type="line" smooth="yes"/>
      <point x="376" y="68" type="line" smooth="yes"/>
      <point x="383" y="16" type="line" smooth="yes"/>
      <point x="334" y="-37" type="line" smooth="yes"/>
      <point x="314" y="-111" type="line" smooth="yes"/>
      <point x="347" y="-188" type="line" smooth="yes"/>
      <point x="433" y="-213" type="line" smooth="yes"/>
      <point x="485" y="-207" type="line" smooth="yes"/>
      <point x="526" y="-191" type="line" smooth="yes"/>
      <point x="501" y="-123" type="line" smooth="yes"/>
      <point x="478" y="-132" type="line" smooth="yes"/>
      <point x="446" y="-136" type="line" smooth="yes"/>
      <point x="408" y="-123" type="line" smooth="yes"/>
    </contour>
  </outline>
</glyph>
<glyph name="cacute" format="1">
  <advance width="523"/>
  <unicode hex="0107"/>
  <outline>
    <contour>
      <point x="310" y="780" type="line" smooth="yes"/>
      <point x="219" y="607" type="line" smooth="yes"/>
      <point x="321" y="607" type="line" smooth="yes"/>
      <point x="420" y="780" type="line" smooth="yes"/>
    </contour>
    <contour>
      <point x="143" y="251" type="line" smooth="yes"/>
      <point x="143" y="279" type="line" smooth="yes"/>
      <point x="174" y="406" type="line" smooth="yes"/>
      <point x="272" y="454" type="line" smooth="yes"/>
      <point x="359" y="420" type="line" smooth="yes"/>
      <point x="386" y="332" type="line" smooth="yes"/>
      <point x="482" y="332" type="line" smooth="yes"/>
      <point x="482" y="353" type="line" smooth="yes"/>
      <point x="432" y="484" type="line" smooth="yes"/>
      <point x="270" y="542" type="line" smooth="yes"/>
      <point x="96" y="466" type="line" smooth="yes"/>
      <point x="42" y="279" type="line" smooth="yes"/>
      <point x="42" y="251" type="line" smooth="yes"/>
      <point x="96" y="64" type="line" smooth="yes"/>
      <point x="270" y="-12" type="line" smooth="yes"/>
      <point x="432" y="44" type="line" smooth="yes"/>
      <point x="482" y="170" type="line" smooth="yes"/>
      <point x="482" y="188" type="line" smooth="yes"/>
      <point x="386" y="188" type="line" smooth="yes"/>
      <point x="360" y="110" type="line" smooth="yes"/>
      <point x="272" y="76" type="line" smooth="yes"/>
      <point x="174" y="124" type="line" smooth="yes"/>
    </contour>
  </outline>
</glyph>
<glyph name="Ccircumflex" format="1">
  <advance width="630"/>
  <unicode hex="0108"/>
  <outline>
    <contour>
      <point x="259" y="840" type="line" smooth="yes"/>
      <point x="325" y="897" type="line" smooth="yes"/>
      <point x="391" y="840" type="line" smooth="yes"/>
      <point x="487" y="840" type="line" smooth="yes"/>
      <point x="374" y="950" type="line" smooth="yes"/>
      <point x="276" y="950" type="line" smooth="yes"/>
      <point x="163" y="840" type="line" smooth="yes"/>
    </contour>
    <contour>
      <point x="157" y="370" type="line" smooth="yes"/>
      <point x="157" y="410" type="line" smooth="yes"/>
      <point x="196" y="629" type="line" smooth="yes"/>
      <point x="325" y="700" type="line" smooth="yes"/>
      <point x="332" y="700" type="line" smooth="yes"/>
      <point x="445" y="649" type="line" smooth="yes"/>
      <point x="478" y="491" type="line" smooth="yes"/>
      <point x="583" y="491" type="line" smooth="yes"/>
      <point x="583" y="522" type="line" smooth="yes"/>
      <point x="519" y="726" type="line" smooth="yes"/>
      <point x="325" y="792" type="line" smooth="yes"/>
      <point x="117" y="702" type="line" smooth="yes"/>
      <point x="50" y="410" type="line" smooth="yes"/>
      <point x="50" y="370" type="line" smooth="yes"/>
      <point x="117" y="78" type="line" smooth="yes"/>
      <point x="325" y="-12" type="line" smooth="yes"/>
      <point x="519" y="53" type="line" smooth="yes"/>
      <point x="583" y="249" type="line" smooth="yes"/>
      <point x="583" y="259" type="line" smooth="yes"/>
      <point x="478" y="259" type="line" smooth="yes"/>
      <point x="444" y="127" type="line" smooth="yes"/>
      <point x="332" y="80" type="line" smooth="yes"/>
      <point x="325" y="80" type="line" smooth="yes"/>
      <point x="195" y="151" type="line" smooth="yes"/>
    </contour>
  </outline>
</glyph>
<glyph name="Dcaron" format="1">
  <advance width="647"/>
  <unicode hex="010E"/>
  <outline>
    <contour>
      <point x="138" y="950" type="line" smooth="yes"/>
      <point x="251" y="840" type="line" smooth="yes"/>
      <point x="349" y="840" type="line" smooth="yes"/>
      <point x="462" y="950" type="line" smooth="yes"/>
      <point x="366" y="950" type="line" smooth="yes"/>
      <point x="300" y="892" type="line" smooth="yes"/>
      <point x="234" y="950" type="line" smooth="yes"/>
    </contour>
    <contour>
      <point x="171" y="92" type="line" smooth="yes"/>
      <point x="171" y="688" type="line" smooth="yes"/>
      <point x="279" y="688" type="line" smooth="yes"/>
      <point x="439" y="623" type="line" smooth="yes"/>
      <point x="490" y="410" type="line" smooth="yes"/>
      <point x="490" y="370" type="line" smooth="yes"/>
      <point x="439" y="157" type="line" smooth="yes"/>
      <point x="279" y="92" type="line" smooth="yes"/>
    </contour>
    <contour>
      <point x="597" y="370" type="line" smooth="yes"/>
      <point x="597" y="410" type="line" smooth="yes"/>
      <point x="518" y="696" type="line" smooth="yes"/>
      <point x="286" y="780" type="line" smooth="yes"/>
      <point x="67" y="780" type="line" smooth="yes"/>
      <point x="67" y="0" type="line" smooth="yes"/>
      <point x="286" y="0" type="line" smooth="yes"/>
      <point x="518" y="84" type="line" smooth="yes"/>
    </contour>
  </outline>
</glyph>
<glyph name="ebreve" format="1">
  <advance width="548"/>
  <unicode hex="0115"/>
  <outline>
    <contour>
      <point x="274" y="462" type="line" smooth="yes"/>
      <point x="370" y="420" type="line" smooth="yes"/>
      <point x="405" y="303" type="line" smooth="yes"/>
      <point x="143" y="303" type="line" smooth="yes"/>
      <point x="177" y="420" type="line" smooth="yes"/>
    </contour>
    <contour>
      <point x="276" y="595" type="line" smooth="yes"/>
      <point x="408" y="647" type="line" smooth="yes"/>
      <point x="446" y="780" type="line" smooth="yes"/>
      <point x="369" y="780" type="line" smooth="yes"/>
      <point x="346" y="703" type="line" smooth="yes"/>
      <point x="276" y="676" type="line" smooth="yes"/>
      <point x="206" y="703" type="line" smooth="yes"/>
      <point x="183" y="780" type="line" smooth="yes"/>
      <point x="106" y="780" type="line" smooth="yes"/>
      <point x="144" y="647" type="line" smooth="yes"/>
    </contour>
    <contour>
      <point x="506" y="227" type="line" smooth="yes"/>
      <point x="506" y="277" type="line" smooth="yes"/>
      <point x="451" y="465" type="line" smooth="yes"/>
      <point x="276" y="542" type="line" smooth="yes"/>
      <point x="99" y="465" type="line" smooth="yes"/>
      <point x="42" y="277" type="line" smooth="yes"/>
      <point x="42" y="253" type="line" smooth="yes"/>
      <point x="99" y="65" type="line" smooth="yes"/>
      <point x="281" y="-12" type="line" smooth="yes"/>
      <point x="450" y="44" type="line" smooth="yes"/>
      <point x="506" y="166" type="line" smooth="yes"/>
      <point x="506" y="170" type="line" smooth="yes"/>
      <point x="410" y="170" type="line" smooth="yes"/>
      <point x="379" y="101" type="line" smooth="yes"/>
      <point x="282" y="68" type="line" smooth="yes"/>
      <point x="180" y="109" type="line" smooth="yes"/>
      <point x="143" y="227" type="line" smooth="yes"/>
    </contour>
  </outline>
</glyph>
<glyph name="Eogonek" format="1">
  <advance width="557"/>
  <unicode hex="0118"/>
  <outline>
    <contour>
      <point x="67" y="780" type="line" smooth="yes"/>
      <point x="67" y="0" type="line" smooth="yes"/>
      <point x="411" y="0" type="line" smooth="yes"/>
      <point x="375" y="-49" type="line" smooth="yes"/>
      <point x="361" y="-111" type="line" smooth="yes"/>
      <point x="394" y="-188" type="line" smooth="yes"/>
      <point x="480" y="-213" type="line" smooth="yes"/>
      <point x="532" y="-207" type="line" smooth="yes"/>
      <point x="573" y="-191" type="line" smooth="yes"/>
      <point x="548" y="-123" type="line" smooth="yes"/>
      <point x="525" y="-132" type="line" smooth="yes"/>
      <point x="493" y="-136" type="line" smooth="yes"/>
      <point x="455" y="-123" type="line" smooth="yes"/>
      <point x="442" y="-91" type="line" smooth="yes"/>
      <point x="464" y="-36" type="line" smooth="yes"/>
      <point x="517" y="0" type="line" smooth="yes"/>
      <point x="517" y="92" type="line" smooth="yes"/>
      <point x="171" y="92" type="line" smooth="yes"/>
      <point x="171" y="352" type="line" smooth="yes"/>
      <point x="467" y="352" type="line" smooth="yes"/>
      <point x="467" y="444" type="line" smooth="yes"/>
      <point x="171" y="444" type="line" smooth="yes"/>
      <point x="171" y="688" type="line" smooth="yes"/>
      <point x="517" y="688" type="line" smooth="yes"/>
      <point x="517" y="780" type="line" smooth="yes"/>
    </contour>
  </outline>
</glyph>
<glyph name="eogonek" format="1">
  <advance width="548"/>
  <unicode hex="0119"/>
  <outline>
    <contour>
      <point x="274" y="462" type="line" smooth="yes"/>
      <point x="370" y="420" type="line" smooth="yes"/>
      <point x="405" y="303" type="line" smooth="yes"/>
      <point x="143" y="303" type="line" smooth="yes"/>
      <point x="177" y="420" type="line" smooth="yes"/>
    </contour>
    <contour>
      <point x="506" y="227" type="line" smooth="yes"/>
      <point x="506" y="277" type="line" smooth="yes"/>
      <point x="451" y="465" type="line" smooth="yes"/>
      <point x="276" y="542" type="line" smooth="yes"/>
      <point x="99" y="465" type="line" smooth="yes"/>
      <point x="42" y="277" type="line" smooth="yes"/>
      <point x="42" y="253" type="line" smooth="yes"/>
      <point x="92" y="74" type="line" smooth="yes"/>
      <point x="252" y="-10" type="line" smooth="yes"/>
      <point x="224" y="-55" type="line" smooth="yes"/>
      <point x="213" y="-111" type="line" smooth="yes"/>
      <point x="246" y="-188" type="line" smooth="yes"/>
      <point x="332" y="-213" type="line" smooth="yes"/>
      <point x="384" y="-207" type="line" smooth="yes"/>
      <point x="425" y="-191" type="line" smooth="yes"/>
      <point x="400" y="-123" type="line" smooth="yes"/>
      <point x="377" y="-132" type="line" smooth="yes"/>
      <point x="345" y="-136" type="line" smooth="yes"/>
      <point x="307" y="-123" type="line" smooth="yes"/>
      <point x="294" y="-91" type="line" smooth="yes"/>
      <point x="315" y="-34" type="line" smooth="yes"/>
      <point x="369" y="0" type="line" smooth="yes"/>
      <point x="472" y="67" type="line" smooth="yes"/>
      <point x="506" y="166" type="line" smooth="yes"/>
      <point x="506" y="170" type="line" smooth="yes"/>
      <point x="410" y="170" type="line" smooth="yes"/>
      <point x="379" y="101" type="line" smooth="yes"/>
      <point x="282" y="68" type="line" smooth="yes"/>
      <point x="180" y="109" type="line" smooth="yes"/>
      <point x="143" y="227" type="line" smooth="yes"/>
    </contour>
  </outline>
</glyph>
<glyph name="Gcircumflex" format="1">
  <advance width="655"/>
  <unicode hex="011C"/>
  <outline>
    <contour>
      <point x="267" y="840" type="line" smooth="yes"/>
      <point x="333" y="897" type="line" smooth="yes"/>
      <point x="399" y="840" type="line" smooth="yes"/>
      <point x="495" y="840" type="line" smooth="yes"/>
      <point x="382" y="950" type="line" smooth="yes"/>
      <point x="284" y="950" type="line" smooth="yes"/>
      <point x="171" y="840" type="line" smooth="yes"/>
    </contour>
    <contour>
      <point x="343" y="-12" type="line" smooth="yes"/>
      <point x="498" y="16" type="line" smooth="yes"/>
      <point x="593" y="79" type="line" smooth="yes"/>
      <point x="593" y="398" type="line" smooth="yes"/>
      <point x="366" y="398" type="line" smooth="yes"/>
      <point x="366" y="306" type="line" smooth="yes"/>
      <point x="489" y="306" type="line" smooth="yes"/>
      <point x="489" y="129" type="line" smooth="yes"/>
      <point x="433" y="95" type="line" smooth="yes"/>
      <point x="348" y="80" type="line" smooth="yes"/>
      <point x="340" y="80" type="line" smooth="yes"/>
      <point x="198" y="151" type="line" smooth="yes"/>
      <point x="156" y="370" type="line" smooth="yes"/>
      <point x="156" y="410" type="line" smooth="yes"/>
      <point x="198" y="629" type="line" smooth="yes"/>
      <point x="332" y="700" type="line" smooth="yes"/>
      <point x="340" y="700" type="line" smooth="yes"/>
      <point x="455" y="649" type="line" smooth="yes"/>
      <point x="488" y="491" type="line" smooth="yes"/>
      <point x="593" y="491" type="line" smooth="yes"/>
      <point x="593" y="522" type="line" smooth="yes"/>
      <point x="528" y="726" type="line" smooth="yes"/>
      <point x="333" y="792" type="line" smooth="yes"/>
      <point x="121" y="702" type="line" smooth="yes"/>
      <point x="50" y="410" type="line" smooth="yes"/>
      <point x="50" y="370" type="line" smooth="yes"/>
      <point x="123" y="78" type="line" smooth="yes"/>
    </contour>
  </outline>
</glyph>
<glyph name="Gbreve" format="1">
  <advance width="655"/>
  <unicode hex="011E"/>
  <outline>
    <contour>
      <point x="333" y="827" type="line" smooth="yes"/>
      <point x="458" y="863" type="line" smooth="yes"/>
      <point x="492" y="950" type="line" smooth="yes"/>
      <point x="417" y="950" type="line" smooth="yes"/>
      <point x="397" y="906" type="line" smooth="yes"/>
      <point x="333" y="890" type="line" smooth="yes"/>
      <point x="269" y="906" type="line" smooth="yes"/>
      <point x="249" y="950" type="line" smooth="yes"/>
      <point x="174" y="950" type="line" smooth="yes"/>
      <point x="209" y="863" type="line" smooth="yes"/>
    </contour>
    <contour>
      <point x="343" y="-12" type="line" smooth="yes"/>
      <point x="498" y="16" type="line" smooth="yes"/>
      <point x="593" y="79" type="line" smooth="yes"/>
      <point x="593" y="398" type="line" smooth="yes"/>
      <point x="366" y="398" type="line" smooth="yes"/>
      <point x="366" y="306" type="line" smooth="yes"/>
      <point x="489" y="306" type="line" smooth="yes"/>
      <point x="489" y="129" type="line" smooth="yes"/>
      <point x="433" y="95" type="line" smooth="yes"/>
      <point x="348" y="80" type="line" smooth="yes"/>
      <point x="340" y="80" type="line" smooth="yes"/>
      <point x="198" y="151" type="line" smooth="yes"/>
      <point x="156" y="370" type="line" smooth="yes"/>
      <point x="156" y="410" type="line" smooth="yes"/>
      <point x="198" y="629" type="line" smooth="yes"/>
      <point x="332" y="700" type="line" smooth="yes"/>
      <point x="340" y="700" type="line" smooth="yes"/>
      <point x="455" y="649" type="line" smooth="yes"/>
      <point x="488" y="491" type="line" smooth="yes"/>
      <point x="593" y="491" type="line" smooth="yes"/>
      <point x="593" y="522" type="line" smooth="yes"/>
      <point x="528" y="726" type="line" smooth="yes"/>
      <point x="333" y="792" type="line" smooth="yes"/>
      <point x="121" y="702" type="line" smooth="yes"/>
      <point x="50" y="410" type="line" smooth="yes"/>
      <point x="50" y="370" type="line" smooth="yes"/>
      <point x="123" y="78" type="line" smooth="yes"/>
    </contour>
  </outline>
</glyph>
<glyph name="gcommaaccent" format="1">
  <advance width="550"/>
  <unicode hex="0123"/>
  <outline>
    <contour>
      <point x="217" y="607" type="line" smooth="yes"/>
      <point x="319" y="607" type="line" smooth="yes"/>
      <point x="319" y="688" type="line" smooth="yes"/>
      <point x="261" y="688" type="line" smooth="yes"/>
      <point x="285" y="736" type="line" smooth="yes"/>
      <point x="337" y="749" type="line" smooth="yes"/>
      <point x="337" y="792" type="line" smooth="yes"/>
      <point x="247" y="761" type="line" smooth="yes"/>
      <point x="217" y="665" type="line" smooth="yes"/>
    </contour>
    <contour>
      <point x="269" y="112" type="line" smooth="yes"/>
      <point x="175" y="154" type="line" smooth="yes"/>
      <point x="143" y="271" type="line" smooth="yes"/>
      <point x="143" y="295" type="line" smooth="yes"/>
      <point x="175" y="410" type="line" smooth="yes"/>
      <point x="269" y="454" type="line" smooth="yes"/>
      <point x="346" y="429" type="line" smooth="yes"/>
      <point x="389" y="383" type="line" smooth="yes"/>
      <point x="389" y="183" type="line" smooth="yes"/>
      <point x="346" y="136" type="line" smooth="yes"/>
    </contour>
    <contour>
      <point x="389" y="3" type="line" smooth="yes"/>
      <point x="361" y="-96" type="line" smooth="yes"/>
      <point x="267" y="-128" type="line" smooth="yes"/>
      <point x="175" y="-95" type="line" smooth="yes"/>
      <point x="148" y="0" type="line" smooth="yes"/>
      <point x="52" y="0" type="line" smooth="yes"/>
      <point x="52" y="-16" type="line" smooth="yes"/>
      <point x="100" y="-155" type="line" smooth="yes"/>
      <point x="268" y="-212" type="line" smooth="yes"/>
      <point x="437" y="-154" type="line" smooth="yes"/>
      <point x="489" y="0" type="line" smooth="yes"/>
      <point x="489" y="380" type="line" smooth="yes"/>
      <point x="496" y="530" type="line" smooth="yes"/>
      <point x="409" y="530" type="line" smooth="yes"/>
      <point x="399" y="462" type="line" smooth="yes"/>
      <point x="340" y="519" type="line" smooth="yes"/>
      <point x="243" y="542" type="line" smooth="yes"/>
      <point x="89" y="470" type="line" smooth="yes"/>
      <point x="42" y="295" type="line" smooth="yes"/>
      <point x="42" y="271" type="line" smooth="yes"/>
      <point x="89" y="95" type="line" smooth="yes"/>
      <point x="243" y="24" type="line" smooth="yes"/>
      <point x="331" y="43" type="line" smooth="yes"/>
      <point x="389" y="90" type="line" smooth="yes"/>
    </contour>
  </outline>
</glyph>
<glyph name="hcircumflex" format="1">
  <advance width="545"/>
  <unicode hex="0125"/>
  <outline>
    <contour>
      <point x="46" y="840" type="line" smooth="yes"/>
      <point x="112" y="897" type="line" smooth="yes"/>
      <point x="178" y="840" type="line" smooth="yes"/>
      <point x="274" y="840" type="line" smooth="yes"/>
      <point x="161" y="950" type="line" smooth="yes"/>
      <point x="63" y="950" type="line" smooth="yes"/>
      <point x="-50" y="840" type="line" smooth="yes"/>
    </contour>
    <contour>
      <point x="162" y="800" type="line" smooth="yes"/>
      <point x="62" y="800" type="line" smooth="yes"/>
      <point x="62" y="0" type="line" smooth="yes"/>
      <point x="162" y="0" type="line" smooth="yes"/>
      <point x="162" y="383" type="line" smooth="yes"/>
      <point x="206" y="429" type="line" smooth="yes"/>
      <point x="290" y="454" type="line" smooth="yes"/>
      <point x="364" y="427" type="line" smooth="yes"/>
      <point x="390" y="351" type="line" smooth="yes"/>
      <point x="390" y="0" type="line" smooth="yes"/>
      <point x="489" y="0" type="line" smooth="yes"/>
      <point x="489" y="367" type="line" smooth="yes"/>
      <point x="450" y="491" type="line" smooth="yes"/>
      <point x="327" y="542" type="line" smooth="yes"/>
      <point x="227" y="522" type="line" smooth="yes"/>
      <point x="162" y="471" type="line" smooth="yes"/>
    </contour>
  </outline>
</glyph>
<glyph name="Imacron" format="1">
  <advance width="248"/>
  <unicode hex="012A"/>
  <outline>
    <contour>
      <point x="-2" y="860" type="line" smooth="yes"/>
      <point x="250" y="860" type="line" smooth="yes"/>
      <point x="250" y="930" type="line" smooth="yes"/>
      <point x="-2" y="930" type="line" smooth="yes"/>
    </contour>
    <contour>
      <point x="176" y="780" type="line" smooth="yes"/>
      <point x="72" y="780" type="line" smooth="yes"/>
      <point x="72" y="0" type="line" smooth="yes"/>
      <point x="176" y="0" type="line" smooth="yes"/>
    </contour>
  </outline>
</glyph>
<glyph name="Ibreve" format="1">
  <advance width="248"/>
  <unicode hex="012C"/>
  <outline>
    <contour>
      <point x="124" y="827" type="line" smooth="yes"/>
      <point x="249" y="863" type="line" smooth="yes"/>
      <point x="283" y="950" type="line" smooth="yes"/>
      <point x="208" y="950" type="line" smooth="yes"/>
      <point x="188" y="906" type="line" smooth="yes"/>
      <point x="124" y="890" type="line" smooth="yes"/>
      <point x="60" y="906" type="line" smooth="yes"/>
      <point x="40" y="950" type="line" smooth="yes"/>
      <point x="-35" y="950" type="line" smooth="yes"/>
      <point x="-1" y="863" type="line" smooth="yes"/>
    </contour>
    <contour>
      <point x="176" y="780" type="line" smooth="yes"/>
      <point x="72" y="780" type="line" smooth="yes"/>
      <point x="72" y="0" type="line" smooth="yes"/>
      <point x="176" y="0" type="line" smooth="yes"/>
    </contour>
  </outline>
</glyph>
<glyph name="ibreve" format="1">
  <advance width="234"/>
  <unicode hex="012D"/>
  <outline>
    <contour>
      <point x="117" y="595" type="line" smooth="yes"/>
      <point x="249" y="647" type="line" smooth="yes"/>
      <point x="287" y="780" type="line" smooth="yes"/>
      <point x="210" y="780" type="line" smooth="yes"/>
      <point x="187" y="703" type="line" smooth="yes"/>
      <point x="117" y="676" type="line" smooth="yes"/>
      <point x="47" y="703" type="line" smooth="yes"/>
      <point x="24" y="780" type="line" smooth="yes"/>
      <point x="-53" y="780" type="line" smooth="yes"/>
      <point x="-15" y="647" type="line" smooth="yes"/>
    </contour>
    <contour>
      <point x="66" y="0" type="line" smooth="yes"/>
      <point x="168" y="0" type="line" smooth="yes"/>
      <point x="168" y="530" type="line" smooth="yes"/>
      <point x="66" y="530" type="line" smooth="yes"/>
    </contour>
  </outline>
</glyph>
<glyph name="Iogonek" format="1">
  <advance width="248"/>
  <unicode hex="012E"/>
  <outline>
    <contour>
      <point x="101" y="-91" type="line" smooth="yes"/>
      <point x="123" y="-36" type="line" smooth="yes"/>
      <point x="176" y="0" type="line" smooth="yes"/>
      <point x="176" y="780" type="line" smooth="yes"/>
      <point x="72" y="780" type="line" smooth="yes"/>
      <point x="72" y="1" type="line" smooth="yes"/>
      <point x="34" y="-48" type="line" smooth="yes"/>
      <point x="20" y="-111" type="line" smooth="yes"/>
      <point x="53" y="-188" type="line" smooth="yes"/>
      <point x="139" y="-213" type="line" smooth="yes"/>
      <point x="191" y="-207" type="line" smooth="yes"/>
      <point x="232" y="-191" type="line" smooth="yes"/>
      <point x="207" y="-123" type="line" smooth="yes"/>
      <point x="184" y="-132" type="line" smooth="yes"/>
      <point x="152" y="-136" type="line" smooth="yes"/>
      <point x="114" y="-123" type="line" smooth="yes"/>
    </contour>
  </outline>
</glyph>
<glyph name="iogonek" format="1">
  <advance width="234"/>
  <unicode hex="012F"/>
  <outline>
    <contour>
      <point x="174" y="754" type="line" smooth="yes"/>
      <point x="60" y="754" type="line" smooth="yes"/>
      <point x="60" y="640" type="line" smooth="yes"/>
      <point x="174" y="640" type="line" smooth="yes"/>
    </contour>
    <contour>
      <point x="91" y="-91" type="line" smooth="yes"/>
      <point x="113" y="-36" type="line" smooth="yes"/>
      <point x="166" y="0" type="line" smooth="yes"/>
      <point x="167" y="0" type="line" smooth="yes"/>
      <point x="167" y="530" type="line" smooth="yes"/>
      <point x="67" y="530" type="line" smooth="yes"/>
      <point x="67" y="6" type="line" smooth="yes"/>
      <point x="26" y="-44" type="line" smooth="yes"/>
      <point x="10" y="-111" type="line" smooth="yes"/>
      <point x="43" y="-188" type="line" smooth="yes"/>
      <point x="129" y="-213" type="line" smooth="yes"/>
      <point x="181" y="-207" type="line" smooth="yes"/>
      <point x="222" y="-191" type="line" smooth="yes"/>
      <point x="197" y="-123" type="line" smooth="yes"/>
      <point x="174" y="-132" type="line" smooth="yes"/>
      <point x="142" y="-136" type="line" smooth="yes"/>
      <point x="104" y="-123" type="line" smooth="yes"/>
    </contour>
  </outline>
</glyph>
<glyph name="Idotaccent" format="1">
  <advance width="248"/>
  <unicode hex="0130"/>
  <outline>
    <contour>
      <point x="173" y="936" type="line" smooth="yes"/>
      <point x="75" y="936" type="line" smooth="yes"/>
      <point x="75" y="854" type="line" smooth="yes"/>
      <point x="173" y="854" type="line" smooth="yes"/>
    </contour>
    <contour>
      <point x="176" y="780" type="line" smooth="yes"/>
      <point x="72" y="780" type="line" smooth="yes"/>
      <point x="72" y="0" type="line" smooth="yes"/>
      <point x="176" y="0" type="line" smooth="yes"/>
    </contour>
  </outline>
</glyph>
<glyph name="ij" format="1">
  <advance width="417"/>
  <unicode hex="0133"/>
  <outline>
    <contour>
      <point x="357" y="754" type="line" smooth="yes"/>
      <point x="243" y="754" type="line" smooth="yes"/>
      <point x="243" y="640" type="line" smooth="yes"/>
      <point x="357" y="640" type="line" smooth="yes"/>
    </contour>
    <contour>
      <point x="174" y="754" type="line" smooth="yes"/>
      <point x="60" y="754" type="line" smooth="yes"/>
      <point x="60" y="640" type="line" smooth="yes"/>
      <point x="174" y="640" type="line" smooth="yes"/>
    </contour>
    <contour>
      <point x="67" y="0" type="line" smooth="yes"/>
      <point x="167" y="0" type="line" smooth="yes"/>
      <point x="167" y="530" type="line" smooth="yes"/>
      <point x="67" y="530" type="line" smooth="yes"/>
    </contour>
    <contour>
      <point x="250" y="-29" type="line" smooth="yes"/>
      <point x="226" y="-105" type="line" smooth="yes"/>
      <point x="156" y="-124" type="line" smooth="yes"/>
      <point x="124" y="-121" type="line" smooth="yes"/>
      <point x="102" y="-116" type="line" smooth="yes"/>
      <point x="102" y="-200" type="line" smooth="yes"/>
      <point x="128" y="-208" type="line" smooth="yes"/>
      <point x="180" y="-212" type="line" smooth="yes"/>
      <point x="302" y="-173" type="line" smooth="yes"/>
      <point x="350" y="-40" type="line" smooth="yes"/>
      <point x="350" y="530" type="line" smooth="yes"/>
      <point x="250" y="530" type="line" smooth="yes"/>
    </contour>
  </outline>
</glyph>
<glyph name="Jcircumflex" format="1">
  <advance width="510"/>
  <unicode hex="0134"/>
  <outline>
    <contour>
      <point x="330" y="840" type="line" smooth="yes"/>
      <point x="396" y="897" type="line" smooth="yes"/>
      <point x="462" y="840" type="line" smooth="yes"/>
      <point x="558" y="840" type="line" smooth="yes"/>
      <point x="445" y="950" type="line" smooth="yes"/>
      <point x="347" y="950" type="line" smooth="yes"/>
      <point x="234" y="840" type="line" smooth="yes"/>
    </contour>
    <contour>
      <point x="344" y="780" type="line" smooth="yes"/>
      <point x="344" y="254" type="line" smooth="yes"/>
      <point x="319" y="123" type="line" smooth="yes"/>
      <point x="234" y="80" type="line" smooth="yes"/>
      <point x="150" y="123" type="line" smooth="yes"/>
      <point x="125" y="259" type="line" smooth="yes"/>
      <point x="27" y="259" type="line" smooth="yes"/>
      <point x="27" y="240" type="line" smooth="yes"/>
      <point x="73" y="54" type="line" smooth="yes"/>
      <point x="237" y="-12" type="line" smooth="yes"/>
      <point x="400" y="55" type="line" smooth="yes"/>
      <point x="448" y="239" type="line" smooth="yes"/>
      <point x="448" y="780" type="line" smooth="yes"/>
    </contour>
  </outline>
</glyph>
<glyph name="jcircumflex" format="1">
  <advance width="234"/>
  <unicode hex="0135"/>
  <outline>
    <contour>
      <point x="32" y="607" type="line" smooth="yes"/>
      <point x="117" y="709" type="line" smooth="yes"/>
      <point x="202" y="607" type="line" smooth="yes"/>
      <point x="296" y="607" type="line" smooth="yes"/>
      <point x="164" y="780" type="line" smooth="yes"/>
      <point x="70" y="780" type="line" smooth="yes"/>
      <point x="-62" y="607" type="line" smooth="yes"/>
    </contour>
    <contour>
      <point x="66" y="-28" type="line" smooth="yes"/>
      <point x="42" y="-104" type="line" smooth="yes"/>
      <point x="-27" y="-123" type="line" smooth="yes"/>
      <point x="-59" y="-120" type="line" smooth="yes"/>
      <point x="-81" y="-115" type="line" smooth="yes"/>
      <point x="-81" y="-200" type="line" smooth="yes"/>
      <point x="-56" y="-208" type="line" smooth="yes"/>
      <point x="-3" y="-212" type="line" smooth="yes"/>
      <point x="120" y="-173" type="line" smooth="yes"/>
      <point x="168" y="-39" type="line" smooth="yes"/>
      <point x="168" y="530" type="line" smooth="yes"/>
      <point x="66" y="530" type="line" smooth="yes"/>
    </contour>
  </outline>
</glyph>
<glyph name="Kcommaaccent" format="1">
  <advance width="585"/>
  <unicode hex="0136"/>
  <outline>
    <contour>
      <point x="342" y="-51" type="line" smooth="yes"/>
      <point x="240" y="-51" type="line" smooth="yes"/>
      <point x="240" y="-129" type="line" smooth="yes"/>
      <point x="297" y="-129" type="line" smooth="yes"/>
      <point x="271" y="-166" type="line" smooth="yes"/>
      <point x="222" y="-176" type="line" smooth="yes"/>
      <point x="222" y="-219" type="line" smooth="yes"/>
      <point x="312" y="-191" type="line" smooth="yes"/>
      <point x="342" y="-105" type="line" smooth="yes"/>
    </contour>
    <contour>
      <point x="171" y="780" type="line" smooth="yes"/>
      <point x="67" y="780" type="line" smooth="yes"/>
      <point x="67" y="0" type="line" smooth="yes"/>
      <point x="171" y="0" type="line" smooth="yes"/>
      <point x="171" y="234" type="line" smooth="yes"/>
      <point x="263" y="365" type="line" smooth="yes"/>
      <point x="439" y="0" type="line" smooth="yes"/>
      <point x="555" y="0" type="line" smooth="yes"/>
      <point x="328" y="457" type="line" smooth="yes"/>
      <point x="555" y="780" type="line" smooth="yes"/>
      <point x="429" y="780" type="line" smooth="yes"/>
      <point x="171" y="395" type="line" smooth="yes"/>
    </contour>
  </outline>
</glyph>
<glyph name="Lcommaaccent" format="1">
  <advance width="501"/>
  <unicode hex="013B"/>
  <outline>
    <contour>
      <point x="329" y="-51" type="line" smooth="yes"/>
      <point x="227" y="-51" type="line" smooth="yes"/>
      <point x="227" y="-129" type="line" smooth="yes"/>
      <point x="284" y="-129" type="line" smooth="yes"/>
      <point x="258" y="-166" type="line" smooth="yes"/>
      <point x="209" y="-176" type="line" smooth="yes"/>
      <point x="209" y="-219" type="line" smooth="yes"/>
      <point x="299" y="-191" type="line" smooth="yes"/>
      <point x="329" y="-105" type="line" smooth="yes"/>
    </contour>
    <contour>
      <point x="486" y="0" type="line" smooth="yes"/>
      <point x="486" y="92" type="line" smooth="yes"/>
      <point x="171" y="92" type="line" smooth="yes"/>
      <point x="171" y="780" type="line" smooth="yes"/>
      <point x="67" y="780" type="line" smooth="yes"/>
      <point x="67" y="0" type="line" smooth="yes"/>
    </contour>
  </outline>
</glyph>
<glyph name="Lcaron" format="1">
  <advance width="501"/>
  <unicode hex="013D"/>
  <outline>
    <contour>
      <point x="306" y="800" type="line" smooth="yes"/>
      <point x="306" y="607" type="line" smooth="yes"/>
      <point x="358" y="607" type="line" smooth="yes"/>
      <point x="379" y="800" type="line" smooth="yes"/>
    </contour>
    <contour>
      <point x="486" y="0" type="line" smooth="yes"/>
      <point x="486" y="92" type="line" smooth="yes"/>
      <point x="171" y="92" type="line" smooth="yes"/>
      <point x="171" y="780" type="line" smooth="yes"/>
      <point x="67" y="780" type="line" smooth="yes"/>
      <point x="67" y="0" type="line" smooth="yes"/>
    </contour>
  </outline>
</glyph>
<glyph name="nacute" format="1">
  <advance width="545"/>
  <unicode hex="0144"/>
  <outline>
    <contour>
      <point x="316" y="780" type="line" smooth="yes"/>
      <point x="225" y="607" type="line" smooth="yes"/>
      <point x="327" y="607" type="line" smooth="yes"/>
      <point x="426" y="780" type="line" smooth="yes"/>
    </contour>
    <contour>
      <point x="489" y="0" type="line" smooth="yes"/>
      <point x="489" y="367" type="line" smooth="yes"/>
      <point x="450" y="491" type="line" smooth="yes"/>
      <point x="327" y="542" type="line" smooth="yes"/>
      <point x="219" y="518" type="line" smooth="yes"/>
      <point x="152" y="457" type="line" smooth="yes"/>
      <point x="141" y="530" type="line" smooth="yes"/>
      <point x="55" y="530" type="line" smooth="yes"/>
      <point x="62" y="380" type="line" smooth="yes"/>
      <point x="62" y="0" type="line" smooth="yes"/>
      <point x="162" y="0" type="line" smooth="yes"/>
      <point x="162" y="383" type="line" smooth="yes"/>
      <point x="206" y="429" type="line" smooth="yes"/>
      <point x="290" y="454" type="line" smooth="yes"/>
      <point x="364" y="427" type="line" smooth="yes"/>
      <point x="390" y="351" type="line" smooth="yes"/>
      <point x="390" y="0" type="line" smooth="yes"/>
    </contour>
  </outline>
</glyph>
<glyph name="ncaron" format="1">
  <advance width="545"/>
  <unicode hex="0148"/>
  <outline>
    <contour>
      <point x="97" y="780" type="line" smooth="yes"/>
      <point x="229" y="607" type="line" smooth="yes"/>
      <point x="323" y="607" type="line" smooth="yes"/>
      <point x="455" y="780" type="line" smooth="yes"/>
      <point x="361" y="780" type="line" smooth="yes"/>
      <point x="276" y="678" type="line" smooth="yes"/>
      <point x="191" y="780" type="line" smooth="yes"/>
    </contour>
    <contour>
      <point x="489" y="0" type="line" smooth="yes"/>
      <point x="489" y="367" type="line" smooth="yes"/>
      <point x="450" y="491" type="line" smooth="yes"/>
      <point x="327" y="542" type="line" smooth="yes"/>
      <point x="219" y="518" type="line" smooth="yes"/>
      <point x="152" y="457" type="line" smooth="yes"/>
      <point x="141" y="530" type="line" smooth="yes"/>
      <point x="55" y="530" type="line" smooth="yes"/>
      <point x="62" y="380" type="line" smooth="yes"/>
      <point x="62" y="0" type="line" smooth="yes"/>
      <point x="162" y="0" type="line" smooth="yes"/>
      <point x="162" y="383" type="line" smooth="yes"/>
      <point x="206" y="429" type="line" smooth="yes"/>
      <point x="290" y="454" type="line" smooth="yes"/>
      <point x="364" y="427" type="line" smooth="yes"/>
      <point x="390" y="351" type="line" smooth="yes"/>
      <point x="390" y="0" type="line" smooth="yes"/>
    </contour>
  </outline>
</glyph>
<glyph name="eng" format="1">
  <advance width="545"/>
  <unicode hex="014B"/>
  <outline>
    <contour>
      <point x="389" y="-29" type="line" smooth="yes"/>
      <point x="365" y="-105" type="line" smooth="yes"/>
      <point x="295" y="-124" type="line" smooth="yes"/>
      <point x="264" y="-121" type="line" smooth="yes"/>
      <point x="241" y="-116" type="line" smooth="yes"/>
      <point x="241" y="-200" type="line" smooth="yes"/>
      <point x="267" y="-208" type="line" smooth="yes"/>
      <point x="319" y="-212" type="line" smooth="yes"/>
      <point x="442" y="-173" type="line" smooth="yes"/>
      <point x="489" y="-40" type="line" smooth="yes"/>
      <point x="489" y="367" type="line" smooth="yes"/>
      <point x="450" y="491" type="line" smooth="yes"/>
      <point x="327" y="542" type="line" smooth="yes"/>
      <point x="219" y="518" type="line" smooth="yes"/>
      <point x="152" y="457" type="line" smooth="yes"/>
      <point x="141" y="530" type="line" smooth="yes"/>
      <point x="55" y="530" type="line" smooth="yes"/>
      <point x="62" y="380" type="line" smooth="yes"/>
      <point x="62" y="0" type="line" smooth="yes"/>
      <point x="162" y="0" type="line" smooth="yes"/>
      <point x="162" y="383" type="line" smooth="yes"/>
      <point x="206" y="429" type="line" smooth="yes"/>
      <point x="290" y="454" type="line" smooth="yes"/>
      <point x="364" y="427" type="line" smooth="yes"/>
      <point x="389" y="351" type="line" smooth="yes"/>
    </contour>
  </outline>
</glyph>
<glyph name="Omacron" format="1">
  <advance width="657"/>
  <unicode hex="014C"/>
  <outline>
    <contour>
      <point x="203" y="860" type="line" smooth="yes"/>
      <point x="455" y="860" type="line" smooth="yes"/>
      <point x="455" y="930" type="line" smooth="yes"/>
      <point x="203" y="930" type="line" smooth="yes"/>
    </contour>
    <contour>
      <point x="325" y="80" type="line" smooth="yes"/>
      <point x="196" y="151" type="line" smooth="yes"/>
      <point x="157" y="370" type="line" smooth="yes"/>
      <point x="157" y="410" type="line" smooth="yes"/>
      <point x="196" y="629" type="line" smooth="yes"/>
      <point x="325" y="700" type="line" smooth="yes"/>
      <point x="332" y="700" type="line" smooth="yes"/>
      <point x="461" y="629" type="line" smooth="yes"/>
      <point x="500" y="410" type="line" smooth="yes"/>
      <point x="500" y="370" type="line" smooth="yes"/>
      <point x="461" y="151" type="line" smooth="yes"/>
      <point x="332" y="80" type="line" smooth="yes"/>
    </contour>
    <contour>
      <point x="329" y="-12" type="line" smooth="yes"/>
      <point x="538" y="78" type="line" smooth="yes"/>
      <point x="607" y="370" type="line" smooth="yes"/>
      <point x="607" y="410" type="line" smooth="yes"/>
      <point x="538" y="702" type="line" smooth="yes"/>
      <point x="329" y="792" type="line" smooth="yes"/>
      <point x="119" y="702" type="line" smooth="yes"/>
      <point x="50" y="410" type="line" smooth="yes"/>
      <point x="50" y="370" type="line" smooth="yes"/>
      <point x="119" y="78" type="line" smooth="yes"/>
    </contour>
  </outline>
</glyph>
<glyph name="Obreve" format="1">
  <advance width="657"/>
  <unicode hex="014E"/>
  <outline>
    <contour>
      <point x="329" y="827" type="line" smooth="yes"/>
      <point x="454" y="863" type="line" smooth="yes"/>
      <point x="488" y="950" type="line" smooth="yes"/>
      <point x="413" y="950" type="line" smooth="yes"/>
      <point x="393" y="906" type="line" smooth="yes"/>
      <point x="329" y="890" type="line" smooth="yes"/>
      <point x="265" y="906" type="line" smooth="yes"/>
      <point x="245" y="950" type="line" smooth="yes"/>
      <point x="170" y="950" type="line" smooth="yes"/>
      <point x="205" y="863" type="line" smooth="yes"/>
    </contour>
    <contour>
      <point x="325" y="80" type="line" smooth="yes"/>
      <point x="196" y="151" type="line" smooth="yes"/>
      <point x="157" y="370" type="line" smooth="yes"/>
      <point x="157" y="410" type="line" smooth="yes"/>
      <point x="196" y="629" type="line" smooth="yes"/>
      <point x="325" y="700" type="line" smooth="yes"/>
      <point x="332" y="700" type="line" smooth="yes"/>
      <point x="461" y="629" type="line" smooth="yes"/>
      <point x="500" y="410" type="line" smooth="yes"/>
      <point x="500" y="370" type="line" smooth="yes"/>
      <point x="461" y="151" type="line" smooth="yes"/>
      <point x="332" y="80" type="line" smooth="yes"/>
    </contour>
    <contour>
      <point x="329" y="-12" type="line" smooth="yes"/>
      <point x="538" y="78" type="line" smooth="yes"/>
      <point x="607" y="370" type="line" smooth="yes"/>
      <point x="607" y="410" type="line" smooth="yes"/>
      <point x="538" y="702" type="line" smooth="yes"/>
      <point x="329" y="792" type="line" smooth="yes"/>
      <point x="119" y="702" type="line" smooth="yes"/>
      <point x="50" y="410" type="line" smooth="yes"/>
      <point x="50" y="370" type="line" smooth="yes"/>
      <point x="119" y="78" type="line" smooth="yes"/>
    </contour>
  </outline>
</glyph>
<glyph name="obreve" format="1">
  <advance width="548"/>
  <unicode hex="014F"/>
  <outline>
    <contour>
      <point x="274" y="595" type="line" smooth="yes"/>
      <point x="406" y="647" type="line" smooth="yes"/>
      <point x="444" y="780" type="line" smooth="yes"/>
      <point x="367" y="780" type="line" smooth="yes"/>
      <point x="344" y="703" type="line" smooth="yes"/>
      <point x="274" y="676" type="line" smooth="yes"/>
      <point x="204" y="703" type="line" smooth="yes"/>
      <point x="181" y="780" type="line" smooth="yes"/>
      <point x="104" y="780" type="line" smooth="yes"/>
      <point x="142" y="647" type="line" smooth="yes"/>
    </contour>
    <contour>
      <point x="274" y="76" type="line" smooth="yes"/>
      <point x="175" y="124" type="line" smooth="yes"/>
      <point x="143" y="251" type="line" smooth="yes"/>
      <point x="143" y="279" type="line" smooth="yes"/>
      <point x="175" y="406" type="line" smooth="yes"/>
      <point x="274" y="454" type="line" smooth="yes"/>
      <point x="373" y="406" type="line" smooth="yes"/>
      <point x="405" y="279" type="line" smooth="yes"/>
      <point x="405" y="251" type="line" smooth="yes"/>
      <point x="373" y="124" type="line" smooth="yes"/>
    </contour>
    <contour>
      <point x="274" y="-12" type="line" smooth="yes"/>
      <point x="450" y="64" type="line" smooth="yes"/>
      <point x="506" y="251" type="line" smooth="yes"/>
      <point x="506" y="279" type="line" smooth="yes"/>
      <point x="450" y="466" type="line" smooth="yes"/>
      <point x="274" y="542" type="line" smooth="yes"/>
      <point x="98" y="466" type="line" smooth="yes"/>
      <point x="42" y="279" type="line" smooth="yes"/>
      <point x="42" y="251" type="line" smooth="yes"/>
      <point x="98" y="64" type="line" smooth="yes"/>
    </contour>
  </outline>
</glyph>
<glyph name="OE" format="1">
  <advance width="940"/>
  <unicode hex="0152"/>
  <outline>
    <contour>
      <point x="450" y="688" type="line" smooth="yes"/>
      <point x="450" y="92" type="line" smooth="yes"/>
      <point x="369" y="92" type="line" smooth="yes"/>
      <point x="209" y="157" type="line" smooth="yes"/>
      <point x="157" y="370" type="line" smooth="yes"/>
      <point x="157" y="410" type="line" smooth="yes"/>
      <point x="209" y="623" type="line" smooth="yes"/>
      <point x="369" y="688" type="line" smooth="yes"/>
    </contour>
    <contour>
      <point x="50" y="410" type="line" smooth="yes"/>
      <point x="50" y="370" type="line" smooth="yes"/>
      <point x="129" y="84" type="line" smooth="yes"/>
      <point x="361" y="0" type="line" smooth="yes"/>
      <point x="900" y="0" type="line" smooth="yes"/>
      <point x="900" y="92" type="line" smooth="yes"/>
      <point x="554" y="92" type="line" smooth="yes"/>
      <point x="554" y="352" type="line" smooth="yes"/>
      <point x="850" y="352" type="line" smooth="yes"/>
      <point x="850" y="444" type="line" smooth="yes"/>
      <point x="554" y="444" type="line" smooth="yes"/>
      <point x="554" y="688" type="line" smooth="yes"/>
      <point x="900" y="688" type="line" smooth="yes"/>
      <point x="900" y="780" type="line" smooth="yes"/>
      <point x="361" y="780" type="line" smooth="yes"/>
      <point x="129" y="696" type="line" smooth="yes"/>
    </contour>
  </outline>
</glyph>
<glyph name="oe" format="1">
  <advance width="911"/>
  <unicode hex="0153"/>
  <outline>
    <contour>
      <point x="637" y="462" type="line" smooth="yes"/>
      <point x="733" y="420" type="line" smooth="yes"/>
      <point x="768" y="303" type="line" smooth="yes"/>
      <point x="506" y="303" type="line" smooth="yes"/>
      <point x="540" y="420" type="line" smooth="yes"/>
    </contour>
    <contour>
      <point x="143" y="251" type="line" smooth="yes"/>
      <point x="143" y="279" type="line" smooth="yes"/>
      <point x="175" y="406" type="line" smooth="yes"/>
      <point x="274" y="454" type="line" smooth="yes"/>
      <point x="373" y="406" type="line" smooth="yes"/>
      <point x="405" y="279" type="line" smooth="yes"/>
      <point x="405" y="251" type="line" smooth="yes"/>
      <point x="373" y="124" type="line" smooth="yes"/>
      <point x="274" y="76" type="line" smooth="yes"/>
      <point x="175" y="124" type="line" smooth="yes"/>
    </contour>
    <contour>
      <point x="868" y="227" type="line" smooth="yes"/>
      <point x="868" y="277" type="line" smooth="yes"/>
      <point x="813" y="465" type="line" smooth="yes"/>
      <point x="638" y="542" type="line" smooth="yes"/>
      <point x="527" y="515" type="line" smooth="yes"/>
      <point x="456" y="444" type="line" smooth="yes"/>
      <point x="386" y="515" type="line" smooth="yes"/>
      <point x="274" y="542" type="line" smooth="yes"/>
      <point x="98" y="466" type="line" smooth="yes"/>
      <point x="42" y="279" type="line" smooth="yes"/>
      <point x="42" y="251" type="line" smooth="yes"/>
      <point x="98" y="64" type="line" smooth="yes"/>
      <point x="274" y="-12" type="line" smooth="yes"/>
      <point x="386" y="15" type="line" smooth="yes"/>
      <point x="456" y="86" type="line" smooth="yes"/>
      <point x="529" y="15" type="line" smooth="yes"/>
      <point x="644" y="-12" type="line" smooth="yes"/>
      <point x="812" y="44" type="line" smooth="yes"/>
      <point x="868" y="166" type="line" smooth="yes"/>
      <point x="868" y="170" type="line" smooth="yes"/>
      <point x="773" y="170" type="line" smooth="yes"/>
      <point x="742" y="101" type="line" smooth="yes"/>
      <point x="644" y="68" type="line" smooth="yes"/>
      <point x="543" y="109" type="line" smooth="yes"/>
      <point x="506" y="227" type="line" smooth="yes"/>
    </contour>
  </outline>
</glyph>
<glyph name="Rcommaaccent" format="1">
  <advance width="598"/>
  <unicode hex="0156"/>
  <outline>
    <contour>
      <point x="343" y="-51" type="line" smooth="yes"/>
      <point x="241" y="-51" type="line" smooth="yes"/>
      <point x="241" y="-129" type="line" smooth="yes"/>
      <point x="298" y="-129" type="line" smooth="yes"/>
      <point x="272" y="-166" type="line" smooth="yes"/>
      <point x="223" y="-176" type="line" smooth="yes"/>
      <point x="223" y="-219" type="line" smooth="yes"/>
      <point x="313" y="-191" type="line" smooth="yes"/>
      <point x="343" y="-105" type="line" smooth="yes"/>
    </contour>
    <contour>
      <point x="171" y="395" type="line" smooth="yes"/>
      <point x="171" y="688" type="line" smooth="yes"/>
      <point x="301" y="688" type="line" smooth="yes"/>
      <point x="394" y="662" type="line" smooth="yes"/>
      <point x="442" y="548" type="line" smooth="yes"/>
      <point x="442" y="535" type="line" smooth="yes"/>
      <point x="394" y="421" type="line" smooth="yes"/>
      <point x="301" y="395" type="line" smooth="yes"/>
    </contour>
    <contour>
      <point x="171" y="304" type="line" smooth="yes"/>
      <point x="317" y="304" type="line" smooth="yes"/>
      <point x="435" y="0" type="line" smooth="yes"/>
      <point x="548" y="0" type="line" smooth="yes"/>
      <point x="418" y="322" type="line" smooth="yes"/>
      <point x="510" y="390" type="line" smooth="yes"/>
      <point x="548" y="532" type="line" smooth="yes"/>
      <point x="548" y="552" type="line" smooth="yes"/>
      <point x="467" y="737" type="line" smooth="yes"/>
      <point x="298" y="780" type="line" smooth="yes"/>
      <point x="67" y="780" type="line" smooth="yes"/>
      <point x="67" y="0" type="line" smooth="yes"/>
      <point x="171" y="0" type="line" smooth="yes"/>
    </contour>
  </outline>
</glyph>
<glyph name="Scedilla" format="1">
  <advance width="611"/>
  <unicode hex="015E"/>
  <outline>
    <contour>
      <point x="212" y="-191" type="line" smooth="yes"/>
      <point x="252" y="-207" type="line" smooth="yes"/>
      <point x="309" y="-213" type="line" smooth="yes"/>
      <point x="389" y="-193" type="line" smooth="yes"/>
      <point x="418" y="-131" type="line" smooth="yes"/>
      <point x="387" y="-70" type="line" smooth="yes"/>
      <point x="316" y="-50" type="line" smooth="yes"/>
      <point x="330" y="-11" type="line" smooth="yes"/>
      <point x="507" y="54" type="line" smooth="yes"/>
      <point x="570" y="214" type="line" smooth="yes"/>
      <point x="570" y="225" type="line" smooth="yes"/>
      <point x="511" y="372" type="line" smooth="yes"/>
      <point x="324" y="441" type="line" smooth="yes"/>
      <point x="191" y="487" type="line" smooth="yes"/>
      <point x="156" y="575" type="line" smooth="yes"/>
      <point x="156" y="583" type="line" smooth="yes"/>
      <point x="196" y="668" type="line" smooth="yes"/>
      <point x="300" y="700" type="line" smooth="yes"/>
      <point x="307" y="700" type="line" smooth="yes"/>
      <point x="423" y="655" type="line" smooth="yes"/>
      <point x="458" y="511" type="line" smooth="yes"/>
      <point x="562" y="511" type="line" smooth="yes"/>
      <point x="562" y="535" type="line" smooth="yes"/>
      <point x="501" y="727" type="line" smooth="yes"/>
      <point x="306" y="792" type="line" smooth="yes"/>
      <point x="118" y="733" type="line" smooth="yes"/>
      <point x="49" y="575" type="line" smooth="yes"/>
      <point x="49" y="564" type="line" smooth="yes"/>
      <point x="105" y="424" type="line" smooth="yes"/>
      <point x="289" y="354" type="line" smooth="yes"/>
      <point x="424" y="309" type="line" smooth="yes"/>
      <point x="463" y="217" type="line" smooth="yes"/>
      <point x="463" y="209" type="line" smooth="yes"/>
      <point x="422" y="115" type="line" smooth="yes"/>
      <point x="310" y="80" type="line" smooth="yes"/>
      <point x="302" y="80" type="line" smooth="yes"/>
      <point x="188" y="123" type="line" smooth="yes"/>
      <point x="145" y="259" type="line" smooth="yes"/>
      <point x="41" y="259" type="line" smooth="yes"/>
      <point x="41" y="249" type="line" smooth="yes"/>
      <point x="100" y="63" type="line" smooth="yes"/>
      <point x="273" y="-11" type="line" smooth="yes"/>
      <point x="248" y="-77" type="line" smooth="yes"/>
      <point x="265" y="-102" type="line" smooth="yes"/>
      <point x="275" y="-101" type="line" smooth="yes"/>
      <point x="297" y="-99" type="line" smooth="yes"/>
      <point x="339" y="-105" type="line" smooth="yes"/>
      <point x="354" y="-126" type="line" smooth="yes"/>
      <point x="341" y="-148" type="line" smooth="yes"/>
      <point x="300" y="-155" type="line" smooth="yes"/>
      <point x="261" y="-150" type="line" smooth="yes"/>
      <point x="230" y="-139" type="line" smooth="yes"/>
    </contour>
  </outline>
</glyph>
<glyph name="scedilla" format="1">
  <advance width="524"/>
  <unicode hex="015F"/>
  <outline>
    <contour>
      <point x="168" y="-191" type="line" smooth="yes"/>
      <point x="208" y="-207" type="line" smooth="yes"/>
      <point x="265" y="-213" type="line" smooth="yes"/>
      <point x="345" y="-193" type="line" smooth="yes"/>
      <point x="374" y="-131" type="line" smooth="yes"/>
      <point x="343" y="-70" type="line" smooth="yes"/>
      <point x="272" y="-50" type="line" smooth="yes"/>
      <point x="286" y="-11" type="line" smooth="yes"/>
      <point x="427" y="39" type="line" smooth="yes"/>
      <point x="475" y="152" type="line" smooth="yes"/>
      <point x="475" y="158" type="line" smooth="yes"/>
      <point x="424" y="266" type="line" smooth="yes"/>
      <point x="274" y="305" type="line" smooth="yes"/>
      <point x="179" y="330" type="line" smooth="yes"/>
      <point x="156" y="385" type="line" smooth="yes"/>
      <point x="184" y="442" type="line" smooth="yes"/>
      <point x="262" y="462" type="line" smooth="yes"/>
      <point x="346" y="434" type="line" smooth="yes"/>
      <point x="370" y="358" type="line" smooth="yes"/>
      <point x="469" y="358" type="line" smooth="yes"/>
      <point x="469" y="362" type="line" smooth="yes"/>
      <point x="421" y="492" type="line" smooth="yes"/>
      <point x="262" y="542" type="line" smooth="yes"/>
      <point x="112" y="501" type="line" smooth="yes"/>
      <point x="56" y="383" type="line" smooth="yes"/>
      <point x="56" y="376" type="line" smooth="yes"/>
      <point x="99" y="277" type="line" smooth="yes"/>
      <point x="250" y="232" type="line" smooth="yes"/>
      <point x="345" y="210" type="line" smooth="yes"/>
      <point x="373" y="150" type="line" smooth="yes"/>
      <point x="345" y="91" type="line" smooth="yes"/>
      <point x="262" y="68" type="line" smooth="yes"/>
      <point x="173" y="97" type="line" smooth="yes"/>
      <point x="149" y="164" type="line" smooth="yes"/>
      <point x="50" y="164" type="line" smooth="yes"/>
      <point x="50" y="160" type="line" smooth="yes"/>
      <point x="92" y="48" type="line" smooth="yes"/>
      <point x="229" y="-10" type="line" smooth="yes"/>
      <point x="204" y="-77" type="line" smooth="yes"/>
      <point x="221" y="-102" type="line" smooth="yes"/>
      <point x="231" y="-101" type="line" smooth="yes"/>
      <point x="253" y="-99" type="line" smooth="yes"/>
      <point x="295" y="-105" type="line" smooth="yes"/>
      <point x="310" y="-126" type="line" smooth="yes"/>
      <point x="297" y="-148" type="line" smooth="yes"/>
      <point x="256" y="-155" type="line" smooth="yes"/>
      <point x="217" y="-150" type="line" smooth="yes"/>
      <point x="186" y="-139" type="line" smooth="yes"/>
    </contour>
  </outline>
</glyph>
<glyph name="Tcommaaccent" format="1">
  <advance width="530"/>
  <unicode hex="0162"/>
  <outline>
    <contour>
      <point x="316" y="-51" type="line" smooth="yes"/>
      <point x="214" y="-51" type="line" smooth="yes"/>
      <point x="214" y="-129" type="line" smooth="yes"/>
      <point x="271" y="-129" type="line" smooth="yes"/>
      <point x="245" y="-166" type="line" smooth="yes"/>
      <point x="196" y="-176" type="line" smooth="yes"/>
      <point x="196" y="-219" type="line" smooth="yes"/>
      <point x="286" y="-191" type="line" smooth="yes"/>
      <point x="316" y="-105" type="line" smooth="yes"/>
    </contour>
    <contour>
      <point x="317" y="688" type="line" smooth="yes"/>
      <point x="509" y="688" type="line" smooth="yes"/>
      <point x="509" y="780" type="line" smooth="yes"/>
      <point x="21" y="780" type="line" smooth="yes"/>
      <point x="21" y="688" type="line" smooth="yes"/>
      <point x="213" y="688" type="line" smooth="yes"/>
      <point x="213" y="0" type="line" smooth="yes"/>
      <point x="317" y="0" type="line" smooth="yes"/>
    </contour>
  </outline>
</glyph>
<glyph name="tcommaaccent" format="1">
  <advance width="411"/>
  <unicode hex="0163"/>
  <outline>
    <contour>
      <point x="285" y="-51" type="line" smooth="yes"/>
      <point x="183" y="-51" type="line" smooth="yes"/>
      <point x="183" y="-129" type="line" smooth="yes"/>
      <point x="240" y="-129" type="line" smooth="yes"/>
      <point x="214" y="-166" type="line" smooth="yes"/>
      <point x="165" y="-176" type="line" smooth="yes"/>
      <point x="165" y="-219" type="line" smooth="yes"/>
      <point x="255" y="-191" type="line" smooth="yes"/>
      <point x="285" y="-105" type="line" smooth="yes"/>
    </contour>
    <contour>
      <point x="210" y="530" type="line" smooth="yes"/>
      <point x="210" y="680" type="line" smooth="yes"/>
      <point x="110" y="680" type="line" smooth="yes"/>
      <point x="110" y="530" type="line" smooth="yes"/>
      <point x="27" y="530" type="line" smooth="yes"/>
      <point x="27" y="441" type="line" smooth="yes"/>
      <point x="110" y="441" type="line" smooth="yes"/>
      <point x="110" y="160" type="line" smooth="yes"/>
      <point x="158" y="27" type="line" smooth="yes"/>
      <point x="280" y="-12" type="line" smooth="yes"/>
      <point x="333" y="-8" type="line" smooth="yes"/>
      <point x="358" y="0" type="line" smooth="yes"/>
      <point x="358" y="84" type="line" smooth="yes"/>
      <point x="335" y="79" type="line" smooth="yes"/>
      <point x="303" y="76" type="line" smooth="yes"/>
      <point x="234" y="95" type="line" smooth="yes"/>
      <point x="210" y="171" type="line" smooth="yes"/>
      <point x="210" y="441" type="line" smooth="yes"/>
      <point x="368" y="441" type="line" smooth="yes"/>
      <point x="368" y="530" type="line" smooth="yes"/>
    </contour>
  </outline>
</glyph>
<glyph name="Tcaron" format="1">
  <advance width="530"/>
  <unicode hex="0164"/>
  <outline>
    <contour>
      <point x="103" y="950" type="line" smooth="yes"/>
      <point x="216" y="840" type="line" smooth="yes"/>
      <point x="314" y="840" type="line" smooth="yes"/>
      <point x="427" y="950" type="line" smooth="yes"/>
      <point x="331" y="950" type="line" smooth="yes"/>
      <point x="265" y="892" type="line" smooth="yes"/>
      <point x="199" y="950" type="line" smooth="yes"/>
    </contour>
    <contour>
      <point x="317" y="688" type="line" smooth="yes"/>
      <point x="509" y="688" type="line" smooth="yes"/>
      <point x="509" y="780" type="line" smooth="yes"/>
      <point x="21" y="780" type="line" smooth="yes"/>
      <point x="21" y="688" type="line" smooth="yes"/>
      <point x="213" y="688" type="line" smooth="yes"/>
      <point x="213" y="0" type="line" smooth="yes"/>
      <point x="317" y="0" type="line" smooth="yes"/>
    </contour>
  </outline>
</glyph>
<glyph name="tcaron" format="1">
  <advance width="411"/>
  <unicode hex="0165"/>
  <outline>
    <contour>
      <point x="277" y="800" type="line" smooth="yes"/>
      <point x="277" y="607" type="line" smooth="yes"/>
      <point x="329" y="607" type="line" smooth="yes"/>
      <point x="350" y="800" type="line" smooth="yes"/>
    </contour>
    <contour>
      <point x="210" y="530" type="line" smooth="yes"/>
      <point x="210" y="680" type="line" smooth="yes"/>
      <point x="110" y="680" type="line" smooth="yes"/>
      <point x="110" y="530" type="line" smooth="yes"/>
      <point x="27" y="530" type="line" smooth="yes"/>
      <point x="27" y="441" type="line" smooth="yes"/>
      <point x="110" y="441" type="line" smooth="yes"/>
      <point x="110" y="160" type="line" smooth="yes"/>
      <point x="158" y="27" type="line" smooth="yes"/>
      <point x="280" y="-12" type="line" smooth="yes"/>
      <point x="333" y="-8" type="line" smooth="yes"/>
      <point x="358" y="0" type="line" smooth="yes"/>
      <point x="358" y="84" type="line" smooth="yes"/>
      <point x="335" y="79" type="line" smooth="yes"/>
      <point x="303" y="76" type="line" smooth="yes"/>
      <point x="234" y="95" type="line" smooth="yes"/>
      <point x="210" y="171" type="line" smooth="yes"/>
      <point x="210" y="441" type="line" smooth="yes"/>
      <point x="368" y="441" type="line" smooth="yes"/>
      <point x="368" y="530" type="line" smooth="yes"/>
    </contour>
  </outline>
</glyph>
<glyph name="Utilde" format="1">
  <advance width="647"/>
  <unicode hex="0168"/>
  <outline>
    <contour>
      <point x="324" y="-12" type="line" smooth="yes"/>
      <point x="523" y="48" type="line" smooth="yes"/>
      <point x="585" y="243" type="line" smooth="yes"/>
      <point x="585" y="780" type="line" smooth="yes"/>
      <point x="481" y="780" type="line" smooth="yes"/>
      <point x="481" y="248" type="line" smooth="yes"/>
      <point x="443" y="118" type="line" smooth="yes"/>
      <point x="324" y="80" type="line" smooth="yes"/>
      <point x="204" y="118" type="line" smooth="yes"/>
      <point x="166" y="248" type="line" smooth="yes"/>
      <point x="166" y="780" type="line" smooth="yes"/>
      <point x="62" y="780" type="line" smooth="yes"/>
      <point x="62" y="243" type="line" smooth="yes"/>
      <point x="124" y="48" type="line" smooth="yes"/>
    </contour>
    <contour>
      <point x="425" y="940" type="line" smooth="yes"/>
      <point x="415" y="909" type="line" smooth="yes"/>
      <point x="390" y="901" type="line" smooth="yes"/>
      <point x="328" y="927" type="line" smooth="yes"/>
      <point x="248" y="952" type="line" smooth="yes"/>
      <point x="186" y="929" type="line" smooth="yes"/>
      <point x="161" y="850" type="line" smooth="yes"/>
      <point x="223" y="850" type="line" smooth="yes"/>
      <point x="233" y="881" type="line" smooth="yes"/>
      <point x="258" y="889" type="line" smooth="yes"/>
      <point x="320" y="864" type="line" smooth="yes"/>
      <point x="400" y="838" type="line" smooth="yes"/>
      <point x="462" y="861" type="line" smooth="yes"/>
      <point x="487" y="940" type="line" smooth="yes"/>
    </contour>
  </outline>
</glyph>
<glyph name="utilde" format="1">
  <advance width="545"/>
  <unicode hex="0169"/>
  <outline>
    <contour>
      <point x="369" y="755" type="line" smooth="yes"/>
      <point x="359" y="723" type="line" smooth="yes"/>
      <point x="335" y="714" type="line" smooth="yes"/>
      <point x="271" y="741" type="line" smooth="yes"/>
      <point x="189" y="768" type="line" smooth="yes"/>
      <point x="124" y="739" type="line" smooth="yes"/>
      <point x="98" y="645" type="line" smooth="yes"/>
      <point x="171" y="645" type="line" smooth="yes"/>
      <point x="181" y="677" type="line" smooth="yes"/>
      <point x="205" y="686" type="line" smooth="yes"/>
      <point x="269" y="659" type="line" smooth="yes"/>
      <point x="351" y="632" type="line" smooth="yes"/>
      <point x="416" y="661" type="line" smooth="yes"/>
      <point x="442" y="755" type="line" smooth="yes"/>
    </contour>
    <contour>
      <point x="56" y="530" type="line" smooth="yes"/>
      <point x="56" y="163" type="line" smooth="yes"/>
      <point x="96" y="39" type="line" smooth="yes"/>
      <point x="218" y="-12" type="line" smooth="yes"/>
      <point x="326" y="13" type="line" smooth="yes"/>
      <point x="393" y="73" type="line" smooth="yes"/>
      <point x="404" y="0" type="line" smooth="yes"/>
      <point x="491" y="0" type="line" smooth="yes"/>
      <point x="484" y="150" type="line" smooth="yes"/>
      <point x="484" y="530" type="line" smooth="yes"/>
      <point x="384" y="530" type="line" smooth="yes"/>
      <point x="384" y="147" type="line" smooth="yes"/>
      <point x="339" y="101" type="line" smooth="yes"/>
      <point x="255" y="76" type="line" smooth="yes"/>
      <point x="182" y="103" type="line" smooth="yes"/>
      <point x="156" y="179" type="line" smooth="yes"/>
      <point x="156" y="530" type="line" smooth="yes"/>
    </contour>
  </outline>
</glyph>
<glyph name="Umacron" format="1">
  <advance width="647"/>
  <unicode hex="016A"/>
  <outline>
    <contour>
      <point x="198" y="860" type="line" smooth="yes"/>
      <point x="450" y="860" type="line" smooth="yes"/>
      <point x="450" y="930" type="line" smooth="yes"/>
      <point x="198" y="930" type="line" smooth="yes"/>
    </contour>
    <contour>
      <point x="324" y="-12" type="line" smooth="yes"/>
      <point x="523" y="48" type="line" smooth="yes"/>
      <point x="585" y="243" type="line" smooth="yes"/>
      <point x="585" y="780" type="line" smooth="yes"/>
      <point x="481" y="780" type="line" smooth="yes"/>
      <point x="481" y="248" type="line" smooth="yes"/>
      <point x="443" y="118" type="line" smooth="yes"/>
      <point x="324" y="80" type="line" smooth="yes"/>
      <point x="204" y="118" type="line" smooth="yes"/>
      <point x="166" y="248" type="line" smooth="yes"/>
      <point x="166" y="780" type="line" smooth="yes"/>
      <point x="62" y="780" type="line" smooth="yes"/>
      <point x="62" y="243" type="line" smooth="yes"/>
      <point x="124" y="48" type="line" smooth="yes"/>
    </contour>
  </outline>
</glyph>
<glyph name="umacron" format="1">
  <advance width="545"/>
  <unicode hex="016B"/>
  <outline>
    <contour>
      <point x="142" y="648" type="line" smooth="yes"/>
      <point x="398" y="648" type="line" smooth="yes"/>
      <point x="398" y="739" type="line" smooth="yes"/>
      <point x="142" y="739" type="line" smooth="yes"/>
    </contour>
    <contour>
      <point x="56" y="530" type="line" smooth="yes"/>
      <point x="56" y="163" type="line" smooth="yes"/>
      <point x="96" y="39" type="line" smooth="yes"/>
      <point x="218" y="-12" type="line" smooth="yes"/>
      <point x="326" y="13" type="line" smooth="yes"/>
      <point x="393" y="73" type="line" smooth="yes"/>
      <point x="404" y="0" type="line" smooth="yes"/>
      <point x="491" y="0" type="line" smooth="yes"/>
      <point x="484" y="150" type="line" smooth="yes"/>
      <point x="484" y="530" type="line" smooth="yes"/>
      <point x="384" y="530" type="line" smooth="yes"/>
      <point x="384" y="147" type="line" smooth="yes"/>
      <point x="339" y="101" type="line" smooth="yes"/>
      <point x="255" y="76" type="line" smooth="yes"/>
      <point x="182" y="103" type="line" smooth="yes"/>
      <point x="156" y="179" type="line" smooth="yes"/>
      <point x="156" y="530" type="line" smooth="yes"/>
    </contour>
  </outline>
</glyph>
<glyph name="ubreve" format="1">
  <advance width="545"/>
  <unicode hex="016D"/>
  <outline>
    <contour>
      <point x="270" y="595" type="line" smooth="yes"/>
      <point x="402" y="647" type="line" smooth="yes"/>
      <point x="440" y="780" type="line" smooth="yes"/>
      <point x="363" y="780" type="line" smooth="yes"/>
      <point x="340" y="703" type="line" smooth="yes"/>
      <point x="270" y="676" type="line" smooth="yes"/>
      <point x="200" y="703" type="line" smooth="yes"/>
      <point x="177" y="780" type="line" smooth="yes"/>
      <point x="100" y="780" type="line" smooth="yes"/>
      <point x="138" y="647" type="line" smooth="yes"/>
    </contour>
    <contour>
      <point x="56" y="530" type="line" smooth="yes"/>
      <point x="56" y="163" type="line" smooth="yes"/>
      <point x="96" y="39" type="line" smooth="yes"/>
      <point x="218" y="-12" type="line" smooth="yes"/>
      <point x="326" y="13" type="line" smooth="yes"/>
      <point x="393" y="73" type="line" smooth="yes"/>
      <point x="404" y="0" type="line" smooth="yes"/>
      <point x="491" y="0" type="line" smooth="yes"/>
      <point x="484" y="150" type="line" smooth="yes"/>
      <point x="484" y="530" type="line" smooth="yes"/>
      <point x="384" y="530" type="line" smooth="yes"/>
      <point x="384" y="147" type="line" smooth="yes"/>
      <point x="339" y="101" type="line" smooth="yes"/>
      <point x="255" y="76" type="line" smooth="yes"/>
      <point x="182" y="103" type="line" smooth="yes"/>
      <point x="156" y="179" type="line" smooth="yes"/>
      <point x="156" y="530" type="line" smooth="yes"/>
    </contour>
  </outline>
</glyph>
<glyph name="Uring" format="1">
  <advance width="647"/>
  <unicode hex="016E"/>
  <outline>
    <contour>
      <point x="270" y="864" type="line" smooth="yes"/>
      <point x="286" y="902" type="line" smooth="yes"/>
      <point x="324" y="918" type="line" smooth="yes"/>
      <point x="362" y="902" type="line" smooth="yes"/>
      <point x="378" y="864" type="line" smooth="yes"/>
      <point x="362" y="825" type="line" smooth="yes"/>
      <point x="324" y="809" type="line" smooth="yes"/>
      <point x="286" y="825" type="line" smooth="yes"/>
    </contour>
    <contour>
      <point x="226" y="864" type="line" smooth="yes"/>
      <point x="255" y="794" type="line" smooth="yes"/>
      <point x="324" y="765" type="line" smooth="yes"/>
      <point x="393" y="794" type="line" smooth="yes"/>
      <point x="422" y="864" type="line" smooth="yes"/>
      <point x="393" y="933" type="line" smooth="yes"/>
      <point x="324" y="962" type="line" smooth="yes"/>
      <point x="255" y="933" type="line" smooth="yes"/>
    </contour>
    <contour>
      <point x="324" y="-12" type="line" smooth="yes"/>
      <point x="523" y="48" type="line" smooth="yes"/>
      <point x="585" y="243" type="line" smooth="yes"/>
      <point x="585" y="780" type="line" smooth="yes"/>
      <point x="481" y="780" type="line" smooth="yes"/>
      <point x="481" y="248" type="line" smooth="yes"/>
      <point x="443" y="118" type="line" smooth="yes"/>
      <point x="324" y="80" type="line" smooth="yes"/>
      <point x="204" y="118" type="line" smooth="yes"/>
      <point x="166" y="248" type="line" smooth="yes"/>
      <point x="166" y="780" type="line" smooth="yes"/>
      <point x="62" y="780" type="line" smooth="yes"/>
      <point x="62" y="243" type="line" smooth="yes"/>
      <point x="124" y="48" type="line" smooth="yes"/>
    </contour>
  </outline>
</glyph>
<glyph name="uring" format="1">
  <advance width="545"/>
  <unicode hex="016F"/>
  <outline>
    <contour>
      <point x="216" y="694" type="line" smooth="yes"/>
      <point x="232" y="732" type="line" smooth="yes"/>
      <point x="270" y="748" type="line" smooth="yes"/>
      <point x="308" y="732" type="line" smooth="yes"/>
      <point x="324" y="694" type="line" smooth="yes"/>
      <point x="308" y="655" type="line" smooth="yes"/>
      <point x="270" y="639" type="line" smooth="yes"/>
      <point x="232" y="655" type="line" smooth="yes"/>
    </contour>
    <contour>
      <point x="172" y="694" type="line" smooth="yes"/>
      <point x="201" y="624" type="line" smooth="yes"/>
      <point x="270" y="595" type="line" smooth="yes"/>
      <point x="339" y="624" type="line" smooth="yes"/>
      <point x="368" y="694" type="line" smooth="yes"/>
      <point x="339" y="763" type="line" smooth="yes"/>
      <point x="270" y="792" type="line" smooth="yes"/>
      <point x="201" y="763" type="line" smooth="yes"/>
    </contour>
    <contour>
      <point x="56" y="530" type="line" smooth="yes"/>
      <point x="56" y="163" type="line" smooth="yes"/>
      <point x="96" y="39" type="line" smooth="yes"/>
      <point x="218" y="-12" type="line" smooth="yes"/>
      <point x="326" y="13" type="line" smooth="yes"/>
      <point x="393" y="73" type="line" smooth="yes"/>
      <point x="404" y="0" type="line" smooth="yes"/>
      <point x="491" y="0" type="line" smooth="yes"/>
      <point x="484" y="150" type="line" smooth="yes"/>
      <point x="484" y="530" type="line" smooth="yes"/>
      <point x="384" y="530" type="line" smooth="yes"/>
      <point x="384" y="147" type="line" smooth="yes"/>
      <point x="339" y="101" type="line" smooth="yes"/>
      <point x="255" y="76" type="line" smooth="yes"/>
      <point x="182" y="103" type="line" smooth="yes"/>
      <point x="156" y="179" type="line" smooth="yes"/>
      <point x="156" y="530" type="line" smooth="yes"/>
    </contour>
  </outline>
</glyph>
<glyph name="Uogonek" format="1">
  <advance width="647"/>
  <unicode hex="0172"/>
  <outline>
    <contour>
      <point x="356" y="-91" type="line" smooth="yes"/>
      <point x="378" y="-34" type="line" smooth="yes"/>
      <point x="432" y="0" type="line" smooth="yes"/>
      <point x="548" y="79" type="line" smooth="yes"/>
      <point x="585" y="243" type="line" smooth="yes"/>
      <point x="585" y="780" type="line" smooth="yes"/>
      <point x="481" y="780" type="line" smooth="yes"/>
      <point x="481" y="248" type="line" smooth="yes"/>
      <point x="443" y="118" type="line" smooth="yes"/>
      <point x="324" y="80" type="line" smooth="yes"/>
      <point x="204" y="118" type="line" smooth="yes"/>
      <point x="166" y="248" type="line" smooth="yes"/>
      <point x="166" y="780" type="line" smooth="yes"/>
      <point x="62" y="780" type="line" smooth="yes"/>
      <point x="62" y="243" type="line" smooth="yes"/>
      <point x="122" y="50" type="line" smooth="yes"/>
      <point x="313" y="-12" type="line" smooth="yes"/>
      <point x="285" y="-56" type="line" smooth="yes"/>
      <point x="275" y="-111" type="line" smooth="yes"/>
      <point x="308" y="-188" type="line" smooth="yes"/>
      <point x="394" y="-213" type="line" smooth="yes"/>
      <point x="446" y="-207" type="line" smooth="yes"/>
      <point x="487" y="-191" type="line" smooth="yes"/>
      <point x="462" y="-123" type="line" smooth="yes"/>
      <point x="439" y="-132" type="line" smooth="yes"/>
      <point x="407" y="-136" type="line" smooth="yes"/>
      <point x="369" y="-123" type="line" smooth="yes"/>
    </contour>
  </outline>
</glyph>
